dosis_book.sfdir
StartChar: exclam
Encoding: 33 33 214
Width: 205
Flags: W
LayerCount: 2
Back
Fore
SplineSet
140 705 m 0,0,1
 140 581 140 581 134.5 446.5 c 128,-1,2
 129 312 129 312 129 188 c 0,3,4
 129 176 129 176 119.5 170.5 c 128,-1,5
 110 165 110 165 102 165 c 0,6,7
 92 165 92 165 84 170.5 c 128,-1,8
 76 176 76 176 76 188 c 0,9,10
 76 312 76 312 70 446.5 c 128,-1,11
 64 581 64 581 64 705 c 0,12,13
 64 724 64 724 75 734 c 128,-1,14
 86 744 86 744 102 744 c 256,15,16
 118 744 118 744 129 734 c 128,-1,17
 140 724 140 724 140 705 c 0,0,1
103 87 m 0,18,19
 122 87 122 87 135 73.5 c 128,-1,20
 148 60 148 60 148 40 c 0,21,22
 148 22 148 22 135 8 c 128,-1,23
 122 -6 122 -6 103 -6 c 0,24,25
 83 -6 83 -6 70 8 c 128,-1,26
 57 22 57 22 57 40 c 0,27,28
 57 60 57 60 70 73.5 c 128,-1,29
 83 87 83 87 103 87 c 0,18,19
EndSplineSet
EndChar
StartChar: quotedbl
Encoding: 34 34 331
Width: 270
Flags: W
LayerCount: 2
Back
Fore
SplineSet
69 768 m 256,0,1
 80 768 80 768 91 762 c 128,-1,2
 102 756 102 756 102 746 c 2,3,-1
 92 599 l 2,4,5
 92 590 92 590 86.5 583 c 128,-1,6
 81 576 81 576 69 576 c 0,7,8
 58 576 58 576 53 583 c 128,-1,9
 48 590 48 590 48 599 c 2,10,-1
 38 746 l 2,11,12
 38 756 38 756 48 762 c 128,-1,13
 58 768 58 768 69 768 c 256,0,1
199 768 m 256,14,15
 210 768 210 768 221 762 c 128,-1,16
 232 756 232 756 232 746 c 2,17,-1
 222 599 l 2,18,19
 222 590 222 590 216.5 583 c 128,-1,20
 211 576 211 576 199 576 c 0,21,22
 188 576 188 576 183 583 c 128,-1,23
 178 590 178 590 178 599 c 2,24,-1
 168 746 l 2,25,26
 168 756 168 756 178 762 c 128,-1,27
 188 768 188 768 199 768 c 256,14,15
EndSplineSet
EndChar
StartChar: numbersign
Encoding: 35 35 290
Width: 583
Flags: W
LayerCount: 2
Back
Fore
SplineSet
244 713 m 0,0,1
 258 713 258 713 267 705.5 c 128,-1,2
 276 698 276 698 276 684 c 2,3,-1
 249 515 l 1,4,-1
 376 515 l 1,5,-1
 405 698 l 2,6,7
 407 705 407 705 414 709 c 128,-1,8
 421 713 421 713 430 713 c 0,9,10
 444 713 444 713 453 705.5 c 128,-1,11
 462 698 462 698 462 684 c 2,12,-1
 435 515 l 1,13,-1
 533 515 l 2,14,15
 541 515 541 515 549.5 508 c 128,-1,16
 558 501 558 501 558 490 c 256,17,18
 558 479 558 479 551.5 471.5 c 128,-1,19
 545 464 545 464 537 464 c 2,20,-1
 427 464 l 1,21,-1
 401 304 l 1,22,-1
 499 304 l 2,23,24
 507 304 507 304 515.5 297 c 128,-1,25
 524 290 524 290 524 278 c 0,26,27
 524 267 524 267 517.5 260 c 128,-1,28
 511 253 511 253 503 253 c 2,29,-1
 392 253 l 1,30,-1
 361 54 l 2,31,32
 359 45 359 45 350.5 39.5 c 128,-1,33
 342 34 342 34 333 34 c 0,34,35
 321 34 321 34 311.5 41.5 c 128,-1,36
 302 49 302 49 302 63 c 2,37,-1
 331 253 l 1,38,-1
 206 253 l 1,39,-1
 175 55 l 2,40,41
 173 44 173 44 164.5 39 c 128,-1,42
 156 34 156 34 148 34 c 0,43,44
 136 34 136 34 126.5 41.5 c 128,-1,45
 117 49 117 49 117 63 c 2,46,-1
 145 253 l 1,47,-1
 50 253 l 2,48,49
 26 253 26 253 26 278 c 0,50,51
 26 289 26 289 31.5 296.5 c 128,-1,52
 37 304 37 304 46 304 c 2,53,-1
 156 304 l 1,54,-1
 180 464 l 1,55,-1
 84 464 l 2,56,57
 60 464 60 464 60 490 c 0,58,59
 60 501 60 501 65.5 508 c 128,-1,60
 71 515 71 515 80 515 c 2,61,-1
 190 515 l 1,62,-1
 219 698 l 2,63,64
 221 705 221 705 228 709 c 128,-1,65
 235 713 235 713 244 713 c 0,0,1
215 304 m 1,66,-1
 341 304 l 1,67,-1
 366 464 l 1,68,-1
 240 464 l 1,69,-1
 215 304 l 1,66,-1
EndSplineSet
EndChar
StartChar: dollar
Encoding: 36 36 190
Width: 499
Flags: W
LayerCount: 2
Back
Fore
SplineSet
239 3 m 1,0,1
 192 3 192 3 154.5 15 c 128,-1,2
 117 27 117 27 91.5 44 c 128,-1,3
 66 61 66 61 52.5 79 c 128,-1,4
 39 97 39 97 39 111 c 0,5,6
 39 123 39 123 48.5 135.5 c 128,-1,7
 58 148 58 148 69 148 c 0,8,9
 78 148 78 148 88 135.5 c 128,-1,10
 98 123 98 123 116 108 c 128,-1,11
 134 93 134 93 163 80 c 128,-1,12
 192 67 192 67 239 66 c 1,13,-1
 239 357 l 1,14,15
 206 369 206 369 173.5 382 c 128,-1,16
 141 395 141 395 115 415.5 c 128,-1,17
 89 436 89 436 73 467 c 128,-1,18
 57 498 57 498 57 546 c 0,19,20
 57 593 57 593 73 625 c 128,-1,21
 89 657 89 657 115 677 c 128,-1,22
 141 697 141 697 173.5 706.5 c 128,-1,23
 206 716 206 716 239 718 c 1,24,-1
 239 749 l 2,25,26
 239 757 239 757 245.5 762.5 c 128,-1,27
 252 768 252 768 262 768 c 0,28,29
 270 768 270 768 277.5 762.5 c 128,-1,30
 285 757 285 757 285 749 c 2,31,-1
 285 720 l 1,32,33
 312 719 312 719 339 714 c 128,-1,34
 366 709 366 709 388 701 c 128,-1,35
 410 693 410 693 423.5 682 c 128,-1,36
 437 671 437 671 437 659 c 0,37,38
 437 649 437 649 429.5 635.5 c 128,-1,39
 422 622 422 622 408 622 c 0,40,41
 401 622 401 622 391.5 627 c 128,-1,42
 382 632 382 632 368 639 c 128,-1,43
 354 646 354 646 333.5 651.5 c 128,-1,44
 313 657 313 657 285 659 c 1,45,-1
 285 411 l 1,46,47
 316 400 316 400 346.5 385 c 128,-1,48
 377 370 377 370 401 346.5 c 128,-1,49
 425 323 425 323 440 288 c 128,-1,50
 455 253 455 253 455 202 c 0,51,52
 455 111 455 111 407.5 63.5 c 128,-1,53
 360 16 360 16 285 6 c 1,54,-1
 285 -33 l 2,55,56
 285 -41 285 -41 277.5 -46.5 c 128,-1,57
 270 -52 270 -52 262 -52 c 0,58,59
 252 -52 252 -52 245.5 -46.5 c 128,-1,60
 239 -41 239 -41 239 -33 c 2,61,-1
 239 3 l 1,0,1
391 196 m 0,62,63
 391 229 391 229 382.5 252 c 128,-1,64
 374 275 374 275 359 291.5 c 128,-1,65
 344 308 344 308 324 320 c 128,-1,66
 304 332 304 332 282 341 c 1,67,-1
 282 68 l 1,68,69
 335 76 335 76 363 108 c 128,-1,70
 391 140 391 140 391 196 c 0,62,63
120 552 m 0,71,72
 120 523 120 523 130 503 c 128,-1,73
 140 483 140 483 156.5 468.5 c 128,-1,74
 173 454 173 454 195 444.5 c 128,-1,75
 217 435 217 435 241 426 c 1,76,-1
 241 658 l 1,77,78
 217 656 217 656 195.5 649.5 c 128,-1,79
 174 643 174 643 157 630.5 c 128,-1,80
 140 618 140 618 130 599 c 128,-1,81
 120 580 120 580 120 552 c 0,71,72
EndSplineSet
EndChar
StartChar: percent
Encoding: 37 37 319
Width: 757
Flags: W
LayerCount: 2
Back
Fore
SplineSet
164 351 m 0,0,1
 111 351 111 351 75.5 377 c 128,-1,2
 40 403 40 403 40 465 c 2,3,-1
 40 617 l 2,4,5
 40 679 40 679 75.5 705 c 128,-1,6
 111 731 111 731 164 731 c 0,7,8
 190 731 190 731 213 725 c 128,-1,9
 236 719 236 719 252.5 705.5 c 128,-1,10
 269 692 269 692 278.5 670 c 128,-1,11
 288 648 288 648 288 617 c 2,12,-1
 288 465 l 2,13,14
 288 434 288 434 278.5 412 c 128,-1,15
 269 390 269 390 252.5 376.5 c 128,-1,16
 236 363 236 363 213 357 c 128,-1,17
 190 351 190 351 164 351 c 0,0,1
238 617 m 2,18,19
 238 652 238 652 218.5 669 c 128,-1,20
 199 686 199 686 164 686 c 256,21,22
 129 686 129 686 110 669 c 128,-1,23
 91 652 91 652 91 617 c 2,24,-1
 91 465 l 2,25,26
 91 430 91 430 110 413 c 128,-1,27
 129 396 129 396 164 396 c 256,28,29
 199 396 199 396 218.5 413 c 128,-1,30
 238 430 238 430 238 465 c 2,31,-1
 238 617 l 2,18,19
593 -3 m 0,32,33
 540 -3 540 -3 504.5 23 c 128,-1,34
 469 49 469 49 469 111 c 2,35,-1
 469 263 l 2,36,37
 469 324 469 324 504.5 350.5 c 128,-1,38
 540 377 540 377 593 377 c 0,39,40
 619 377 619 377 642 370.5 c 128,-1,41
 665 364 665 364 681.5 350.5 c 128,-1,42
 698 337 698 337 707.5 315.5 c 128,-1,43
 717 294 717 294 717 263 c 2,44,-1
 717 111 l 2,45,46
 717 80 717 80 707.5 58 c 128,-1,47
 698 36 698 36 681.5 22.5 c 128,-1,48
 665 9 665 9 642 3 c 128,-1,49
 619 -3 619 -3 593 -3 c 0,32,33
667 263 m 2,50,51
 667 298 667 298 647.5 315 c 128,-1,52
 628 332 628 332 593 332 c 256,53,54
 558 332 558 332 539 315 c 128,-1,55
 520 298 520 298 520 263 c 2,56,-1
 520 111 l 2,57,58
 520 76 520 76 539 59 c 128,-1,59
 558 42 558 42 593 42 c 256,60,61
 628 42 628 42 647.5 59 c 128,-1,62
 667 76 667 76 667 111 c 2,63,-1
 667 263 l 2,50,51
570 769 m 0,64,65
 580 769 580 769 589 761.5 c 128,-1,66
 598 754 598 754 598 742 c 0,67,68
 598 735 598 735 595 729 c 2,69,-1
 216 -12 l 2,70,71
 208 -27 208 -27 192 -27 c 0,72,73
 181 -27 181 -27 173.5 -19.5 c 128,-1,74
 166 -12 166 -12 166 -2 c 0,75,76
 166 4 166 4 169 10 c 2,77,-1
 550 757 l 2,78,79
 553 764 553 764 558.5 766.5 c 128,-1,80
 564 769 564 769 570 769 c 0,64,65
EndSplineSet
Ligature2: "'frac' Diagonal Fractions in Latin lookup 9 subtable" zero slash zero
EndChar
StartChar: ampersand
Encoding: 38 38 142
Width: 610
Flags: W
LayerCount: 2
Back
Fore
SplineSet
263 -10 m 0,0,1
 209 -10 209 -10 166 7 c 128,-1,2
 123 24 123 24 94 53.5 c 128,-1,3
 65 83 65 83 49.5 121.5 c 128,-1,4
 34 160 34 160 34 203 c 0,5,6
 34 241 34 241 45.5 272.5 c 128,-1,7
 57 304 57 304 76.5 329 c 128,-1,8
 96 354 96 354 120 372 c 128,-1,9
 144 390 144 390 170 402 c 1,10,11
 155 420 155 420 140.5 439 c 128,-1,12
 126 458 126 458 114.5 479.5 c 128,-1,13
 103 501 103 501 96 525 c 128,-1,14
 89 549 89 549 89 578 c 0,15,16
 89 619 89 619 103.5 650.5 c 128,-1,17
 118 682 118 682 142.5 704 c 128,-1,18
 167 726 167 726 200 737 c 128,-1,19
 233 748 233 748 270 748 c 0,20,21
 311 748 311 748 341.5 737 c 128,-1,22
 372 726 372 726 392.5 710.5 c 128,-1,23
 413 695 413 695 423 678.5 c 128,-1,24
 433 662 433 662 433 652 c 0,25,26
 433 639 433 639 424 630.5 c 128,-1,27
 415 622 415 622 402 622 c 0,28,29
 392 622 392 622 383.5 633 c 128,-1,30
 375 644 375 644 362 657.5 c 128,-1,31
 349 671 349 671 328 682 c 128,-1,32
 307 693 307 693 273 693 c 0,33,34
 219 693 219 693 188 660.5 c 128,-1,35
 157 628 157 628 157 574 c 0,36,37
 157 548 157 548 165 524.5 c 128,-1,38
 173 501 173 501 186 480 c 128,-1,39
 199 459 199 459 215.5 439.5 c 128,-1,40
 232 420 232 420 250 401 c 2,41,-1
 453 179 l 1,42,43
 474 227 474 227 479.5 276.5 c 128,-1,44
 485 326 485 326 487 361 c 0,45,46
 488 375 488 375 494 381.5 c 128,-1,47
 500 388 500 388 517 388 c 0,48,49
 533 388 533 388 539 379.5 c 128,-1,50
 545 371 545 371 545 353 c 0,51,52
 545 338 545 338 543 313 c 128,-1,53
 541 288 541 288 535.5 258.5 c 128,-1,54
 530 229 530 229 520.5 197 c 128,-1,55
 511 165 511 165 495 134 c 1,56,-1
 586 35 l 2,57,58
 593 27 593 27 593 21 c 0,59,60
 593 10 593 10 583.5 1.5 c 128,-1,61
 574 -7 574 -7 563 -7 c 0,62,63
 553 -7 553 -7 544 2 c 2,64,-1
 463 89 l 1,65,66
 431 46 431 46 382.5 18 c 128,-1,67
 334 -10 334 -10 263 -10 c 0,0,1
272 50 m 0,68,69
 328 50 328 50 364 73 c 128,-1,70
 400 96 400 96 422 131 c 1,71,-1
 207 360 l 1,72,73
 190 350 190 350 171.5 337.5 c 128,-1,74
 153 325 153 325 137.5 307 c 128,-1,75
 122 289 122 289 111.5 265 c 128,-1,76
 101 241 101 241 101 209 c 256,77,78
 101 177 101 177 112 148 c 128,-1,79
 123 119 123 119 145 97.5 c 128,-1,80
 167 76 167 76 199 63 c 128,-1,81
 231 50 231 50 272 50 c 0,68,69
EndSplineSet
EndChar
StartChar: quotesingle
Encoding: 39 39 338
Width: 140
Flags: W
LayerCount: 2
Back
Fore
SplineSet
69 768 m 256,0,1
 80 768 80 768 91 762 c 128,-1,2
 102 756 102 756 102 746 c 2,3,-1
 92 599 l 2,4,5
 92 590 92 590 86.5 583 c 128,-1,6
 81 576 81 576 69 576 c 0,7,8
 58 576 58 576 53 583 c 128,-1,9
 48 590 48 590 48 599 c 2,10,-1
 38 746 l 2,11,12
 38 756 38 756 48 762 c 128,-1,13
 58 768 58 768 69 768 c 256,0,1
EndSplineSet
EndChar
StartChar: parenleft
Encoding: 40 40 316
Width: 299
Flags: W
LayerCount: 2
Back
Fore
SplineSet
247 -20 m 0,0,1
 208 -20 208 -20 174.5 -9 c 128,-1,2
 141 2 141 2 116 23.5 c 128,-1,3
 91 45 91 45 76.5 77 c 128,-1,4
 62 109 62 109 62 151 c 2,5,-1
 62 584 l 2,6,7
 62 622 62 622 76.5 655.5 c 128,-1,8
 91 689 91 689 116.5 714 c 128,-1,9
 142 739 142 739 176 753.5 c 128,-1,10
 210 768 210 768 248 768 c 0,11,12
 265 768 265 768 272.5 759.5 c 128,-1,13
 280 751 280 751 280 739 c 0,14,15
 280 725 280 725 273 716.5 c 128,-1,16
 266 708 266 708 256 708 c 0,17,18
 225 708 225 708 201.5 697 c 128,-1,19
 178 686 178 686 161.5 668.5 c 128,-1,20
 145 651 145 651 136.5 628.5 c 128,-1,21
 128 606 128 606 128 584 c 2,22,-1
 128 151 l 2,23,24
 128 117 128 117 140 95.5 c 128,-1,25
 152 74 152 74 170.5 61.5 c 128,-1,26
 189 49 189 49 212 44.5 c 128,-1,27
 235 40 235 40 256 40 c 0,28,29
 270 40 270 40 275 30.5 c 128,-1,30
 280 21 280 21 280 10 c 0,31,32
 280 -4 280 -4 272.5 -12 c 128,-1,33
 265 -20 265 -20 247 -20 c 0,0,1
EndSplineSet
EndChar
StartChar: parenright
Encoding: 41 41 317
Width: 299
Flags: W
LayerCount: 2
Back
Fore
SplineSet
52 -20 m 0,0,1
 34 -20 34 -20 26.5 -12 c 128,-1,2
 19 -4 19 -4 19 10 c 0,3,4
 19 21 19 21 24 30.5 c 128,-1,5
 29 40 29 40 43 40 c 0,6,7
 64 40 64 40 87 44.5 c 128,-1,8
 110 49 110 49 128.5 61.5 c 128,-1,9
 147 74 147 74 159 95.5 c 128,-1,10
 171 117 171 117 171 151 c 2,11,-1
 171 584 l 2,12,13
 171 606 171 606 162.5 628.5 c 128,-1,14
 154 651 154 651 137.5 668.5 c 128,-1,15
 121 686 121 686 97.5 697 c 128,-1,16
 74 708 74 708 43 708 c 0,17,18
 32 708 32 708 25.5 716.5 c 128,-1,19
 19 725 19 725 19 739 c 0,20,21
 19 751 19 751 26.5 759.5 c 128,-1,22
 34 768 34 768 51 768 c 0,23,24
 89 768 89 768 123 753.5 c 128,-1,25
 157 739 157 739 182.5 714 c 128,-1,26
 208 689 208 689 222.5 655.5 c 128,-1,27
 237 622 237 622 237 584 c 2,28,-1
 237 151 l 2,29,30
 237 109 237 109 222.5 77 c 128,-1,31
 208 45 208 45 183 23.5 c 128,-1,32
 158 2 158 2 124.5 -9 c 128,-1,33
 91 -20 91 -20 52 -20 c 0,0,1
EndSplineSet
EndChar
StartChar: asterisk
Encoding: 42 42 152
Width: 431
Flags: W
LayerCount: 2
Back
Fore
SplineSet
337 423 m 2,0,1
 341 418 341 418 341 409 c 0,2,3
 341 397 341 397 331.5 389 c 128,-1,4
 322 381 322 381 311 381 c 0,5,6
 306 381 306 381 301 383 c 128,-1,7
 296 385 296 385 292 391 c 2,8,-1
 216 503 l 1,9,-1
 140 390 l 2,10,11
 134 381 134 381 123 381 c 0,12,13
 114 381 114 381 102.5 388 c 128,-1,14
 91 395 91 395 91 408 c 0,15,16
 91 416 91 416 97 424 c 2,17,-1
 177 530 l 1,18,-1
 50 568 l 2,19,20
 41 570 41 570 37 577 c 128,-1,21
 33 584 33 584 33 592 c 0,22,23
 33 603 33 603 40.5 612 c 128,-1,24
 48 621 48 621 61 621 c 0,25,26
 65 621 65 621 68 620 c 2,27,-1
 194 576 l 1,28,-1
 189 706 l 2,29,30
 190 719 190 719 197.5 725 c 128,-1,31
 205 731 205 731 216 731 c 256,32,33
 227 731 227 731 234.5 725 c 128,-1,34
 242 719 242 719 243 706 c 2,35,-1
 238 575 l 1,36,-1
 364 620 l 2,37,38
 366 621 366 621 368.5 621 c 128,-1,39
 371 621 371 621 373 621 c 0,40,41
 384 621 384 621 391 611.5 c 128,-1,42
 398 602 398 602 398 591 c 0,43,44
 398 572 398 572 381 568 c 2,45,-1
 256 532 l 1,46,-1
 337 423 l 2,0,1
EndSplineSet
EndChar
StartChar: plus
Encoding: 43 43 324
Width: 431
Flags: W
LayerCount: 2
Back
Fore
SplineSet
216 56 m 0,0,1
 204 56 204 56 195.5 62.5 c 128,-1,2
 187 69 187 69 187 80 c 2,3,-1
 187 212 l 1,4,-1
 55 212 l 2,5,6
 44 212 44 212 37.5 219.5 c 128,-1,7
 31 227 31 227 31 240 c 256,8,9
 31 253 31 253 37.5 261.5 c 128,-1,10
 44 270 44 270 55 270 c 2,11,-1
 187 270 l 1,12,-1
 187 400 l 2,13,14
 187 410 187 410 195.5 418 c 128,-1,15
 204 426 204 426 216 426 c 0,16,17
 229 426 229 426 237 418 c 128,-1,18
 245 410 245 410 245 400 c 2,19,-1
 245 270 l 1,20,-1
 375 270 l 2,21,22
 385 270 385 270 393 261.5 c 128,-1,23
 401 253 401 253 401 240 c 256,24,25
 401 227 401 227 393 219.5 c 128,-1,26
 385 212 385 212 375 212 c 2,27,-1
 245 212 l 1,28,-1
 245 80 l 2,29,30
 245 69 245 69 237 62.5 c 128,-1,31
 229 56 229 56 216 56 c 0,0,1
EndSplineSet
EndChar
StartChar: comma
Encoding: 44 44 178
Width: 171
Flags: W
LayerCount: 2
Back
Fore
SplineSet
85 87 m 0,0,1
 102 87 102 87 116.5 74.5 c 128,-1,2
 131 62 131 62 131 40 c 0,3,4
 131 37 131 37 130.5 32 c 128,-1,5
 130 27 130 27 126 15.5 c 128,-1,6
 122 4 122 4 114.5 -16.5 c 128,-1,7
 107 -37 107 -37 93 -72 c 0,8,9
 87 -84 87 -84 73 -84 c 0,10,11
 65 -84 65 -84 57 -79 c 128,-1,12
 49 -74 49 -74 49 -65 c 0,13,14
 49 -59 49 -59 50 -55 c 2,15,-1
 70 -3 l 1,16,17
 56 2 56 2 48 14 c 128,-1,18
 40 26 40 26 40 40 c 0,19,20
 40 60 40 60 53 73.5 c 128,-1,21
 66 87 66 87 85 87 c 0,0,1
EndSplineSet
EndChar
StartChar: hyphen
Encoding: 45 45 246
Width: 413
Flags: W
LayerCount: 2
Back
Fore
SplineSet
52 240 m 0,0,1
 52 253 52 253 59 261.5 c 128,-1,2
 66 270 66 270 77 270 c 2,3,-1
 337 270 l 2,4,5
 347 270 347 270 354.5 261.5 c 128,-1,6
 362 253 362 253 362 240 c 256,7,8
 362 227 362 227 354.5 219.5 c 128,-1,9
 347 212 347 212 337 212 c 2,10,-1
 77 212 l 2,11,12
 52 212 52 212 52 240 c 0,0,1
EndSplineSet
EndChar
StartChar: period
Encoding: 46 46 320
Width: 171
Flags: W
LayerCount: 2
Back
Fore
SplineSet
86 87 m 0,0,1
 104 87 104 87 117.5 73.5 c 128,-1,2
 131 60 131 60 131 40 c 0,3,4
 131 22 131 22 117.5 8 c 128,-1,5
 104 -6 104 -6 86 -6 c 0,6,7
 66 -6 66 -6 53 8 c 128,-1,8
 40 22 40 22 40 40 c 0,9,10
 40 60 40 60 53 73.5 c 128,-1,11
 66 87 66 87 86 87 c 0,0,1
EndSplineSet
EndChar
StartChar: slash
Encoding: 47 47 363
Width: 474
Flags: W
LayerCount: 2
Back
Fore
SplineSet
424 769 m 0,0,1
 434 769 434 769 443.5 761.5 c 128,-1,2
 453 754 453 754 453 742 c 0,3,4
 453 734 453 734 449 729 c 2,5,-1
 70 -12 l 2,6,7
 67 -20 67 -20 60.5 -23.5 c 128,-1,8
 54 -27 54 -27 46 -27 c 0,9,10
 35 -27 35 -27 27.5 -19.5 c 128,-1,11
 20 -12 20 -12 20 -2 c 0,12,13
 20 4 20 4 23 10 c 2,14,-1
 404 757 l 2,15,16
 407 764 407 764 412.5 766.5 c 128,-1,17
 418 769 418 769 424 769 c 0,0,1
EndSplineSet
EndChar
StartChar: zero
Encoding: 48 48 415
Width: 532
Flags: W
LayerCount: 2
Back
Fore
SplineSet
266 -6 m 256,0,1
 222 -6 222 -6 184 5.5 c 128,-1,2
 146 17 146 17 118 42.5 c 128,-1,3
 90 68 90 68 74 108.5 c 128,-1,4
 58 149 58 149 58 208 c 2,5,-1
 58 518 l 2,6,7
 58 576 58 576 74 616.5 c 128,-1,8
 90 657 90 657 118 682.5 c 128,-1,9
 146 708 146 708 184 719.5 c 128,-1,10
 222 731 222 731 266 731 c 256,11,12
 310 731 310 731 348 719.5 c 128,-1,13
 386 708 386 708 414 682.5 c 128,-1,14
 442 657 442 657 458 616.5 c 128,-1,15
 474 576 474 576 474 518 c 2,16,-1
 474 208 l 2,17,18
 474 149 474 149 458 108.5 c 128,-1,19
 442 68 442 68 414 42.5 c 128,-1,20
 386 17 386 17 348 5.5 c 128,-1,21
 310 -6 310 -6 266 -6 c 256,0,1
408 518 m 2,22,23
 408 596 408 596 370.5 633 c 128,-1,24
 333 670 333 670 266 670 c 256,25,26
 199 670 199 670 161.5 633 c 128,-1,27
 124 596 124 596 124 518 c 2,28,-1
 124 208 l 2,29,30
 124 129 124 129 161.5 92 c 128,-1,31
 199 55 199 55 266 55 c 256,32,33
 333 55 333 55 370.5 92 c 128,-1,34
 408 129 408 129 408 208 c 2,35,-1
 408 518 l 2,22,23
267 398 m 0,36,37
 282 398 282 398 292.5 388 c 128,-1,38
 303 378 303 378 303 362 c 0,39,40
 303 347 303 347 292.5 336 c 128,-1,41
 282 325 282 325 267 325 c 0,42,43
 250 325 250 325 240 336 c 128,-1,44
 230 347 230 347 230 362 c 0,45,46
 230 378 230 378 240 388 c 128,-1,47
 250 398 250 398 267 398 c 0,36,37
EndSplineSet
EndChar
StartChar: one
Encoding: 49 49 301
Width: 233
Flags: W
LayerCount: 2
Back
Fore
SplineSet
98 619 m 1,0,-1
 58 554 l 2,1,2
 50 542 50 542 39 542 c 256,3,4
 28 542 28 542 20.5 551 c 128,-1,5
 13 560 13 560 13 571 c 0,6,7
 13 578 13 578 18 587 c 128,-1,8
 23 596 23 596 28 601 c 2,9,-1
 110 717 l 2,10,11
 115 723 115 723 120 727.5 c 128,-1,12
 125 732 125 732 135 732 c 0,13,14
 146 732 146 732 155 725.5 c 128,-1,15
 164 719 164 719 164 707 c 2,16,-1
 164 26 l 2,17,18
 164 13 164 13 153.5 6.5 c 128,-1,19
 143 0 143 0 131 0 c 0,20,21
 118 0 118 0 108 6.5 c 128,-1,22
 98 13 98 13 98 26 c 2,23,-1
 98 619 l 1,0,-1
EndSplineSet
Substitution2: "'lnum' Lining Figures in Latin lookup 8 subtable" one.lnum
Substitution2: "'aalt' Access All Alternates in Latin lookup 0 subtable" one.lnum
EndChar
StartChar: two
Encoding: 50 50 379
Width: 475
Flags: W
LayerCount: 2
Back
Fore
SplineSet
51 565 m 0,0,1
 51 601 51 601 65.5 631.5 c 128,-1,2
 80 662 80 662 105.5 684 c 128,-1,3
 131 706 131 706 165 718.5 c 128,-1,4
 199 731 199 731 239 731 c 0,5,6
 282 731 282 731 318.5 716 c 128,-1,7
 355 701 355 701 381.5 675.5 c 128,-1,8
 408 650 408 650 423 614.5 c 128,-1,9
 438 579 438 579 438 539 c 0,10,11
 438 485 438 485 413 442.5 c 128,-1,12
 388 400 388 400 351 365 c 128,-1,13
 314 330 314 330 270 300 c 128,-1,14
 226 270 226 270 189 242 c 128,-1,15
 152 214 152 214 127 185 c 128,-1,16
 102 156 102 156 102 123 c 2,17,-1
 102 61 l 1,18,-1
 421 61 l 2,19,20
 431 61 431 61 438 52 c 128,-1,21
 445 43 445 43 445 31 c 256,22,23
 445 19 445 19 438 9.5 c 128,-1,24
 431 0 431 0 421 0 c 2,25,-1
 65 0 l 2,26,27
 55 0 55 0 44.5 7 c 128,-1,28
 34 14 34 14 34 26 c 2,29,-1
 34 123 l 2,30,31
 34 164 34 164 59 199 c 128,-1,32
 84 234 84 234 121.5 265.5 c 128,-1,33
 159 297 159 297 203 327 c 128,-1,34
 247 357 247 357 284.5 389 c 128,-1,35
 322 421 322 421 347 457 c 128,-1,36
 372 493 372 493 372 537 c 0,37,38
 372 561 372 561 364 584.5 c 128,-1,39
 356 608 356 608 339 626.5 c 128,-1,40
 322 645 322 645 296.5 657 c 128,-1,41
 271 669 271 669 237 669 c 0,42,43
 185 669 185 669 150.5 640 c 128,-1,44
 116 611 116 611 116 551 c 0,45,46
 116 541 116 541 107 532.5 c 128,-1,47
 98 524 98 524 81 524 c 0,48,49
 66 524 66 524 58.5 533 c 128,-1,50
 51 542 51 542 51 565 c 0,0,1
EndSplineSet
EndChar
StartChar: three
Encoding: 51 51 372
Width: 487
Flags: W
LayerCount: 2
Back
Fore
SplineSet
234 55 m 0,0,1
 304 55 304 55 341 91 c 128,-1,2
 378 127 378 127 378 205 c 2,3,-1
 378 224 l 2,4,5
 378 293 378 293 339.5 325 c 128,-1,6
 301 357 301 357 236 357 c 0,7,8
 222 357 222 357 216 365.5 c 128,-1,9
 210 374 210 374 210 385 c 256,10,11
 210 396 210 396 215.5 405 c 128,-1,12
 221 414 221 414 235 414 c 0,13,14
 295 414 295 414 327.5 441 c 128,-1,15
 360 468 360 468 360 542 c 0,16,17
 360 608 360 608 331 639.5 c 128,-1,18
 302 671 302 671 239 671 c 0,19,20
 200 671 200 671 175 660.5 c 128,-1,21
 150 650 150 650 135.5 634 c 128,-1,22
 121 618 121 618 116 599 c 128,-1,23
 111 580 111 580 111 564 c 0,24,25
 111 532 111 532 79 532 c 0,26,27
 59 532 59 532 52 540 c 128,-1,28
 45 548 45 548 45 570 c 0,29,30
 45 591 45 591 53.5 618.5 c 128,-1,31
 62 646 62 646 83.5 671 c 128,-1,32
 105 696 105 696 143 713.5 c 128,-1,33
 181 731 181 731 241 731 c 0,34,35
 281 731 281 731 315 721.5 c 128,-1,36
 349 712 349 712 373 691 c 128,-1,37
 397 670 397 670 410.5 636.5 c 128,-1,38
 424 603 424 603 424 555 c 0,39,40
 424 486 424 486 400.5 444.5 c 128,-1,41
 377 403 377 403 342 386 c 1,42,43
 387 368 387 368 415.5 329.5 c 128,-1,44
 444 291 444 291 444 224 c 2,45,-1
 444 205 l 2,46,47
 444 148 444 148 427.5 107.5 c 128,-1,48
 411 67 411 67 383 42 c 128,-1,49
 355 17 355 17 316.5 5.5 c 128,-1,50
 278 -6 278 -6 235 -6 c 0,51,52
 182 -6 182 -6 143 9.5 c 128,-1,53
 104 25 104 25 78.5 49 c 128,-1,54
 53 73 53 73 40.5 102 c 128,-1,55
 28 131 28 131 28 159 c 0,56,57
 28 180 28 180 35 187 c 128,-1,58
 42 194 42 194 59 194 c 0,59,60
 79 194 79 194 86 186.5 c 128,-1,61
 93 179 93 179 93 166 c 0,62,63
 93 150 93 150 99.5 130.5 c 128,-1,64
 106 111 106 111 122 94.5 c 128,-1,65
 138 78 138 78 165.5 66.5 c 128,-1,66
 193 55 193 55 234 55 c 0,0,1
EndSplineSet
EndChar
StartChar: four
Encoding: 52 52 224
Width: 444
Flags: W
LayerCount: 2
Back
Fore
SplineSet
288 172 m 1,0,-1
 34 172 l 2,1,2
 21 172 21 172 14.5 180 c 128,-1,3
 8 188 8 188 8 199 c 0,4,5
 8 209 8 209 12 216 c 2,6,-1
 263 711 l 2,7,8
 268 722 268 722 276.5 726.5 c 128,-1,9
 285 731 285 731 294 731 c 0,10,11
 304 731 304 731 315 723.5 c 128,-1,12
 326 716 326 716 326 704 c 0,13,14
 326 698 326 698 323 691 c 2,15,-1
 92 235 l 1,16,-1
 288 235 l 1,17,-1
 288 428 l 2,18,19
 288 441 288 441 298 447 c 128,-1,20
 308 453 308 453 321 453 c 0,21,22
 333 453 333 453 343.5 447 c 128,-1,23
 354 441 354 441 354 428 c 2,24,-1
 354 235 l 1,25,-1
 409 235 l 2,26,27
 422 235 422 235 428 225 c 128,-1,28
 434 215 434 215 434 204 c 0,29,30
 434 192 434 192 427 182 c 128,-1,31
 420 172 420 172 409 172 c 2,32,-1
 354 172 l 1,33,-1
 354 26 l 2,34,35
 354 13 354 13 343.5 6.5 c 128,-1,36
 333 0 333 0 321 0 c 0,37,38
 308 0 308 0 298 6.5 c 128,-1,39
 288 13 288 13 288 26 c 2,40,-1
 288 172 l 1,0,-1
EndSplineSet
EndChar
StartChar: five
Encoding: 53 53 218
Width: 474
Flags: W
LayerCount: 2
Back
Fore
SplineSet
236 430 m 2,0,1
 280 430 280 430 318 419 c 128,-1,2
 356 408 356 408 383.5 383.5 c 128,-1,3
 411 359 411 359 427 320 c 128,-1,4
 443 281 443 281 443 225 c 2,5,-1
 443 206 l 2,6,7
 443 148 443 148 427 108 c 128,-1,8
 411 68 411 68 383 42.5 c 128,-1,9
 355 17 355 17 317 5.5 c 128,-1,10
 279 -6 279 -6 236 -6 c 0,11,12
 186 -6 186 -6 147.5 8 c 128,-1,13
 109 22 109 22 82.5 45 c 128,-1,14
 56 68 56 68 42 99 c 128,-1,15
 28 130 28 130 28 164 c 0,16,17
 28 182 28 182 37 189.5 c 128,-1,18
 46 197 46 197 60 197 c 0,19,20
 94 197 94 197 94 169 c 0,21,22
 94 142 94 142 105 120.5 c 128,-1,23
 116 99 116 99 135 84.5 c 128,-1,24
 154 70 154 70 179.5 62.5 c 128,-1,25
 205 55 205 55 235 55 c 0,26,27
 302 55 302 55 339.5 91.5 c 128,-1,28
 377 128 377 128 377 206 c 2,29,-1
 377 225 l 2,30,31
 377 300 377 300 339.5 336.5 c 128,-1,32
 302 373 302 373 236 373 c 2,33,-1
 97 373 l 2,34,35
 76 373 76 373 69.5 380 c 128,-1,36
 63 387 63 387 63 398 c 0,37,38
 63 401 63 401 63.5 408 c 128,-1,39
 64 415 64 415 64 418 c 2,40,-1
 84 706 l 2,41,42
 87 731 87 731 105 731 c 2,43,-1
 385 731 l 2,44,45
 396 731 396 731 401.5 721.5 c 128,-1,46
 407 712 407 712 407 701 c 0,47,48
 407 689 407 689 401.5 679.5 c 128,-1,49
 396 670 396 670 385 670 c 2,50,-1
 143 670 l 1,51,-1
 127 430 l 1,52,-1
 236 430 l 2,0,1
EndSplineSet
EndChar
StartChar: six
Encoding: 54 54 360
Width: 517
Flags: W
LayerCount: 2
Back
Fore
SplineSet
275 431 m 0,0,1
 317 431 317 431 353 421.5 c 128,-1,2
 389 412 389 412 416 388.5 c 128,-1,3
 443 365 443 365 458.5 327 c 128,-1,4
 474 289 474 289 474 232 c 2,5,-1
 474 208 l 2,6,7
 474 149 474 149 458 108.5 c 128,-1,8
 442 68 442 68 414 42.5 c 128,-1,9
 386 17 386 17 348 5.5 c 128,-1,10
 310 -6 310 -6 266 -6 c 256,11,12
 222 -6 222 -6 184 5.5 c 128,-1,13
 146 17 146 17 118 42.5 c 128,-1,14
 90 68 90 68 74 108.5 c 128,-1,15
 58 149 58 149 58 208 c 2,16,-1
 58 518 l 2,17,18
 58 576 58 576 74 616.5 c 128,-1,19
 90 657 90 657 118.5 682.5 c 128,-1,20
 147 708 147 708 185 719.5 c 128,-1,21
 223 731 223 731 268 731 c 0,22,23
 318 731 318 731 356.5 716.5 c 128,-1,24
 395 702 395 702 421 678 c 128,-1,25
 447 654 447 654 460.5 623.5 c 128,-1,26
 474 593 474 593 474 560 c 0,27,28
 474 543 474 543 465.5 536.5 c 128,-1,29
 457 530 457 530 443 530 c 256,30,31
 429 530 429 530 418.5 536 c 128,-1,32
 408 542 408 542 408 557 c 0,33,34
 408 583 408 583 397 604 c 128,-1,35
 386 625 386 625 366.5 639.5 c 128,-1,36
 347 654 347 654 321 662 c 128,-1,37
 295 670 295 670 266 670 c 0,38,39
 199 670 199 670 161.5 633 c 128,-1,40
 124 596 124 596 124 518 c 2,41,-1
 124 365 l 1,42,43
 150 400 150 400 189 415.5 c 128,-1,44
 228 431 228 431 275 431 c 0,0,1
124 205 m 2,45,46
 124 127 124 127 161.5 90 c 128,-1,47
 199 53 199 53 266 53 c 256,48,49
 333 53 333 53 370.5 90 c 128,-1,50
 408 127 408 127 408 205 c 2,51,-1
 408 229 l 2,52,53
 408 308 408 308 370.5 341 c 128,-1,54
 333 374 333 374 266 374 c 0,55,56
 201 374 201 374 162.5 343 c 128,-1,57
 124 312 124 312 124 238 c 2,58,-1
 124 205 l 2,45,46
EndSplineSet
EndChar
StartChar: seven
Encoding: 55 55 356
Width: 459
Flags: W
LayerCount: 2
Back
Fore
SplineSet
443 620 m 2,0,1
 443 606 443 606 433 591 c 2,2,-1
 136 11 l 2,3,4
 129 -2 129 -2 114 -2 c 256,5,6
 99 -2 99 -2 86.5 7 c 128,-1,7
 74 16 74 16 74 30 c 0,8,9
 74 34 74 34 78 44 c 2,10,-1
 377 616 l 1,11,-1
 377 670 l 1,12,-1
 93 670 l 1,13,-1
 93 555 l 2,14,15
 93 544 93 544 83 537 c 128,-1,16
 73 530 73 530 60 530 c 0,17,18
 46 530 46 530 36.5 537 c 128,-1,19
 27 544 27 544 27 555 c 2,20,-1
 27 706 l 2,21,22
 27 715 27 715 36.5 723 c 128,-1,23
 46 731 46 731 57 731 c 2,24,-1
 412 731 l 2,25,26
 423 731 423 731 433 723 c 128,-1,27
 443 715 443 715 443 706 c 2,28,-1
 443 620 l 2,0,1
EndSplineSet
EndChar
StartChar: eight
Encoding: 56 56 202
Width: 502
Flags: W
LayerCount: 2
Back
Fore
SplineSet
251 731 m 256,0,1
 291 731 291 731 325.5 722 c 128,-1,2
 360 713 360 713 385.5 693 c 128,-1,3
 411 673 411 673 425 639 c 128,-1,4
 439 605 439 605 439 556 c 0,5,6
 439 491 439 491 415 453.5 c 128,-1,7
 391 416 391 416 351 399 c 1,8,9
 400 379 400 379 429.5 334.5 c 128,-1,10
 459 290 459 290 459 212 c 2,11,-1
 459 200 l 2,12,13
 459 144 459 144 443 105 c 128,-1,14
 427 66 427 66 399 41 c 128,-1,15
 371 16 371 16 333 5 c 128,-1,16
 295 -6 295 -6 251 -6 c 256,17,18
 207 -6 207 -6 169 5 c 128,-1,19
 131 16 131 16 103 41 c 128,-1,20
 75 66 75 66 59 105 c 128,-1,21
 43 144 43 144 43 200 c 2,22,-1
 43 212 l 2,23,24
 43 290 43 290 73 334.5 c 128,-1,25
 103 379 103 379 152 399 c 1,26,27
 112 416 112 416 87.5 453.5 c 128,-1,28
 63 491 63 491 63 556 c 0,29,30
 63 605 63 605 77.5 639 c 128,-1,31
 92 673 92 673 117 693 c 128,-1,32
 142 713 142 713 176.5 722 c 128,-1,33
 211 731 211 731 251 731 c 256,0,1
393 219 m 2,34,35
 393 297 393 297 355.5 332.5 c 128,-1,36
 318 368 318 368 251 368 c 0,37,38
 185 368 185 368 147 332.5 c 128,-1,39
 109 297 109 297 109 219 c 2,40,-1
 109 205 l 2,41,42
 109 127 109 127 147 89.5 c 128,-1,43
 185 52 185 52 252 52 c 256,44,45
 319 52 319 52 356 89.5 c 128,-1,46
 393 127 393 127 393 205 c 2,47,-1
 393 219 l 2,34,35
251 673 m 0,48,49
 193 673 193 673 160.5 645 c 128,-1,50
 128 617 128 617 128 551 c 256,51,52
 128 485 128 485 160.5 456 c 128,-1,53
 193 427 193 427 251 427 c 0,54,55
 310 427 310 427 342.5 456 c 128,-1,56
 375 485 375 485 375 551 c 256,57,58
 375 617 375 617 342.5 645 c 128,-1,59
 310 673 310 673 251 673 c 0,48,49
EndSplineSet
EndChar
StartChar: nine
Encoding: 57 57 285
Width: 517
Flags: W
LayerCount: 2
Back
Fore
SplineSet
242 294 m 0,0,1
 200 294 200 294 164 303.5 c 128,-1,2
 128 313 128 313 101 336.5 c 128,-1,3
 74 360 74 360 58.5 398.5 c 128,-1,4
 43 437 43 437 43 494 c 2,5,-1
 43 518 l 2,6,7
 43 576 43 576 59 616.5 c 128,-1,8
 75 657 75 657 102.5 682.5 c 128,-1,9
 130 708 130 708 168 719.5 c 128,-1,10
 206 731 206 731 250 731 c 256,11,12
 294 731 294 731 332 719.5 c 128,-1,13
 370 708 370 708 398.5 682.5 c 128,-1,14
 427 657 427 657 443 616.5 c 128,-1,15
 459 576 459 576 459 518 c 2,16,-1
 459 208 l 2,17,18
 459 149 459 149 443 108.5 c 128,-1,19
 427 68 427 68 398.5 42.5 c 128,-1,20
 370 17 370 17 331.5 5.5 c 128,-1,21
 293 -6 293 -6 249 -6 c 0,22,23
 198 -6 198 -6 159.5 8.5 c 128,-1,24
 121 23 121 23 95 47 c 128,-1,25
 69 71 69 71 56 101.5 c 128,-1,26
 43 132 43 132 43 165 c 0,27,28
 43 196 43 196 74 196 c 0,29,30
 87 196 87 196 97.5 189.5 c 128,-1,31
 108 183 108 183 108 168 c 0,32,33
 108 142 108 142 119 121 c 128,-1,34
 130 100 130 100 149.5 85.5 c 128,-1,35
 169 71 169 71 195 63 c 128,-1,36
 221 55 221 55 250 55 c 0,37,38
 318 55 318 55 355.5 92 c 128,-1,39
 393 129 393 129 393 208 c 2,40,-1
 393 361 l 1,41,42
 367 326 367 326 328 310 c 128,-1,43
 289 294 289 294 242 294 c 0,0,1
393 520 m 2,44,45
 393 599 393 599 355 636 c 128,-1,46
 317 673 317 673 250 673 c 256,47,48
 183 673 183 673 146 636 c 128,-1,49
 109 599 109 599 109 520 c 2,50,-1
 109 496 l 2,51,52
 109 417 109 417 146 384 c 128,-1,53
 183 351 183 351 251 351 c 0,54,55
 283 351 283 351 309.5 358.5 c 128,-1,56
 336 366 336 366 354.5 382 c 128,-1,57
 373 398 373 398 383 424 c 128,-1,58
 393 450 393 450 393 487 c 2,59,-1
 393 520 l 2,44,45
EndSplineSet
EndChar
StartChar: colon
Encoding: 58 58 177
Width: 203
Flags: W
LayerCount: 2
Back
Fore
SplineSet
102 87 m 0,0,1
 120 87 120 87 133.5 73.5 c 128,-1,2
 147 60 147 60 147 40 c 0,3,4
 147 22 147 22 133.5 8 c 128,-1,5
 120 -6 120 -6 102 -6 c 0,6,7
 82 -6 82 -6 69 8 c 128,-1,8
 56 22 56 22 56 40 c 0,9,10
 56 60 56 60 69 73.5 c 128,-1,11
 82 87 82 87 102 87 c 0,0,1
102 423 m 0,12,13
 120 423 120 423 133.5 409.5 c 128,-1,14
 147 396 147 396 147 376 c 0,15,16
 147 358 147 358 133.5 344 c 128,-1,17
 120 330 120 330 102 330 c 0,18,19
 82 330 82 330 69 344 c 128,-1,20
 56 358 56 358 56 376 c 0,21,22
 56 396 56 396 69 409.5 c 128,-1,23
 82 423 82 423 102 423 c 0,12,13
EndSplineSet
EndChar
StartChar: semicolon
Encoding: 59 59 355
Width: 209
Flags: W
LayerCount: 2
Back
Fore
SplineSet
103 87 m 0,0,1
 120 87 120 87 134.5 74.5 c 128,-1,2
 149 62 149 62 149 40 c 0,3,4
 149 37 149 37 148.5 32 c 128,-1,5
 148 27 148 27 144 15.5 c 128,-1,6
 140 4 140 4 132.5 -16.5 c 128,-1,7
 125 -37 125 -37 111 -72 c 0,8,9
 105 -84 105 -84 91 -84 c 0,10,11
 83 -84 83 -84 75 -79 c 128,-1,12
 67 -74 67 -74 67 -65 c 0,13,14
 67 -59 67 -59 68 -55 c 2,15,-1
 88 -3 l 1,16,17
 74 2 74 2 66 14 c 128,-1,18
 58 26 58 26 58 40 c 0,19,20
 58 60 58 60 71 73.5 c 128,-1,21
 84 87 84 87 103 87 c 0,0,1
107 423 m 0,22,23
 125 423 125 423 138.5 409.5 c 128,-1,24
 152 396 152 396 152 376 c 0,25,26
 152 358 152 358 138.5 344 c 128,-1,27
 125 330 125 330 107 330 c 0,28,29
 87 330 87 330 74 344 c 128,-1,30
 61 358 61 358 61 376 c 0,31,32
 61 396 61 396 74 409.5 c 128,-1,33
 87 423 87 423 107 423 c 0,22,23
EndSplineSet
EndChar
StartChar: less
Encoding: 60 60 269
Width: 400
Flags: W
LayerCount: 2
Back
Fore
SplineSet
25 277 m 0,0,1
 25 285 25 285 29.5 292.5 c 128,-1,2
 34 300 34 300 41 305 c 2,3,-1
 310 483 l 2,4,5
 315 487 315 487 322 487 c 0,6,7
 333 487 333 487 343 478 c 128,-1,8
 353 469 353 469 353 456 c 0,9,10
 353 442 353 442 342 435 c 2,11,-1
 104 277 l 1,12,-1
 342 120 l 2,13,14
 353 113 353 113 353 99 c 0,15,16
 353 86 353 86 343 77 c 128,-1,17
 333 68 333 68 322 68 c 0,18,19
 315 68 315 68 310 72 c 2,20,-1
 41 250 l 2,21,22
 25 260 25 260 25 277 c 0,0,1
EndSplineSet
EndChar
StartChar: equal
Encoding: 61 61 211
Width: 434
Flags: W
LayerCount: 2
Back
Fore
SplineSet
66 166 m 0,0,1
 66 178 66 178 72.5 186.5 c 128,-1,2
 79 195 79 195 90 195 c 2,3,-1
 343 195 l 2,4,5
 353 195 353 195 360.5 186.5 c 128,-1,6
 368 178 368 178 368 166 c 0,7,8
 368 153 368 153 360.5 145 c 128,-1,9
 353 137 353 137 343 137 c 2,10,-1
 90 137 l 2,11,12
 79 137 79 137 72.5 145 c 128,-1,13
 66 153 66 153 66 166 c 0,0,1
66 369 m 0,14,15
 66 381 66 381 72.5 389.5 c 128,-1,16
 79 398 79 398 90 398 c 2,17,-1
 343 398 l 2,18,19
 353 398 353 398 360.5 389.5 c 128,-1,20
 368 381 368 381 368 369 c 0,21,22
 368 356 368 356 360.5 348 c 128,-1,23
 353 340 353 340 343 340 c 2,24,-1
 90 340 l 2,25,26
 79 340 79 340 72.5 348 c 128,-1,27
 66 356 66 356 66 369 c 0,14,15
EndSplineSet
EndChar
StartChar: greater
Encoding: 62 62 236
Width: 399
Flags: W
LayerCount: 2
Back
Fore
SplineSet
375 277 m 0,0,1
 375 260 375 260 359 250 c 2,2,-1
 90 72 l 2,3,4
 85 68 85 68 78 68 c 0,5,6
 67 68 67 68 57 77 c 128,-1,7
 47 86 47 86 47 99 c 0,8,9
 47 113 47 113 58 120 c 2,10,-1
 296 277 l 1,11,-1
 58 435 l 2,12,13
 47 442 47 442 47 456 c 0,14,15
 47 469 47 469 57 478 c 128,-1,16
 67 487 67 487 78 487 c 0,17,18
 85 487 85 487 90 483 c 2,19,-1
 359 305 l 2,20,21
 366 300 366 300 370.5 292.5 c 128,-1,22
 375 285 375 285 375 277 c 0,0,1
EndSplineSet
EndChar
StartChar: question
Encoding: 63 63 329
Width: 398
Flags: W
LayerCount: 2
Back
Fore
SplineSet
365 566 m 0,0,1
 365 519 365 519 349.5 484 c 128,-1,2
 334 449 334 449 312.5 422.5 c 128,-1,3
 291 396 291 396 268.5 376 c 128,-1,4
 246 356 246 356 232 340 c 0,5,6
 219 326 219 326 212 311.5 c 128,-1,7
 205 297 205 297 201.5 279 c 128,-1,8
 198 261 198 261 197.5 238.5 c 128,-1,9
 197 216 197 216 197 188 c 0,10,11
 197 165 197 165 170 165 c 0,12,13
 158 165 158 165 150.5 171 c 128,-1,14
 143 177 143 177 143 194 c 0,15,16
 143 236 143 236 146.5 264.5 c 128,-1,17
 150 293 150 293 155.5 312.5 c 128,-1,18
 161 332 161 332 169 345 c 128,-1,19
 177 358 177 358 186 368 c 0,20,21
 202 385 202 385 223 402.5 c 128,-1,22
 244 420 244 420 263 442.5 c 128,-1,23
 282 465 282 465 295 493.5 c 128,-1,24
 308 522 308 522 308 561 c 0,25,26
 308 621 308 621 273.5 655 c 128,-1,27
 239 689 239 689 173 689 c 0,28,29
 140 689 140 689 120 681.5 c 128,-1,30
 100 674 100 674 87 664.5 c 128,-1,31
 74 655 74 655 66 647.5 c 128,-1,32
 58 640 58 640 48 640 c 0,33,34
 40 640 40 640 31.5 647 c 128,-1,35
 23 654 23 654 23 667 c 0,36,37
 23 679 23 679 34.5 692.5 c 128,-1,38
 46 706 46 706 66.5 717.5 c 128,-1,39
 87 729 87 729 115 736.5 c 128,-1,40
 143 744 143 744 176 744 c 0,41,42
 223 744 223 744 258.5 730 c 128,-1,43
 294 716 294 716 317.5 692 c 128,-1,44
 341 668 341 668 353 635.5 c 128,-1,45
 365 603 365 603 365 566 c 0,0,1
170 87 m 256,46,47
 189 87 189 87 202.5 73.5 c 128,-1,48
 216 60 216 60 216 40 c 0,49,50
 216 22 216 22 203 8 c 128,-1,51
 190 -6 190 -6 170 -6 c 256,52,53
 150 -6 150 -6 137 8 c 128,-1,54
 124 22 124 22 124 40 c 0,55,56
 124 60 124 60 137.5 73.5 c 128,-1,57
 151 87 151 87 170 87 c 256,46,47
EndSplineSet
EndChar
StartChar: at
Encoding: 64 64 153
Width: 716
Flags: W
LayerCount: 2
Back
Fore
SplineSet
234 370 m 0,0,1
 234 380 234 380 245.5 389 c 128,-1,2
 257 398 257 398 275 405 c 128,-1,3
 293 412 293 412 315.5 415.5 c 128,-1,4
 338 419 338 419 360 419 c 0,5,6
 426 419 426 419 464 386 c 128,-1,7
 502 353 502 353 502 291 c 2,8,-1
 502 125 l 2,9,10
 505 102 505 102 521.5 88.5 c 128,-1,11
 538 75 538 75 558 75 c 0,12,13
 579 75 579 75 592 90 c 128,-1,14
 605 105 605 105 612.5 127.5 c 128,-1,15
 620 150 620 150 622.5 177.5 c 128,-1,16
 625 205 625 205 625 229 c 0,17,18
 625 361 625 361 561.5 435 c 128,-1,19
 498 509 498 509 365 509 c 0,20,21
 290 509 290 509 240 485 c 128,-1,22
 190 461 190 461 159 420.5 c 128,-1,23
 128 380 128 380 115 327.5 c 128,-1,24
 102 275 102 275 102 218 c 0,25,26
 102 165 102 165 114 115.5 c 128,-1,27
 126 66 126 66 153 28 c 128,-1,28
 180 -10 180 -10 224.5 -33 c 128,-1,29
 269 -56 269 -56 335 -56 c 0,30,31
 368 -56 368 -56 391 -51 c 128,-1,32
 414 -46 414 -46 430.5 -40.5 c 128,-1,33
 447 -35 447 -35 458 -30 c 128,-1,34
 469 -25 469 -25 476 -25 c 0,35,36
 486 -25 486 -25 491.5 -33 c 128,-1,37
 497 -41 497 -41 497 -47 c 0,38,39
 497 -58 497 -58 481.5 -68 c 128,-1,40
 466 -78 466 -78 441.5 -85.5 c 128,-1,41
 417 -93 417 -93 387 -98 c 128,-1,42
 357 -103 357 -103 328 -103 c 0,43,44
 274 -103 274 -103 224.5 -84 c 128,-1,45
 175 -65 175 -65 137 -26 c 128,-1,46
 99 13 99 13 76 73.5 c 128,-1,47
 53 134 53 134 53 217 c 0,48,49
 53 287 53 287 71 349.5 c 128,-1,50
 89 412 89 412 127 458 c 128,-1,51
 165 504 165 504 224.5 531 c 128,-1,52
 284 558 284 558 367 558 c 0,53,54
 516 558 516 558 595.5 475 c 128,-1,55
 675 392 675 392 675 236 c 0,56,57
 675 196 675 196 669 159.5 c 128,-1,58
 663 123 663 123 648.5 94.5 c 128,-1,59
 634 66 634 66 611 49 c 128,-1,60
 588 32 588 32 554 32 c 0,61,62
 516 32 516 32 489.5 51.5 c 128,-1,63
 463 71 463 71 457 97 c 1,64,65
 431 70 431 70 404 55.5 c 128,-1,66
 377 41 377 41 334 41 c 0,67,68
 308 41 308 41 285.5 47 c 128,-1,69
 263 53 263 53 246 65.5 c 128,-1,70
 229 78 229 78 219 99 c 128,-1,71
 209 120 209 120 209 150 c 0,72,73
 209 184 209 184 222.5 206 c 128,-1,74
 236 228 236 228 261.5 240.5 c 128,-1,75
 287 253 287 253 323.5 258 c 128,-1,76
 360 263 360 263 405 263 c 2,77,-1
 448 263 l 1,78,-1
 448 282 l 2,79,80
 448 326 448 326 424.5 346.5 c 128,-1,81
 401 367 401 367 350 367 c 0,82,83
 326 367 326 367 310.5 363 c 128,-1,84
 295 359 295 359 284.5 354.5 c 128,-1,85
 274 350 274 350 267.5 346 c 128,-1,86
 261 342 261 342 255 342 c 0,87,88
 245 342 245 342 239.5 352 c 128,-1,89
 234 362 234 362 234 370 c 0,0,1
450 222 m 1,90,-1
 409 222 l 2,91,92
 378 222 378 222 351.5 219.5 c 128,-1,93
 325 217 325 217 306 209.5 c 128,-1,94
 287 202 287 202 276 188 c 128,-1,95
 265 174 265 174 265 150 c 0,96,97
 265 115 265 115 287 100 c 128,-1,98
 309 85 309 85 341 85 c 0,99,100
 366 85 366 85 386 92.5 c 128,-1,101
 406 100 406 100 420.5 112 c 128,-1,102
 435 124 435 124 442.5 138.5 c 128,-1,103
 450 153 450 153 450 167 c 2,104,-1
 450 222 l 1,90,-1
EndSplineSet
EndChar
StartChar: A
Encoding: 65 65 1
Width: 540
Flags: W
LayerCount: 2
Back
Fore
SplineSet
59 0 m 0,0,1
 46 0 46 0 33.5 7.5 c 128,-1,2
 21 15 21 15 21 28 c 0,3,4
 21 33 21 33 22 35 c 2,5,-1
 231 714 l 2,6,7
 235 726 235 726 246 731.5 c 128,-1,8
 257 737 257 737 270 737 c 0,9,10
 284 737 284 737 295 731 c 128,-1,11
 306 725 306 725 310 714 c 2,12,-1
 518 35 l 2,13,14
 518 33 518 33 518.5 32 c 128,-1,15
 519 31 519 31 519 29 c 0,16,17
 519 17 519 17 506 8.5 c 128,-1,18
 493 0 493 0 479 0 c 0,19,20
 460 0 460 0 454 17 c 2,21,-1
 408 171 l 1,22,-1
 131 171 l 1,23,-1
 85 17 l 2,24,25
 83 8 83 8 75.5 4 c 128,-1,26
 68 0 68 0 59 0 c 0,0,1
391 228 m 1,27,-1
 270 631 l 1,28,-1
 148 228 l 1,29,-1
 391 228 l 1,27,-1
EndSplineSet
EndChar
StartChar: B
Encoding: 66 66 13
Width: 538
Flags: W
LayerCount: 2
Back
Fore
SplineSet
76 706 m 2,0,1
 76 719 76 719 85.5 725 c 128,-1,2
 95 731 95 731 106 731 c 2,3,-1
 270 731 l 2,4,5
 312 731 312 731 349 724.5 c 128,-1,6
 386 718 386 718 414 699 c 128,-1,7
 442 680 442 680 458 647 c 128,-1,8
 474 614 474 614 474 561 c 0,9,10
 474 498 474 498 450.5 455.5 c 128,-1,11
 427 413 427 413 389 396 c 1,12,13
 412 387 412 387 431 373 c 128,-1,14
 450 359 450 359 463.5 339 c 128,-1,15
 477 319 477 319 484.5 290.5 c 128,-1,16
 492 262 492 262 492 224 c 2,17,-1
 492 206 l 2,18,19
 492 149 492 149 476.5 109.5 c 128,-1,20
 461 70 461 70 434.5 46 c 128,-1,21
 408 22 408 22 372 11 c 128,-1,22
 336 0 336 0 294 0 c 2,23,-1
 106 0 l 2,24,25
 92 0 92 0 84 7.5 c 128,-1,26
 76 15 76 15 76 25 c 2,27,-1
 76 706 l 2,0,1
286 61 m 2,28,29
 352 61 352 61 389 96 c 128,-1,30
 426 131 426 131 426 209 c 2,31,-1
 426 226 l 2,32,33
 426 304 426 304 389 336 c 128,-1,34
 352 368 352 368 286 368 c 2,35,-1
 141 368 l 1,36,-1
 141 61 l 1,37,-1
 286 61 l 2,28,29
141 425 m 1,38,-1
 272 425 l 2,39,40
 341 425 341 425 374.5 453.5 c 128,-1,41
 408 482 408 482 408 554 c 0,42,43
 408 588 408 588 397.5 610.5 c 128,-1,44
 387 633 387 633 368.5 646.5 c 128,-1,45
 350 660 350 660 324.5 665 c 128,-1,46
 299 670 299 670 268 670 c 2,47,-1
 141 670 l 1,48,-1
 141 425 l 1,38,-1
EndSplineSet
EndChar
StartChar: C
Encoding: 67 67 14
Width: 523
Flags: W
LayerCount: 2
Back
Fore
SplineSet
418 549 m 0,0,1
 417 565 417 565 412 586 c 128,-1,2
 407 607 407 607 392 625.5 c 128,-1,3
 377 644 377 644 350 657 c 128,-1,4
 323 670 323 670 278 670 c 0,5,6
 208 670 208 670 171 633 c 128,-1,7
 134 596 134 596 134 518 c 2,8,-1
 134 208 l 2,9,10
 134 129 134 129 171.5 92 c 128,-1,11
 209 55 209 55 282 55 c 0,12,13
 327 55 327 55 353 67.5 c 128,-1,14
 379 80 379 80 392.5 98.5 c 128,-1,15
 406 117 406 117 411 138.5 c 128,-1,16
 416 160 416 160 418 178 c 0,17,18
 421 204 421 204 451 204 c 0,19,20
 468 204 468 204 476 196 c 128,-1,21
 484 188 484 188 484 163 c 0,22,23
 484 129 484 129 470 98.5 c 128,-1,24
 456 68 456 68 429 44.5 c 128,-1,25
 402 21 402 21 363 7.5 c 128,-1,26
 324 -6 324 -6 275 -6 c 0,27,28
 233 -6 233 -6 195 5.5 c 128,-1,29
 157 17 157 17 129 42.5 c 128,-1,30
 101 68 101 68 84.5 108.5 c 128,-1,31
 68 149 68 149 68 208 c 2,32,-1
 68 518 l 2,33,34
 68 576 68 576 85 616.5 c 128,-1,35
 102 657 102 657 130.5 682.5 c 128,-1,36
 159 708 159 708 197 719.5 c 128,-1,37
 235 731 235 731 278 731 c 0,38,39
 327 731 327 731 365.5 717.5 c 128,-1,40
 404 704 404 704 430 681 c 128,-1,41
 456 658 456 658 470 628 c 128,-1,42
 484 598 484 598 484 564 c 0,43,44
 484 539 484 539 476 531.5 c 128,-1,45
 468 524 468 524 451 524 c 256,46,47
 434 524 434 524 426.5 531 c 128,-1,48
 419 538 419 538 418 549 c 0,0,1
EndSplineSet
EndChar
StartChar: D
Encoding: 68 68 21
Width: 560
Flags: W
LayerCount: 2
Back
Fore
SplineSet
283 731 m 2,0,1
 327 731 327 731 365 719.5 c 128,-1,2
 403 708 403 708 431.5 682.5 c 128,-1,3
 460 657 460 657 476 616.5 c 128,-1,4
 492 576 492 576 492 518 c 2,5,-1
 492 214 l 2,6,7
 492 155 492 155 476 114.5 c 128,-1,8
 460 74 460 74 431.5 48.5 c 128,-1,9
 403 23 403 23 365 11.5 c 128,-1,10
 327 0 327 0 283 0 c 2,11,-1
 106 0 l 2,12,13
 92 0 92 0 84 7.5 c 128,-1,14
 76 15 76 15 76 25 c 2,15,-1
 76 707 l 2,16,17
 76 717 76 717 84 724 c 128,-1,18
 92 731 92 731 106 731 c 2,19,-1
 283 731 l 2,0,1
142 670 m 1,20,-1
 142 61 l 1,21,-1
 283 61 l 2,22,23
 350 61 350 61 388 98.5 c 128,-1,24
 426 136 426 136 426 214 c 2,25,-1
 426 518 l 2,26,27
 426 596 426 596 388 633 c 128,-1,28
 350 670 350 670 283 670 c 2,29,-1
 142 670 l 1,20,-1
EndSplineSet
EndChar
StartChar: F
Encoding: 70 70 38
Width: 494
Flags: W
LayerCount: 2
Back
Fore
SplineSet
76 706 m 2,0,1
 76 719 76 719 85.5 725 c 128,-1,2
 95 731 95 731 106 731 c 2,3,-1
 460 731 l 2,4,5
 473 731 473 731 479 722 c 128,-1,6
 485 713 485 713 485 702 c 0,7,8
 485 689 485 689 478.5 679.5 c 128,-1,9
 472 670 472 670 460 670 c 2,10,-1
 142 670 l 1,11,-1
 142 395 l 1,12,-1
 300 395 l 2,13,14
 311 395 311 395 317.5 386 c 128,-1,15
 324 377 324 377 324 365 c 0,16,17
 324 355 324 355 318.5 346.5 c 128,-1,18
 313 338 313 338 300 338 c 2,19,-1
 142 338 l 1,20,-1
 142 25 l 2,21,22
 142 12 142 12 131.5 6 c 128,-1,23
 121 0 121 0 109 0 c 0,24,25
 96 0 96 0 86 6 c 128,-1,26
 76 12 76 12 76 25 c 2,27,-1
 76 706 l 2,0,1
EndSplineSet
EndChar
StartChar: G
Encoding: 71 71 39
Width: 541
Flags: W
LayerCount: 2
Back
Fore
SplineSet
418 549 m 0,0,1
 411 607 411 607 376.5 638.5 c 128,-1,2
 342 670 342 670 276 670 c 0,3,4
 209 670 209 670 171.5 633 c 128,-1,5
 134 596 134 596 134 518 c 2,6,-1
 134 208 l 2,7,8
 134 130 134 130 171.5 92.5 c 128,-1,9
 209 55 209 55 276 55 c 256,10,11
 343 55 343 55 380.5 92.5 c 128,-1,12
 418 130 418 130 418 208 c 2,13,-1
 418 327 l 1,14,-1
 284 327 l 2,15,16
 273 327 273 327 266.5 336 c 128,-1,17
 260 345 260 345 260 356 c 256,18,19
 260 367 260 367 266.5 375.5 c 128,-1,20
 273 384 273 384 284 384 c 2,21,-1
 460 384 l 2,22,23
 472 384 472 384 478 376.5 c 128,-1,24
 484 369 484 369 484 358 c 2,25,-1
 484 208 l 2,26,27
 484 149 484 149 468 108.5 c 128,-1,28
 452 68 452 68 424 42.5 c 128,-1,29
 396 17 396 17 358 5.5 c 128,-1,30
 320 -6 320 -6 276 -6 c 256,31,32
 232 -6 232 -6 194 5.5 c 128,-1,33
 156 17 156 17 128 42.5 c 128,-1,34
 100 68 100 68 84 108.5 c 128,-1,35
 68 149 68 149 68 208 c 2,36,-1
 68 518 l 2,37,38
 68 576 68 576 84 616.5 c 128,-1,39
 100 657 100 657 128 682.5 c 128,-1,40
 156 708 156 708 193.5 719.5 c 128,-1,41
 231 731 231 731 275 731 c 0,42,43
 323 731 323 731 361.5 718 c 128,-1,44
 400 705 400 705 427.5 682 c 128,-1,45
 455 659 455 659 469.5 627 c 128,-1,46
 484 595 484 595 484 558 c 0,47,48
 484 538 484 538 475 531 c 128,-1,49
 466 524 466 524 451 524 c 0,50,51
 438 524 438 524 428.5 529.5 c 128,-1,52
 419 535 419 535 418 549 c 0,0,1
EndSplineSet
EndChar
StartChar: H
Encoding: 72 72 44
Width: 573
Flags: W
LayerCount: 2
Back
Fore
SplineSet
431 351 m 1,0,-1
 142 351 l 1,1,-1
 142 26 l 2,2,3
 142 13 142 13 131.5 6.5 c 128,-1,4
 121 0 121 0 109 0 c 0,5,6
 96 0 96 0 86 6.5 c 128,-1,7
 76 13 76 13 76 26 c 2,8,-1
 76 707 l 2,9,10
 76 720 76 720 86 725.5 c 128,-1,11
 96 731 96 731 109 731 c 0,12,13
 121 731 121 731 131.5 725.5 c 128,-1,14
 142 720 142 720 142 707 c 2,15,-1
 142 408 l 1,16,-1
 431 408 l 1,17,-1
 431 707 l 2,18,19
 431 720 431 720 441 725.5 c 128,-1,20
 451 731 451 731 464 731 c 0,21,22
 476 731 476 731 486.5 725.5 c 128,-1,23
 497 720 497 720 497 707 c 2,24,-1
 497 26 l 2,25,26
 497 13 497 13 486.5 6.5 c 128,-1,27
 476 0 476 0 464 0 c 0,28,29
 451 0 451 0 441 6.5 c 128,-1,30
 431 13 431 13 431 26 c 2,31,-1
 431 351 l 1,0,-1
EndSplineSet
EndChar
StartChar: I
Encoding: 73 73 47
Width: 218
Flags: W
LayerCount: 2
Back
Fore
SplineSet
76 707 m 2,0,1
 76 720 76 720 86 725.5 c 128,-1,2
 96 731 96 731 109 731 c 0,3,4
 121 731 121 731 131.5 725.5 c 128,-1,5
 142 720 142 720 142 707 c 2,6,-1
 142 26 l 2,7,8
 142 13 142 13 131.5 6.5 c 128,-1,9
 121 0 121 0 109 0 c 0,10,11
 96 0 96 0 86 6.5 c 128,-1,12
 76 13 76 13 76 26 c 2,13,-1
 76 707 l 2,0,1
EndSplineSet
EndChar
StartChar: J
Encoding: 74 74 58
Width: 512
Flags: W
LayerCount: 2
Back
Fore
SplineSet
232 670 m 2,0,1
 220 670 220 670 213.5 679.5 c 128,-1,2
 207 689 207 689 207 702 c 0,3,4
 207 713 207 713 213 722 c 128,-1,5
 219 731 219 731 232 731 c 2,6,-1
 408 731 l 2,7,8
 420 731 420 731 429.5 725 c 128,-1,9
 439 719 439 719 439 706 c 2,10,-1
 439 208 l 2,11,12
 439 149 439 149 423 108.5 c 128,-1,13
 407 68 407 68 379 42.5 c 128,-1,14
 351 17 351 17 313.5 5.5 c 128,-1,15
 276 -6 276 -6 233 -6 c 0,16,17
 185 -6 185 -6 146 7 c 128,-1,18
 107 20 107 20 80 43.5 c 128,-1,19
 53 67 53 67 38 99.5 c 128,-1,20
 23 132 23 132 23 170 c 0,21,22
 23 190 23 190 31.5 197 c 128,-1,23
 40 204 40 204 55 204 c 0,24,25
 68 204 68 204 78.5 198 c 128,-1,26
 89 192 89 192 89 178 c 0,27,28
 89 121 89 121 127.5 88 c 128,-1,29
 166 55 166 55 231 55 c 0,30,31
 298 55 298 55 335.5 92.5 c 128,-1,32
 373 130 373 130 373 208 c 2,33,-1
 373 670 l 1,34,-1
 232 670 l 2,0,1
EndSplineSet
EndChar
StartChar: K
Encoding: 75 75 60
Width: 522
Flags: W
LayerCount: 2
Back
Fore
SplineSet
76 707 m 2,0,1
 76 720 76 720 86 725.5 c 128,-1,2
 96 731 96 731 109 731 c 0,3,4
 121 731 121 731 131.5 725.5 c 128,-1,5
 142 720 142 720 142 707 c 2,6,-1
 142 353 l 1,7,-1
 431 721 l 2,8,9
 438 731 438 731 452 731 c 0,10,11
 464 731 464 731 476 720.5 c 128,-1,12
 488 710 488 710 488 697 c 0,13,14
 488 694 488 694 487 690 c 128,-1,15
 486 686 486 686 483 682 c 2,16,-1
 268 415 l 1,17,-1
 514 45 l 2,18,19
 518 37 518 37 518 32 c 0,20,21
 518 18 518 18 506 8 c 128,-1,22
 494 -2 494 -2 480 -2 c 0,23,24
 465 -2 465 -2 455 13 c 2,25,-1
 224 360 l 1,26,-1
 142 256 l 1,27,-1
 142 26 l 2,28,29
 142 13 142 13 131.5 6.5 c 128,-1,30
 121 0 121 0 109 0 c 0,31,32
 96 0 96 0 86 6.5 c 128,-1,33
 76 13 76 13 76 26 c 2,34,-1
 76 707 l 2,0,1
EndSplineSet
EndChar
StartChar: L
Encoding: 76 76 62
Width: 463
Flags: W
LayerCount: 2
Back
Fore
SplineSet
106 0 m 2,0,1
 95 0 95 0 85.5 6.5 c 128,-1,2
 76 13 76 13 76 26 c 2,3,-1
 76 707 l 2,4,5
 76 720 76 720 86 725.5 c 128,-1,6
 96 731 96 731 109 731 c 0,7,8
 121 731 121 731 131.5 725.5 c 128,-1,9
 142 720 142 720 142 707 c 2,10,-1
 142 61 l 1,11,-1
 427 61 l 2,12,13
 438 61 438 61 443.5 51.5 c 128,-1,14
 449 42 449 42 449 31 c 0,15,16
 449 19 449 19 443.5 9.5 c 128,-1,17
 438 0 438 0 427 0 c 2,18,-1
 106 0 l 2,0,1
EndSplineSet
EndChar
StartChar: M
Encoding: 77 77 68
Width: 668
Flags: W
LayerCount: 2
Back
Fore
SplineSet
360 274 m 2,0,1
 349 253 349 253 333 253 c 0,2,3
 318 253 318 253 307 274 c 2,4,-1
 142 591 l 1,5,-1
 142 26 l 2,6,7
 142 13 142 13 131.5 6.5 c 128,-1,8
 121 0 121 0 109 0 c 0,9,10
 96 0 96 0 86 6.5 c 128,-1,11
 76 13 76 13 76 26 c 2,12,-1
 76 699 l 2,13,14
 76 717 76 717 86 724 c 128,-1,15
 96 731 96 731 109 731 c 0,16,17
 127 731 127 731 139.5 717.5 c 128,-1,18
 152 704 152 704 162 685 c 2,19,-1
 334 353 l 1,20,-1
 506 685 l 2,21,22
 516 704 516 704 528.5 717.5 c 128,-1,23
 541 731 541 731 559 731 c 0,24,25
 573 731 573 731 582.5 724 c 128,-1,26
 592 717 592 717 592 699 c 2,27,-1
 592 26 l 2,28,29
 592 13 592 13 582 6.5 c 128,-1,30
 572 0 572 0 559 0 c 0,31,32
 547 0 547 0 536.5 6.5 c 128,-1,33
 526 13 526 13 526 26 c 2,34,-1
 526 588 l 1,35,-1
 360 274 l 2,0,1
EndSplineSet
EndChar
StartChar: N
Encoding: 78 78 69
Width: 573
Flags: W
LayerCount: 2
Back
Fore
SplineSet
464 0 m 0,0,1
 450 0 450 0 439 11.5 c 128,-1,2
 428 23 428 23 420 38 c 2,3,-1
 142 579 l 1,4,-1
 142 26 l 2,5,6
 142 13 142 13 131.5 6.5 c 128,-1,7
 121 0 121 0 109 0 c 0,8,9
 96 0 96 0 86 6.5 c 128,-1,10
 76 13 76 13 76 26 c 2,11,-1
 76 706 l 2,12,13
 76 720 76 720 86 725.5 c 128,-1,14
 96 731 96 731 109 731 c 0,15,16
 127 731 127 731 139 717.5 c 128,-1,17
 151 704 151 704 161 685 c 2,18,-1
 431 153 l 1,19,-1
 431 707 l 2,20,21
 431 720 431 720 441 725.5 c 128,-1,22
 451 731 451 731 464 731 c 0,23,24
 476 731 476 731 486.5 725.5 c 128,-1,25
 497 720 497 720 497 707 c 2,26,-1
 497 26 l 2,27,28
 497 13 497 13 486.5 6.5 c 128,-1,29
 476 0 476 0 464 0 c 0,0,1
EndSplineSet
EndChar
StartChar: P
Encoding: 80 80 87
Width: 527
Flags: W
LayerCount: 2
Back
Fore
SplineSet
76 707 m 2,0,1
 76 729 76 729 104 731 c 2,2,-1
 288 731 l 2,3,4
 331 731 331 731 369 719.5 c 128,-1,5
 407 708 407 708 434.5 683 c 128,-1,6
 462 658 462 658 478 617.5 c 128,-1,7
 494 577 494 577 494 519 c 2,8,-1
 494 509 l 2,9,10
 494 451 494 451 478 410.5 c 128,-1,11
 462 370 462 370 434 344.5 c 128,-1,12
 406 319 406 319 368 307.5 c 128,-1,13
 330 296 330 296 286 296 c 2,14,-1
 142 296 l 1,15,-1
 142 26 l 2,16,17
 142 13 142 13 131.5 6.5 c 128,-1,18
 121 0 121 0 109 0 c 0,19,20
 96 0 96 0 86 6.5 c 128,-1,21
 76 13 76 13 76 26 c 2,22,-1
 76 707 l 2,0,1
142 670 m 1,23,-1
 142 353 l 1,24,-1
 286 353 l 2,25,26
 353 353 353 353 390.5 390.5 c 128,-1,27
 428 428 428 428 428 506 c 2,28,-1
 428 518 l 2,29,30
 428 596 428 596 390.5 633 c 128,-1,31
 353 670 353 670 286 670 c 2,32,-1
 142 670 l 1,23,-1
EndSplineSet
EndChar
StartChar: Q
Encoding: 81 81 88
Width: 552
Flags: W
LayerCount: 2
Back
Fore
SplineSet
277 -109 m 0,0,1
 267 -109 267 -109 259 -103 c 128,-1,2
 251 -97 251 -97 251 -84 c 2,3,-1
 251 -5 l 1,4,5
 212 -2 212 -2 178.5 11 c 128,-1,6
 145 24 145 24 120.5 49.5 c 128,-1,7
 96 75 96 75 82 114 c 128,-1,8
 68 153 68 153 68 208 c 2,9,-1
 68 518 l 2,10,11
 68 576 68 576 84 616.5 c 128,-1,12
 100 657 100 657 128 682.5 c 128,-1,13
 156 708 156 708 194 719.5 c 128,-1,14
 232 731 232 731 276 731 c 256,15,16
 320 731 320 731 358 719.5 c 128,-1,17
 396 708 396 708 424 682.5 c 128,-1,18
 452 657 452 657 468 616.5 c 128,-1,19
 484 576 484 576 484 518 c 2,20,-1
 484 208 l 2,21,22
 484 154 484 154 470 115 c 128,-1,23
 456 76 456 76 432 50.5 c 128,-1,24
 408 25 408 25 374.5 11.5 c 128,-1,25
 341 -2 341 -2 302 -5 c 1,26,-1
 302 -84 l 2,27,28
 302 -97 302 -97 294 -103 c 128,-1,29
 286 -109 286 -109 277 -109 c 0,0,1
418 518 m 2,30,31
 418 596 418 596 380.5 633 c 128,-1,32
 343 670 343 670 276 670 c 256,33,34
 209 670 209 670 171.5 633 c 128,-1,35
 134 596 134 596 134 518 c 2,36,-1
 134 208 l 2,37,38
 134 137 134 137 164.5 100.5 c 128,-1,39
 195 64 195 64 251 58 c 1,40,-1
 251 132 l 2,41,42
 251 145 251 145 259 150.5 c 128,-1,43
 267 156 267 156 277 156 c 0,44,45
 286 156 286 156 294 150.5 c 128,-1,46
 302 145 302 145 302 132 c 2,47,-1
 302 58 l 1,48,49
 357 65 357 65 387.5 101 c 128,-1,50
 418 137 418 137 418 208 c 2,51,-1
 418 518 l 2,30,31
EndSplineSet
EndChar
StartChar: R
Encoding: 82 82 89
Width: 529
Flags: W
LayerCount: 2
Back
Fore
SplineSet
76 707 m 2,0,1
 76 729 76 729 101 731 c 2,2,-1
 278 731 l 2,3,4
 322 731 322 731 361 721.5 c 128,-1,5
 400 712 400 712 429.5 689 c 128,-1,6
 459 666 459 666 476.5 628 c 128,-1,7
 494 590 494 590 494 534 c 0,8,9
 494 487 494 487 482 453.5 c 128,-1,10
 470 420 470 420 449 396.5 c 128,-1,11
 428 373 428 373 399.5 360 c 128,-1,12
 371 347 371 347 338 341 c 1,13,-1
 492 45 l 2,14,15
 496 40 496 40 496 32 c 0,16,17
 496 19 496 19 484 8.5 c 128,-1,18
 472 -2 472 -2 458 -2 c 0,19,20
 446 -2 446 -2 437.5 9.5 c 128,-1,21
 429 21 429 21 423 33 c 2,22,-1
 269 333 l 1,23,-1
 142 333 l 1,24,-1
 142 26 l 2,25,26
 142 13 142 13 131.5 6.5 c 128,-1,27
 121 0 121 0 109 0 c 0,28,29
 96 0 96 0 86 6.5 c 128,-1,30
 76 13 76 13 76 26 c 2,31,-1
 76 707 l 2,0,1
142 670 m 1,32,-1
 142 390 l 1,33,-1
 278 390 l 2,34,35
 345 390 345 390 386.5 422.5 c 128,-1,36
 428 455 428 455 428 531 c 0,37,38
 428 606 428 606 386.5 638 c 128,-1,39
 345 670 345 670 278 670 c 2,40,-1
 142 670 l 1,32,-1
EndSplineSet
EndChar
StartChar: S
Encoding: 83 83 93
Width: 494
Flags: W
LayerCount: 2
Back
Fore
SplineSet
237 55 m 0,0,1
 307 55 307 55 346.5 89.5 c 128,-1,2
 386 124 386 124 386 193 c 0,3,4
 386 248 386 248 361.5 279.5 c 128,-1,5
 337 311 337 311 300 330.5 c 128,-1,6
 263 350 263 350 220 364 c 128,-1,7
 177 378 177 378 140 399 c 128,-1,8
 103 420 103 420 78.5 455 c 128,-1,9
 54 490 54 490 54 551 c 0,10,11
 54 606 54 606 74 641 c 128,-1,12
 94 676 94 676 125 696.5 c 128,-1,13
 156 717 156 717 193.5 725 c 128,-1,14
 231 733 231 733 266 733 c 0,15,16
 294 733 294 733 324 728.5 c 128,-1,17
 354 724 354 724 378.5 716 c 128,-1,18
 403 708 403 708 418.5 696.5 c 128,-1,19
 434 685 434 685 434 672 c 0,20,21
 434 662 434 662 426.5 648.5 c 128,-1,22
 419 635 419 635 405 635 c 0,23,24
 398 635 398 635 387.5 641 c 128,-1,25
 377 647 377 647 361 654 c 128,-1,26
 345 661 345 661 321.5 667 c 128,-1,27
 298 673 298 673 265 673 c 0,28,29
 237 673 237 673 211 667.5 c 128,-1,30
 185 662 185 662 164.5 648.5 c 128,-1,31
 144 635 144 635 132 612.5 c 128,-1,32
 120 590 120 590 120 557 c 0,33,34
 120 511 120 511 144.5 485.5 c 128,-1,35
 169 460 169 460 206 443 c 128,-1,36
 243 426 243 426 286 412 c 128,-1,37
 329 398 329 398 366 373.5 c 128,-1,38
 403 349 403 349 427.5 308.5 c 128,-1,39
 452 268 452 268 452 199 c 0,40,41
 452 146 452 146 436.5 107 c 128,-1,42
 421 68 421 68 393 42.5 c 128,-1,43
 365 17 365 17 326 5 c 128,-1,44
 287 -7 287 -7 241 -7 c 0,45,46
 193 -7 193 -7 155 5 c 128,-1,47
 117 17 117 17 90.5 33.5 c 128,-1,48
 64 50 64 50 50 68.5 c 128,-1,49
 36 87 36 87 36 101 c 0,50,51
 36 113 36 113 45.5 125.5 c 128,-1,52
 55 138 55 138 66 138 c 0,53,54
 76 138 76 138 86 125 c 128,-1,55
 96 112 96 112 114 96.5 c 128,-1,56
 132 81 132 81 161 68 c 128,-1,57
 190 55 190 55 237 55 c 0,0,1
EndSplineSet
EndChar
StartChar: T
Encoding: 84 84 99
Width: 481
Flags: W
LayerCount: 2
Back
Fore
SplineSet
441 731 m 2,0,1
 454 731 454 731 460 721.5 c 128,-1,2
 466 712 466 712 466 701 c 0,3,4
 466 689 466 689 460 679 c 128,-1,5
 454 669 454 669 441 669 c 2,6,-1
 274 669 l 1,7,-1
 274 26 l 2,8,9
 274 13 274 13 263.5 6.5 c 128,-1,10
 253 0 253 0 241 0 c 0,11,12
 228 0 228 0 218 6.5 c 128,-1,13
 208 13 208 13 208 26 c 2,14,-1
 208 669 l 1,15,-1
 40 669 l 2,16,17
 28 669 28 669 21.5 678.5 c 128,-1,18
 15 688 15 688 15 700 c 0,19,20
 15 711 15 711 21 721 c 128,-1,21
 27 731 27 731 40 731 c 2,22,-1
 441 731 l 2,0,1
EndSplineSet
EndChar
StartChar: U
Encoding: 85 85 104
Width: 566
Flags: W
LayerCount: 2
Back
Fore
SplineSet
427 707 m 2,0,1
 427 720 427 720 437 725.5 c 128,-1,2
 447 731 447 731 460 731 c 0,3,4
 472 731 472 731 482.5 725.5 c 128,-1,5
 493 720 493 720 493 707 c 2,6,-1
 493 208 l 2,7,8
 493 149 493 149 476.5 108.5 c 128,-1,9
 460 68 460 68 431.5 42.5 c 128,-1,10
 403 17 403 17 365 5.5 c 128,-1,11
 327 -6 327 -6 283 -6 c 256,12,13
 239 -6 239 -6 200.5 5.5 c 128,-1,14
 162 17 162 17 133.5 42.5 c 128,-1,15
 105 68 105 68 89 108.5 c 128,-1,16
 73 149 73 149 73 208 c 2,17,-1
 73 707 l 2,18,19
 73 720 73 720 83.5 725.5 c 128,-1,20
 94 731 94 731 106 731 c 0,21,22
 119 731 119 731 129 725.5 c 128,-1,23
 139 720 139 720 139 707 c 2,24,-1
 139 208 l 2,25,26
 139 130 139 130 177 92.5 c 128,-1,27
 215 55 215 55 283 55 c 256,28,29
 351 55 351 55 389 92.5 c 128,-1,30
 427 130 427 130 427 208 c 2,31,-1
 427 707 l 2,0,1
EndSplineSet
EndChar
StartChar: V
Encoding: 86 86 115
Width: 538
Flags: W
LayerCount: 2
Back
Fore
SplineSet
21 696 m 2,0,1
 20 698 20 698 20 703 c 0,2,3
 20 716 20 716 32.5 723.5 c 128,-1,4
 45 731 45 731 58 731 c 0,5,6
 67 731 67 731 74.5 727 c 128,-1,7
 82 723 82 723 84 714 c 2,8,-1
 269 100 l 1,9,-1
 453 714 l 2,10,11
 459 731 459 731 478 731 c 0,12,13
 492 731 492 731 505 722.5 c 128,-1,14
 518 714 518 714 518 702 c 0,15,16
 518 700 518 700 517.5 699 c 128,-1,17
 517 698 517 698 517 696 c 2,18,-1
 309 18 l 2,19,20
 305 6 305 6 294 0 c 128,-1,21
 283 -6 283 -6 269 -6 c 0,22,23
 256 -6 256 -6 245 -0.5 c 128,-1,24
 234 5 234 5 230 18 c 2,25,-1
 21 696 l 2,0,1
EndSplineSet
EndChar
StartChar: W
Encoding: 87 87 116
Width: 787
Flags: W
LayerCount: 2
Back
Fore
SplineSet
568 18 m 2,0,1
 564 6 564 6 553 0 c 128,-1,2
 542 -6 542 -6 528 -6 c 0,3,4
 515 -6 515 -6 503.5 -0.5 c 128,-1,5
 492 5 492 5 489 18 c 2,6,-1
 394 371 l 1,7,-1
 299 18 l 2,8,9
 296 6 296 6 285 0 c 128,-1,10
 274 -6 274 -6 260 -6 c 256,11,12
 246 -6 246 -6 235 -0.5 c 128,-1,13
 224 5 224 5 220 18 c 2,14,-1
 23 696 l 2,15,16
 22 699 22 699 22 704 c 0,17,18
 22 716 22 716 34 723.5 c 128,-1,19
 46 731 46 731 60 731 c 0,20,21
 69 731 69 731 76.5 726.5 c 128,-1,22
 84 722 84 722 86 714 c 2,23,-1
 259 100 l 1,24,-1
 359 473 l 2,25,26
 362 486 362 486 372 491 c 128,-1,27
 382 496 382 496 394 496 c 256,28,29
 406 496 406 496 415 491 c 128,-1,30
 424 486 424 486 428 473 c 2,31,-1
 528 100 l 1,32,-1
 701 714 l 2,33,34
 703 722 703 722 710.5 726.5 c 128,-1,35
 718 731 718 731 727 731 c 0,36,37
 741 731 741 731 753 723.5 c 128,-1,38
 765 716 765 716 765 704 c 0,39,40
 765 699 765 699 764 696 c 2,41,-1
 568 18 l 2,0,1
EndSplineSet
EndChar
StartChar: X
Encoding: 88 88 121
Width: 484
Flags: W
LayerCount: 2
Back
Fore
SplineSet
242 310 m 1,0,-1
 94 30 l 2,1,2
 89 19 89 19 81.5 8.5 c 128,-1,3
 74 -2 74 -2 63 -2 c 0,4,5
 49 -2 49 -2 36.5 7.5 c 128,-1,6
 24 17 24 17 24 31 c 0,7,8
 24 39 24 39 28 47 c 2,9,-1
 200 366 l 1,10,-1
 31 683 l 2,11,12
 25 693 25 693 25 704 c 0,13,14
 25 717 25 717 37 725 c 128,-1,15
 49 733 49 733 64 733 c 0,16,17
 76 733 76 733 84 721.5 c 128,-1,18
 92 710 92 710 98 699 c 2,19,-1
 242 424 l 1,20,-1
 386 699 l 2,21,22
 392 710 392 710 400 721.5 c 128,-1,23
 408 733 408 733 420 733 c 0,24,25
 435 733 435 733 447 725 c 128,-1,26
 459 717 459 717 459 704 c 0,27,28
 459 693 459 693 453 683 c 2,29,-1
 283 366 l 1,30,-1
 456 47 l 2,31,32
 460 39 460 39 460 31 c 0,33,34
 460 17 460 17 447.5 7.5 c 128,-1,35
 435 -2 435 -2 421 -2 c 0,36,37
 410 -2 410 -2 402.5 8.5 c 128,-1,38
 395 19 395 19 390 30 c 2,39,-1
 242 310 l 1,0,-1
EndSplineSet
EndChar
StartChar: Y
Encoding: 89 89 122
Width: 531
Flags: W
LayerCount: 2
Back
Fore
SplineSet
232 280 m 2,0,1
 232 285 232 285 231 288 c 2,2,-1
 24 685 l 2,3,4
 21 690 21 690 20 695 c 128,-1,5
 19 700 19 700 19 703 c 0,6,7
 19 716 19 716 31 723.5 c 128,-1,8
 43 731 43 731 55 731 c 0,9,10
 71 731 71 731 81 711 c 2,11,-1
 265 346 l 1,12,-1
 450 711 l 2,13,14
 460 731 460 731 476 731 c 0,15,16
 488 731 488 731 500 723.5 c 128,-1,17
 512 716 512 716 512 703 c 0,18,19
 512 700 512 700 511 695 c 128,-1,20
 510 690 510 690 508 685 c 2,21,-1
 300 288 l 2,22,23
 298 282 298 282 298 280 c 2,24,-1
 298 26 l 2,25,26
 298 13 298 13 288 6.5 c 128,-1,27
 278 0 278 0 265 0 c 0,28,29
 253 0 253 0 242.5 6.5 c 128,-1,30
 232 13 232 13 232 26 c 2,31,-1
 232 280 l 2,0,1
EndSplineSet
EndChar
StartChar: Z
Encoding: 90 90 127
Width: 484
Flags: W
LayerCount: 2
Back
Fore
SplineSet
109 61 m 1,0,-1
 436 61 l 2,1,2
 449 61 449 61 455 51.5 c 128,-1,3
 461 42 461 42 461 31 c 256,4,5
 461 20 461 20 455 10 c 128,-1,6
 449 0 449 0 436 0 c 2,7,-1
 48 0 l 2,8,9
 37 0 37 0 30.5 6.5 c 128,-1,10
 24 13 24 13 24 23 c 0,11,12
 24 34 24 34 30 46 c 2,13,-1
 363 670 l 1,14,-1
 61 670 l 2,15,16
 49 670 49 670 42.5 679.5 c 128,-1,17
 36 689 36 689 36 701 c 0,18,19
 36 712 36 712 42 721.5 c 128,-1,20
 48 731 48 731 61 731 c 2,21,-1
 424 731 l 2,22,23
 437 731 437 731 443 725 c 128,-1,24
 449 719 449 719 449 710 c 0,25,26
 449 698 449 698 441 684 c 2,27,-1
 109 61 l 1,0,-1
EndSplineSet
EndChar
StartChar: bracketleft
Encoding: 91 91 161
Width: 303
Flags: W
LayerCount: 2
Back
Fore
SplineSet
134 39 m 1,0,-1
 259 39 l 2,1,2
 270 39 270 39 277 30 c 128,-1,3
 284 21 284 21 284 9 c 0,4,5
 284 -2 284 -2 277 -11.5 c 128,-1,6
 270 -21 270 -21 259 -21 c 2,7,-1
 98 -21 l 2,8,9
 87 -21 87 -21 77.5 -14.5 c 128,-1,10
 68 -8 68 -8 68 4 c 2,11,-1
 68 743 l 2,12,13
 68 754 68 754 77 761 c 128,-1,14
 86 768 86 768 98 768 c 2,15,-1
 259 768 l 2,16,17
 270 768 270 768 277 759 c 128,-1,18
 284 750 284 750 284 739 c 0,19,20
 284 726 284 726 277 717 c 128,-1,21
 270 708 270 708 259 708 c 2,22,-1
 134 708 l 1,23,-1
 134 39 l 1,0,-1
EndSplineSet
EndChar
StartChar: backslash
Encoding: 92 92 157
Width: 346
Flags: W
LayerCount: 2
Back
Fore
SplineSet
24 718 m 2,0,1
 23 720 23 720 23 722.5 c 128,-1,2
 23 725 23 725 23 727 c 0,3,4
 23 739 23 739 31.5 746.5 c 128,-1,5
 40 754 40 754 51 754 c 0,6,7
 67 754 67 754 73 740 c 2,8,-1
 322 33 l 2,9,10
 323 30 323 30 323 25 c 0,11,12
 323 14 323 14 315 7 c 128,-1,13
 307 0 307 0 296 0 c 0,14,15
 288 0 288 0 281.5 4 c 128,-1,16
 275 8 275 8 272 17 c 2,17,-1
 24 718 l 2,0,1
EndSplineSet
EndChar
StartChar: bracketright
Encoding: 93 93 162
Width: 303
Flags: W
LayerCount: 2
Back
Fore
SplineSet
169 708 m 1,0,-1
 43 708 l 2,1,2
 32 708 32 708 25.5 717 c 128,-1,3
 19 726 19 726 19 739 c 0,4,5
 19 750 19 750 25.5 759 c 128,-1,6
 32 768 32 768 43 768 c 2,7,-1
 204 768 l 2,8,9
 216 768 216 768 225.5 761 c 128,-1,10
 235 754 235 754 235 743 c 2,11,-1
 235 4 l 2,12,13
 235 -8 235 -8 225 -14.5 c 128,-1,14
 215 -21 215 -21 204 -21 c 2,15,-1
 43 -21 l 2,16,17
 32 -21 32 -21 25.5 -11.5 c 128,-1,18
 19 -2 19 -2 19 9 c 0,19,20
 19 21 19 21 25.5 30 c 128,-1,21
 32 39 32 39 43 39 c 2,22,-1
 169 39 l 1,23,-1
 169 708 l 1,0,-1
EndSplineSet
EndChar
StartChar: underscore
Encoding: 95 95 392
Width: 336
Flags: W
LayerCount: 2
Back
Fore
SplineSet
-17 -30 m 0,0,1
 -17 -17 -17 -17 -10 -8.5 c 128,-1,2
 -3 0 -3 0 8 0 c 2,3,-1
 328 0 l 2,4,5
 338 0 338 0 345.5 -8.5 c 128,-1,6
 353 -17 353 -17 353 -30 c 256,7,8
 353 -43 353 -43 345.5 -50.5 c 128,-1,9
 338 -58 338 -58 328 -58 c 2,10,-1
 8 -58 l 2,11,12
 -17 -58 -17 -58 -17 -30 c 0,0,1
EndSplineSet
EndChar
StartChar: grave
Encoding: 96 96 235
Width: 155
Flags: W
LayerCount: 2
Back
Fore
SplineSet
13 651 m 2,0,1
 0 657 0 657 0 673 c 0,2,3
 0 683 0 683 6.5 692 c 128,-1,4
 13 701 13 701 24 701 c 0,5,6
 28 701 28 701 33 698 c 2,7,-1
 144 637 l 2,8,9
 155 631 155 631 155 619 c 0,10,11
 155 608 155 608 147.5 599.5 c 128,-1,12
 140 591 140 591 129 591 c 0,13,14
 123 591 123 591 119 594 c 2,15,-1
 13 651 l 2,0,1
EndSplineSet
EndChar
StartChar: b
Encoding: 98 98 155
Width: 484
Flags: W
LayerCount: 2
Back
Fore
SplineSet
95 763 m 256,0,1
 109 763 109 763 118.5 756.5 c 128,-1,2
 128 750 128 750 128 739 c 2,3,-1
 128 403 l 1,4,5
 145 432 145 432 178 455.5 c 128,-1,6
 211 479 211 479 261 479 c 0,7,8
 298 479 298 479 330.5 464.5 c 128,-1,9
 363 450 363 450 387.5 424.5 c 128,-1,10
 412 399 412 399 426 365 c 128,-1,11
 440 331 440 331 440 292 c 2,12,-1
 440 183 l 2,13,14
 440 146 440 146 425.5 111.5 c 128,-1,15
 411 77 411 77 386.5 51 c 128,-1,16
 362 25 362 25 330 9 c 128,-1,17
 298 -7 298 -7 263 -7 c 0,18,19
 216 -7 216 -7 179 16 c 128,-1,20
 142 39 142 39 126 70 c 1,21,-1
 126 26 l 2,22,23
 126 16 126 16 117 8 c 128,-1,24
 108 0 108 0 95 0 c 0,25,26
 81 0 81 0 72 8 c 128,-1,27
 63 16 63 16 63 26 c 2,28,-1
 63 739 l 2,29,30
 63 750 63 750 72 756.5 c 128,-1,31
 81 763 81 763 95 763 c 256,0,1
375 292 m 2,32,33
 375 316 375 316 365 339 c 128,-1,34
 355 362 355 362 338 379.5 c 128,-1,35
 321 397 321 397 298.5 408 c 128,-1,36
 276 419 276 419 250 419 c 0,37,38
 227 419 227 419 205.5 410.5 c 128,-1,39
 184 402 184 402 166.5 385.5 c 128,-1,40
 149 369 149 369 138.5 345.5 c 128,-1,41
 128 322 128 322 128 292 c 2,42,-1
 128 152 l 2,43,44
 128 141 128 141 137.5 124 c 128,-1,45
 147 107 147 107 163.5 91 c 128,-1,46
 180 75 180 75 202.5 64 c 128,-1,47
 225 53 225 53 251 53 c 0,48,49
 276 53 276 53 298.5 64 c 128,-1,50
 321 75 321 75 338 93 c 128,-1,51
 355 111 355 111 365 134.5 c 128,-1,52
 375 158 375 158 375 183 c 2,53,-1
 375 292 l 2,32,33
EndSplineSet
Substitution2: "'ss02' Style Set 2 in Latin lookup 4 subtable" b.ss02
Substitution2: "'salt' Stylistic Alternatives in Latin lookup 2 subtable" b.ss02
Substitution2: "'aalt' Access All Alternates in Latin lookup 0 subtable" b.ss02
EndChar
StartChar: d
Encoding: 100 100 182
Width: 484
Flags: W
LayerCount: 2
Back
Fore
SplineSet
390 763 m 256,0,1
 404 763 404 763 412.5 756.5 c 128,-1,2
 421 750 421 750 421 739 c 2,3,-1
 421 26 l 2,4,5
 421 16 421 16 412.5 8 c 128,-1,6
 404 0 404 0 390 0 c 0,7,8
 377 0 377 0 368 8 c 128,-1,9
 359 16 359 16 359 26 c 2,10,-1
 359 70 l 1,11,12
 342 39 342 39 305.5 16 c 128,-1,13
 269 -7 269 -7 222 -7 c 0,14,15
 186 -7 186 -7 154 9 c 128,-1,16
 122 25 122 25 98 51 c 128,-1,17
 74 77 74 77 59.5 111.5 c 128,-1,18
 45 146 45 146 45 183 c 2,19,-1
 45 292 l 2,20,21
 45 331 45 331 59 365 c 128,-1,22
 73 399 73 399 97.5 424.5 c 128,-1,23
 122 450 122 450 154.5 464.5 c 128,-1,24
 187 479 187 479 224 479 c 0,25,26
 274 479 274 479 307 455.5 c 128,-1,27
 340 432 340 432 356 403 c 1,28,-1
 356 739 l 2,29,30
 356 750 356 750 366 756.5 c 128,-1,31
 376 763 376 763 390 763 c 256,0,1
110 183 m 2,32,33
 110 158 110 158 120 134.5 c 128,-1,34
 130 111 130 111 147 93 c 128,-1,35
 164 75 164 75 186.5 64 c 128,-1,36
 209 53 209 53 234 53 c 0,37,38
 260 53 260 53 282.5 64 c 128,-1,39
 305 75 305 75 321.5 91 c 128,-1,40
 338 107 338 107 347 124 c 128,-1,41
 356 141 356 141 356 152 c 2,42,-1
 356 292 l 2,43,44
 356 322 356 322 345.5 345.5 c 128,-1,45
 335 369 335 369 318 385.5 c 128,-1,46
 301 402 301 402 279 410.5 c 128,-1,47
 257 419 257 419 235 419 c 0,48,49
 209 419 209 419 186.5 408 c 128,-1,50
 164 397 164 397 147 379.5 c 128,-1,51
 130 362 130 362 120 339 c 128,-1,52
 110 316 110 316 110 292 c 2,53,-1
 110 183 l 2,32,33
EndSplineSet
EndChar
StartChar: f
Encoding: 102 102 216
Width: 305
Flags: W
LayerCount: 2
Back
Fore
SplineSet
128 473 m 1,0,-1
 271 473 l 2,1,2
 282 473 282 473 288 465 c 128,-1,3
 294 457 294 457 294 447 c 0,4,5
 294 436 294 436 288 427.5 c 128,-1,6
 282 419 282 419 271 419 c 2,7,-1
 128 419 l 1,8,-1
 128 25 l 2,9,10
 128 14 128 14 118 7 c 128,-1,11
 108 0 108 0 94 0 c 0,12,13
 81 0 81 0 72 7 c 128,-1,14
 63 14 63 14 63 25 c 2,15,-1
 63 579 l 2,16,17
 63 617 63 617 77.5 650.5 c 128,-1,18
 92 684 92 684 116 709 c 128,-1,19
 140 734 140 734 172.5 748.5 c 128,-1,20
 205 763 205 763 241 763 c 2,21,-1
 266 763 l 2,22,23
 279 763 279 763 286.5 754 c 128,-1,24
 294 745 294 745 294 733 c 0,25,26
 294 722 294 722 286.5 713 c 128,-1,27
 279 704 279 704 266 704 c 2,28,-1
 249 704 l 2,29,30
 223 704 223 704 201 694 c 128,-1,31
 179 684 179 684 163 667.5 c 128,-1,32
 147 651 147 651 137.5 629.5 c 128,-1,33
 128 608 128 608 128 584 c 2,34,-1
 128 473 l 1,0,-1
EndSplineSet
EndChar
StartChar: h
Encoding: 104 104 242
Width: 496
Flags: W
LayerCount: 2
Back
Fore
SplineSet
128 26 m 2,0,1
 128 16 128 16 118.5 8 c 128,-1,2
 109 0 109 0 95 0 c 256,3,4
 81 0 81 0 72 8 c 128,-1,5
 63 16 63 16 63 26 c 2,6,-1
 63 739 l 2,7,8
 63 750 63 750 72 756.5 c 128,-1,9
 81 763 81 763 95 763 c 256,10,11
 109 763 109 763 118.5 756.5 c 128,-1,12
 128 750 128 750 128 739 c 2,13,-1
 128 403 l 1,14,15
 144 432 144 432 177 455.5 c 128,-1,16
 210 479 210 479 260 479 c 0,17,18
 296 479 296 479 328 464.5 c 128,-1,19
 360 450 360 450 384.5 424.5 c 128,-1,20
 409 399 409 399 423 365 c 128,-1,21
 437 331 437 331 437 292 c 2,22,-1
 437 26 l 2,23,24
 437 13 437 13 427 6.5 c 128,-1,25
 417 0 417 0 404 0 c 0,26,27
 393 0 393 0 382.5 6.5 c 128,-1,28
 372 13 372 13 372 26 c 2,29,-1
 372 292 l 2,30,31
 372 316 372 316 362 339 c 128,-1,32
 352 362 352 362 335.5 379.5 c 128,-1,33
 319 397 319 397 296 408 c 128,-1,34
 273 419 273 419 248 419 c 0,35,36
 226 419 226 419 204.5 410.5 c 128,-1,37
 183 402 183 402 166 385.5 c 128,-1,38
 149 369 149 369 138.5 345.5 c 128,-1,39
 128 322 128 322 128 292 c 2,40,-1
 128 26 l 2,0,1
EndSplineSet
EndChar
StartChar: i
Encoding: 105 105 247
Width: 191
Flags: W
LayerCount: 2
Back
Fore
SplineSet
95 473 m 256,0,1
 109 473 109 473 118.5 466.5 c 128,-1,2
 128 460 128 460 128 449 c 2,3,-1
 128 26 l 2,4,5
 128 16 128 16 118.5 8 c 128,-1,6
 109 0 109 0 95 0 c 256,7,8
 81 0 81 0 72 8 c 128,-1,9
 63 16 63 16 63 26 c 2,10,-1
 63 449 l 2,11,12
 63 460 63 460 72 466.5 c 128,-1,13
 81 473 81 473 95 473 c 256,0,1
95 696 m 0,14,15
 113 696 113 696 125.5 684 c 128,-1,16
 138 672 138 672 138 655 c 256,17,18
 138 638 138 638 125.5 625.5 c 128,-1,19
 113 613 113 613 95 613 c 0,20,21
 76 613 76 613 63 625.5 c 128,-1,22
 50 638 50 638 50 655 c 256,23,24
 50 672 50 672 63 684 c 128,-1,25
 76 696 76 696 95 696 c 0,14,15
EndSplineSet
EndChar
StartChar: j
Encoding: 106 106 259
Width: 191
Flags: W
LayerCount: 2
Back
Fore
SplineSet
95 696 m 0,0,1
 113 696 113 696 125.5 684 c 128,-1,2
 138 672 138 672 138 655 c 256,3,4
 138 638 138 638 125.5 625.5 c 128,-1,5
 113 613 113 613 95 613 c 0,6,7
 76 613 76 613 63 625.5 c 128,-1,8
 50 638 50 638 50 655 c 256,9,10
 50 672 50 672 63 684 c 128,-1,11
 76 696 76 696 95 696 c 0,0,1
95 473 m 256,12,13
 109 473 109 473 118.5 466.5 c 128,-1,14
 128 460 128 460 128 449 c 2,15,-1
 128 -43 l 2,16,17
 128 -85 128 -85 120.5 -119.5 c 128,-1,18
 113 -154 113 -154 97.5 -179 c 128,-1,19
 82 -204 82 -204 57 -218 c 128,-1,20
 32 -232 32 -232 -4 -232 c 0,21,22
 -22 -232 -22 -232 -29.5 -223 c 128,-1,23
 -37 -214 -37 -214 -37 -203 c 0,24,25
 -37 -189 -37 -189 -29 -181 c 128,-1,26
 -21 -173 -21 -173 -9 -173 c 0,27,28
 15 -173 15 -173 29 -163 c 128,-1,29
 43 -153 43 -153 50.5 -136 c 128,-1,30
 58 -119 58 -119 60.5 -95 c 128,-1,31
 63 -71 63 -71 63 -43 c 2,32,-1
 63 449 l 2,33,34
 63 460 63 460 72 466.5 c 128,-1,35
 81 473 81 473 95 473 c 256,12,13
EndSplineSet
EndChar
StartChar: k
Encoding: 107 107 261
Width: 456
Flags: W
LayerCount: 2
Back
Fore
SplineSet
266 297 m 1,0,-1
 439 44 l 2,1,2
 443 36 443 36 443 30 c 0,3,4
 443 19 443 19 432 8 c 128,-1,5
 421 -3 421 -3 408 -3 c 256,6,7
 395 -3 395 -3 388 9 c 2,8,-1
 220 256 l 1,9,-1
 128 175 l 1,10,-1
 128 26 l 2,11,12
 128 16 128 16 118.5 8 c 128,-1,13
 109 0 109 0 95 0 c 256,14,15
 81 0 81 0 72 8 c 128,-1,16
 63 16 63 16 63 26 c 2,17,-1
 63 739 l 2,18,19
 63 750 63 750 72 756.5 c 128,-1,20
 81 763 81 763 95 763 c 256,21,22
 109 763 109 763 118.5 756.5 c 128,-1,23
 128 750 128 750 128 739 c 2,24,-1
 128 252 l 1,25,-1
 372 469 l 2,26,27
 376 471 376 471 379.5 473 c 128,-1,28
 383 475 383 475 387 475 c 0,29,30
 399 475 399 475 409.5 466 c 128,-1,31
 420 457 420 457 420 444 c 0,32,33
 420 439 420 439 419 434.5 c 128,-1,34
 418 430 418 430 413 426 c 2,35,-1
 266 297 l 1,0,-1
EndSplineSet
EndChar
StartChar: l
Encoding: 108 108 264
Width: 207
Flags: W
LayerCount: 2
Back
Fore
SplineSet
103 763 m 256,0,1
 117 763 117 763 126.5 756.5 c 128,-1,2
 136 750 136 750 136 739 c 2,3,-1
 136 26 l 2,4,5
 136 16 136 16 126.5 8 c 128,-1,6
 117 0 117 0 103 0 c 256,7,8
 89 0 89 0 80 8 c 128,-1,9
 71 16 71 16 71 26 c 2,10,-1
 71 739 l 2,11,12
 71 750 71 750 80 756.5 c 128,-1,13
 89 763 89 763 103 763 c 256,0,1
EndSplineSet
EndChar
StartChar: m
Encoding: 109 109 274
Width: 780
Flags: W
LayerCount: 2
Back
Fore
SplineSet
360 295 m 2,0,1
 360 322 360 322 351 344.5 c 128,-1,2
 342 367 342 367 326.5 383.5 c 128,-1,3
 311 400 311 400 290 409.5 c 128,-1,4
 269 419 269 419 246 419 c 0,5,6
 224 419 224 419 203 410.5 c 128,-1,7
 182 402 182 402 165.5 386 c 128,-1,8
 149 370 149 370 138.5 346 c 128,-1,9
 128 322 128 322 128 292 c 2,10,-1
 128 26 l 2,11,12
 128 16 128 16 118.5 8 c 128,-1,13
 109 0 109 0 95 0 c 256,14,15
 81 0 81 0 72 8 c 128,-1,16
 63 16 63 16 63 26 c 2,17,-1
 63 449 l 2,18,19
 63 460 63 460 72 466.5 c 128,-1,20
 81 473 81 473 95 473 c 0,21,22
 108 473 108 473 117 466.5 c 128,-1,23
 126 460 126 460 126 449 c 2,24,-1
 126 403 l 1,25,26
 143 432 143 432 176 455.5 c 128,-1,27
 209 479 209 479 259 479 c 256,28,29
 309 479 309 479 346 451.5 c 128,-1,30
 383 424 383 424 401 379 c 1,31,32
 427 430 427 430 468 454.5 c 128,-1,33
 509 479 509 479 553 479 c 0,34,35
 585 479 585 479 615.5 466.5 c 128,-1,36
 646 454 646 454 669.5 430 c 128,-1,37
 693 406 693 406 707 371.5 c 128,-1,38
 721 337 721 337 721 292 c 2,39,-1
 721 26 l 2,40,41
 721 16 721 16 711.5 8 c 128,-1,42
 702 0 702 0 688 0 c 0,43,44
 675 0 675 0 665.5 8 c 128,-1,45
 656 16 656 16 656 26 c 2,46,-1
 656 292 l 2,47,48
 656 323 656 323 646 347 c 128,-1,49
 636 371 636 371 619.5 387 c 128,-1,50
 603 403 603 403 583 411 c 128,-1,51
 563 419 563 419 542 419 c 0,52,53
 520 419 520 419 499 410.5 c 128,-1,54
 478 402 478 402 461.5 386 c 128,-1,55
 445 370 445 370 435 347 c 128,-1,56
 425 324 425 324 425 296 c 2,57,-1
 425 25 l 2,58,59
 425 11 425 11 414.5 5.5 c 128,-1,60
 404 0 404 0 392 0 c 0,61,62
 381 0 381 0 370.5 5.5 c 128,-1,63
 360 11 360 11 360 25 c 2,64,-1
 360 295 l 2,0,1
EndSplineSet
Substitution2: "'ss04' Style Set 4 in Latin lookup 6 subtable" m.ss04
Substitution2: "'salt' Stylistic Alternatives in Latin lookup 2 subtable" m.ss04
Substitution2: "'aalt' Access All Alternates in Latin lookup 0 subtable" m.ss04
EndChar
StartChar: n
Encoding: 110 110 280
Width: 496
Flags: W
LayerCount: 2
Back
Fore
SplineSet
128 26 m 2,0,1
 128 16 128 16 118.5 8 c 128,-1,2
 109 0 109 0 95 0 c 256,3,4
 81 0 81 0 72 8 c 128,-1,5
 63 16 63 16 63 26 c 2,6,-1
 63 449 l 2,7,8
 63 460 63 460 72 466.5 c 128,-1,9
 81 473 81 473 95 473 c 0,10,11
 107 473 107 473 116 466.5 c 128,-1,12
 125 460 125 460 125 449 c 2,13,-1
 125 403 l 1,14,15
 141 432 141 432 174.5 455.5 c 128,-1,16
 208 479 208 479 259 479 c 0,17,18
 295 479 295 479 327.5 464.5 c 128,-1,19
 360 450 360 450 384 424.5 c 128,-1,20
 408 399 408 399 422.5 365 c 128,-1,21
 437 331 437 331 437 292 c 2,22,-1
 437 26 l 2,23,24
 437 13 437 13 426.5 6.5 c 128,-1,25
 416 0 416 0 404 0 c 0,26,27
 393 0 393 0 382.5 6.5 c 128,-1,28
 372 13 372 13 372 26 c 2,29,-1
 372 292 l 2,30,31
 372 316 372 316 362 339 c 128,-1,32
 352 362 352 362 335 379.5 c 128,-1,33
 318 397 318 397 295.5 408 c 128,-1,34
 273 419 273 419 247 419 c 0,35,36
 225 419 225 419 203.5 410.5 c 128,-1,37
 182 402 182 402 165.5 385.5 c 128,-1,38
 149 369 149 369 138.5 345.5 c 128,-1,39
 128 322 128 322 128 292 c 2,40,-1
 128 26 l 2,0,1
EndSplineSet
Substitution2: "'ss04' Style Set 4 in Latin lookup 6 subtable" n.ss04
Substitution2: "'salt' Stylistic Alternatives in Latin lookup 2 subtable" n.ss04
Substitution2: "'aalt' Access All Alternates in Latin lookup 0 subtable" n.ss04
EndChar
StartChar: o
Encoding: 111 111 291
Width: 468
Flags: W
LayerCount: 2
Back
Fore
SplineSet
233 479 m 0,0,1
 271 479 271 479 305.5 464.5 c 128,-1,2
 340 450 340 450 366.5 424.5 c 128,-1,3
 393 399 393 399 408.5 365 c 128,-1,4
 424 331 424 331 424 292 c 2,5,-1
 424 183 l 2,6,7
 424 146 424 146 408.5 111.5 c 128,-1,8
 393 77 393 77 366.5 51 c 128,-1,9
 340 25 340 25 305.5 9 c 128,-1,10
 271 -7 271 -7 233 -7 c 256,11,12
 195 -7 195 -7 161 8.5 c 128,-1,13
 127 24 127 24 101 50.5 c 128,-1,14
 75 77 75 77 59.5 111 c 128,-1,15
 44 145 44 145 44 183 c 2,16,-1
 44 292 l 2,17,18
 44 329 44 329 59 363 c 128,-1,19
 74 397 74 397 99.5 423 c 128,-1,20
 125 449 125 449 159.5 464 c 128,-1,21
 194 479 194 479 233 479 c 0,0,1
359 292 m 2,22,23
 359 316 359 316 349 339 c 128,-1,24
 339 362 339 362 322 379.5 c 128,-1,25
 305 397 305 397 282 408 c 128,-1,26
 259 419 259 419 233 419 c 256,27,28
 207 419 207 419 184 408 c 128,-1,29
 161 397 161 397 144.5 379.5 c 128,-1,30
 128 362 128 362 118.5 339 c 128,-1,31
 109 316 109 316 109 292 c 2,32,-1
 109 183 l 2,33,34
 109 158 109 158 118.5 134.5 c 128,-1,35
 128 111 128 111 145 93 c 128,-1,36
 162 75 162 75 184.5 64 c 128,-1,37
 207 53 207 53 233 53 c 256,38,39
 259 53 259 53 282 64 c 128,-1,40
 305 75 305 75 322 93 c 128,-1,41
 339 111 339 111 349 134.5 c 128,-1,42
 359 158 359 158 359 183 c 2,43,-1
 359 292 l 2,22,23
EndSplineSet
EndChar
StartChar: p
Encoding: 112 112 314
Width: 484
Flags: W
LayerCount: 2
Back
Fore
SplineSet
95 473 m 0,0,1
 108 473 108 473 117 466.5 c 128,-1,2
 126 460 126 460 126 449 c 2,3,-1
 126 403 l 1,4,5
 143 432 143 432 176.5 455.5 c 128,-1,6
 210 479 210 479 260 479 c 0,7,8
 297 479 297 479 330 464.5 c 128,-1,9
 363 450 363 450 387.5 424.5 c 128,-1,10
 412 399 412 399 426 365 c 128,-1,11
 440 331 440 331 440 292 c 2,12,-1
 440 183 l 2,13,14
 440 146 440 146 425.5 111.5 c 128,-1,15
 411 77 411 77 386.5 51 c 128,-1,16
 362 25 362 25 330 9 c 128,-1,17
 298 -7 298 -7 263 -7 c 0,18,19
 217 -7 217 -7 181 16 c 128,-1,20
 145 39 145 39 128 70 c 1,21,-1
 128 -207 l 2,22,23
 128 -216 128 -216 118.5 -224 c 128,-1,24
 109 -232 109 -232 95 -232 c 256,25,26
 81 -232 81 -232 72 -224 c 128,-1,27
 63 -216 63 -216 63 -207 c 2,28,-1
 63 449 l 2,29,30
 63 460 63 460 72 466.5 c 128,-1,31
 81 473 81 473 95 473 c 0,0,1
375 292 m 2,32,33
 375 316 375 316 365 339 c 128,-1,34
 355 362 355 362 338 379.5 c 128,-1,35
 321 397 321 397 298 408 c 128,-1,36
 275 419 275 419 249 419 c 0,37,38
 226 419 226 419 204.5 410.5 c 128,-1,39
 183 402 183 402 166 385.5 c 128,-1,40
 149 369 149 369 138.5 345.5 c 128,-1,41
 128 322 128 322 128 292 c 2,42,-1
 128 152 l 2,43,44
 128 141 128 141 137 124 c 128,-1,45
 146 107 146 107 162.5 91 c 128,-1,46
 179 75 179 75 201.5 64 c 128,-1,47
 224 53 224 53 251 53 c 0,48,49
 276 53 276 53 298.5 64 c 128,-1,50
 321 75 321 75 338 93 c 128,-1,51
 355 111 355 111 365 134.5 c 128,-1,52
 375 158 375 158 375 183 c 2,53,-1
 375 292 l 2,32,33
EndSplineSet
EndChar
StartChar: q
Encoding: 113 113 327
Width: 484
Flags: W
LayerCount: 2
Back
Fore
SplineSet
390 473 m 256,0,1
 404 473 404 473 412.5 466.5 c 128,-1,2
 421 460 421 460 421 449 c 2,3,-1
 421 -207 l 2,4,5
 421 -216 421 -216 412.5 -224 c 128,-1,6
 404 -232 404 -232 390 -232 c 256,7,8
 376 -232 376 -232 366 -224 c 128,-1,9
 356 -216 356 -216 356 -207 c 2,10,-1
 356 70 l 1,11,12
 340 39 340 39 303.5 16 c 128,-1,13
 267 -7 267 -7 222 -7 c 0,14,15
 186 -7 186 -7 154 9 c 128,-1,16
 122 25 122 25 98 51 c 128,-1,17
 74 77 74 77 59.5 111.5 c 128,-1,18
 45 146 45 146 45 183 c 2,19,-1
 45 292 l 2,20,21
 45 331 45 331 59 365 c 128,-1,22
 73 399 73 399 97.5 424.5 c 128,-1,23
 122 450 122 450 155 464.5 c 128,-1,24
 188 479 188 479 225 479 c 0,25,26
 275 479 275 479 308.5 455.5 c 128,-1,27
 342 432 342 432 359 403 c 1,28,-1
 359 449 l 2,29,30
 359 460 359 460 367.5 466.5 c 128,-1,31
 376 473 376 473 390 473 c 256,0,1
110 183 m 2,32,33
 110 158 110 158 120 134.5 c 128,-1,34
 130 111 130 111 147 93 c 128,-1,35
 164 75 164 75 186.5 64 c 128,-1,36
 209 53 209 53 234 53 c 0,37,38
 260 53 260 53 282.5 64 c 128,-1,39
 305 75 305 75 321.5 91 c 128,-1,40
 338 107 338 107 347 124 c 128,-1,41
 356 141 356 141 356 152 c 2,42,-1
 356 292 l 2,43,44
 356 322 356 322 345.5 345.5 c 128,-1,45
 335 369 335 369 318 385.5 c 128,-1,46
 301 402 301 402 279 410.5 c 128,-1,47
 257 419 257 419 235 419 c 0,48,49
 209 419 209 419 186.5 408 c 128,-1,50
 164 397 164 397 147 379.5 c 128,-1,51
 130 362 130 362 120 339 c 128,-1,52
 110 316 110 316 110 292 c 2,53,-1
 110 183 l 2,32,33
EndSplineSet
Substitution2: "'ss02' Style Set 2 in Latin lookup 4 subtable" q.ss02
Substitution2: "'salt' Stylistic Alternatives in Latin lookup 2 subtable" q.ss02
Substitution2: "'aalt' Access All Alternates in Latin lookup 0 subtable" q.ss02
EndChar
StartChar: r
Encoding: 114 114 339
Width: 331
Flags: W
LayerCount: 2
Back
Fore
SplineSet
260 419 m 2,0,1
 235 419 235 419 211.5 409 c 128,-1,2
 188 399 188 399 169.5 380 c 128,-1,3
 151 361 151 361 139.5 334 c 128,-1,4
 128 307 128 307 128 273 c 2,5,-1
 128 26 l 2,6,7
 128 16 128 16 118.5 8 c 128,-1,8
 109 0 109 0 95 0 c 256,9,10
 81 0 81 0 72 8 c 128,-1,11
 63 16 63 16 63 26 c 2,12,-1
 63 449 l 2,13,14
 63 460 63 460 72 466.5 c 128,-1,15
 81 473 81 473 95 473 c 0,16,17
 108 473 108 473 117 466.5 c 128,-1,18
 126 460 126 460 126 449 c 2,19,-1
 126 400 l 1,20,21
 143 430 143 430 177 454.5 c 128,-1,22
 211 479 211 479 260 479 c 2,23,-1
 295 479 l 2,24,25
 306 479 306 479 313.5 470 c 128,-1,26
 321 461 321 461 321 449 c 256,27,28
 321 437 321 437 313.5 428 c 128,-1,29
 306 419 306 419 295 419 c 2,30,-1
 260 419 l 2,0,1
EndSplineSet
Substitution2: "'ss04' Style Set 4 in Latin lookup 6 subtable" r.ss04
Substitution2: "'salt' Stylistic Alternatives in Latin lookup 2 subtable" r.ss04
Substitution2: "'aalt' Access All Alternates in Latin lookup 0 subtable" r.ss04
EndChar
StartChar: s
Encoding: 115 115 347
Width: 385
Flags: W
LayerCount: 2
Back
Fore
SplineSet
188 48 m 0,0,1
 245 48 245 48 268 69 c 128,-1,2
 291 90 291 90 291 119 c 0,3,4
 291 152 291 152 272.5 170 c 128,-1,5
 254 188 254 188 227 199 c 128,-1,6
 200 210 200 210 167.5 218.5 c 128,-1,7
 135 227 135 227 108 241 c 128,-1,8
 81 255 81 255 62.5 278 c 128,-1,9
 44 301 44 301 44 343 c 0,10,11
 44 367 44 367 52.5 391 c 128,-1,12
 61 415 61 415 80 434.5 c 128,-1,13
 99 454 99 454 129 466.5 c 128,-1,14
 159 479 159 479 202 479 c 0,15,16
 227 479 227 479 251 474.5 c 128,-1,17
 275 470 275 470 294 463.5 c 128,-1,18
 313 457 313 457 324.5 448 c 128,-1,19
 336 439 336 439 336 430 c 0,20,21
 336 422 336 422 328.5 409 c 128,-1,22
 321 396 321 396 309 396 c 0,23,24
 303 396 303 396 294 400.5 c 128,-1,25
 285 405 285 405 272 410 c 128,-1,26
 259 415 259 415 242 419.5 c 128,-1,27
 225 424 225 424 203 424 c 0,28,29
 175 424 175 424 156 416.5 c 128,-1,30
 137 409 137 409 125 397.5 c 128,-1,31
 113 386 113 386 108 372 c 128,-1,32
 103 358 103 358 103 346 c 0,33,34
 103 317 103 317 121.5 302 c 128,-1,35
 140 287 140 287 167.5 277.5 c 128,-1,36
 195 268 195 268 227 259.5 c 128,-1,37
 259 251 259 251 286.5 235.5 c 128,-1,38
 314 220 314 220 332.5 193.5 c 128,-1,39
 351 167 351 167 351 122 c 0,40,41
 351 62 351 62 309 27.5 c 128,-1,42
 267 -7 267 -7 190 -7 c 0,43,44
 155 -7 155 -7 126 0 c 128,-1,45
 97 7 97 7 76.5 17.5 c 128,-1,46
 56 28 56 28 44.5 41 c 128,-1,47
 33 54 33 54 33 65 c 0,48,49
 33 75 33 75 39.5 85 c 128,-1,50
 46 95 46 95 56 95 c 0,51,52
 64 95 64 95 73 87.5 c 128,-1,53
 82 80 82 80 96.5 71.5 c 128,-1,54
 111 63 111 63 132.5 55.5 c 128,-1,55
 154 48 154 48 188 48 c 0,0,1
EndSplineSet
EndChar
StartChar: t
Encoding: 116 116 367
Width: 297
Flags: W
LayerCount: 2
Back
Fore
SplineSet
126 147 m 2,0,1
 126 98 126 98 146.5 78.5 c 128,-1,2
 167 59 167 59 219 59 c 2,3,-1
 247 59 l 2,4,5
 261 59 261 59 269 50 c 128,-1,6
 277 41 277 41 277 30 c 0,7,8
 277 18 277 18 269 9 c 128,-1,9
 261 0 261 0 247 0 c 2,10,-1
 219 0 l 2,11,12
 141 0 141 0 101 34.5 c 128,-1,13
 61 69 61 69 61 147 c 2,14,-1
 61 674 l 2,15,16
 61 685 61 685 71.5 691.5 c 128,-1,17
 82 698 82 698 93 698 c 0,18,19
 105 698 105 698 115.5 691.5 c 128,-1,20
 126 685 126 685 126 674 c 2,21,-1
 126 473 l 1,22,-1
 255 473 l 2,23,24
 265 473 265 473 271.5 465 c 128,-1,25
 278 457 278 457 278 446 c 256,26,27
 278 435 278 435 271.5 427 c 128,-1,28
 265 419 265 419 255 419 c 2,29,-1
 126 419 l 1,30,-1
 126 147 l 2,0,1
EndSplineSet
EndChar
StartChar: v
Encoding: 118 118 398
Width: 420
Flags: W
LayerCount: 2
Back
Fore
SplineSet
19 430 m 2,0,1
 17 432 17 432 16 437 c 128,-1,2
 15 442 15 442 15 445 c 0,3,4
 15 458 15 458 28 466.5 c 128,-1,5
 41 475 41 475 54 475 c 0,6,7
 62 475 62 475 68.5 471.5 c 128,-1,8
 75 468 75 468 78 460 c 2,9,-1
 210 100 l 1,10,-1
 342 456 l 2,11,12
 345 464 345 464 349.5 469.5 c 128,-1,13
 354 475 354 475 365 475 c 256,14,15
 376 475 376 475 390.5 466.5 c 128,-1,16
 405 458 405 458 405 446 c 0,17,18
 405 438 405 438 401 430 c 2,19,-1
 240 8 l 2,20,21
 237 0 237 0 229 -4 c 128,-1,22
 221 -8 221 -8 210 -8 c 256,23,24
 199 -8 199 -8 191 -4 c 128,-1,25
 183 0 183 0 180 8 c 2,26,-1
 19 430 l 2,0,1
EndSplineSet
EndChar
StartChar: w
Encoding: 119 119 399
Width: 667
Flags: W
LayerCount: 2
Back
Fore
SplineSet
491 8 m 2,0,1
 488 -1 488 -1 480.5 -4.5 c 128,-1,2
 473 -8 473 -8 465 -8 c 0,3,4
 445 -8 445 -8 438 7 c 2,5,-1
 334 332 l 1,6,-1
 231 12 l 2,7,8
 225 -8 225 -8 202 -8 c 0,9,10
 192 -8 192 -8 185.5 -4 c 128,-1,11
 179 0 179 0 175 12 c 2,12,-1
 19 431 l 2,13,14
 15 439 15 439 15 446 c 0,15,16
 15 458 15 458 27.5 466.5 c 128,-1,17
 40 475 40 475 54 475 c 0,18,19
 62 475 62 475 68.5 471.5 c 128,-1,20
 75 468 75 468 77 460 c 2,21,-1
 205 104 l 1,22,-1
 308 429 l 2,23,24
 313 446 313 446 334 446 c 0,25,26
 343 446 343 446 350 442.5 c 128,-1,27
 357 439 357 439 360 429 c 2,28,-1
 459 100 l 1,29,-1
 590 460 l 2,30,31
 592 467 592 467 598 471 c 128,-1,32
 604 475 604 475 612 475 c 0,33,34
 625 475 625 475 638 467.5 c 128,-1,35
 651 460 651 460 651 446 c 0,36,37
 651 437 651 437 647 431 c 2,38,-1
 491 8 l 2,0,1
EndSplineSet
EndChar
StartChar: x
Encoding: 120 120 404
Width: 410
Flags: W
LayerCount: 2
Back
Fore
SplineSet
25 25 m 0,0,1
 25 31 25 31 29 39 c 2,2,-1
 162 239 l 1,3,-1
 32 433 l 2,4,5
 30 436 30 436 28.5 439 c 128,-1,6
 27 442 27 442 27 446 c 0,7,8
 27 458 27 458 40.5 468.5 c 128,-1,9
 54 479 54 479 67 479 c 0,10,11
 72 479 72 479 77.5 477 c 128,-1,12
 83 475 83 475 87 469 c 2,13,-1
 205 286 l 1,14,-1
 324 469 l 2,15,16
 327 474 327 474 332.5 476.5 c 128,-1,17
 338 479 338 479 343 479 c 0,18,19
 355 479 355 479 369 469 c 128,-1,20
 383 459 383 459 383 446 c 0,21,22
 383 441 383 441 378 433 c 2,23,-1
 247 239 l 1,24,-1
 381 39 l 2,25,26
 385 33 385 33 385 25 c 0,27,28
 385 14 385 14 372.5 3.5 c 128,-1,29
 360 -7 360 -7 346 -7 c 0,30,31
 333 -7 333 -7 327 3 c 2,32,-1
 205 190 l 1,33,-1
 84 3 l 2,34,35
 77 -7 77 -7 63 -7 c 0,36,37
 52 -7 52 -7 38.5 3 c 128,-1,38
 25 13 25 13 25 25 c 0,0,1
EndSplineSet
EndChar
StartChar: z
Encoding: 122 122 411
Width: 401
Flags: W
LayerCount: 2
Back
Fore
SplineSet
354 58 m 2,0,1
 364 58 364 58 371 49.5 c 128,-1,2
 378 41 378 41 378 28 c 0,3,4
 378 17 378 17 371.5 8.5 c 128,-1,5
 365 0 365 0 354 0 c 2,6,-1
 51 0 l 2,7,8
 38 0 38 0 31 8 c 128,-1,9
 24 16 24 16 24 26 c 0,10,11
 24 32 24 32 27 39 c 128,-1,12
 30 46 30 46 34 51 c 2,13,-1
 279 416 l 1,14,-1
 58 416 l 2,15,16
 48 416 48 416 41 424.5 c 128,-1,17
 34 433 34 433 34 444 c 0,18,19
 34 456 34 456 40.5 464.5 c 128,-1,20
 47 473 47 473 58 473 c 2,21,-1
 341 473 l 2,22,23
 351 473 351 473 358.5 466 c 128,-1,24
 366 459 366 459 366 447 c 0,25,26
 366 434 366 434 358 423 c 2,27,-1
 112 58 l 1,28,-1
 354 58 l 2,0,1
EndSplineSet
EndChar
StartChar: braceleft
Encoding: 123 123 159
Width: 310
Flags: W
LayerCount: 2
Back
Fore
SplineSet
30 385 m 0,0,1
 30 400 30 400 39.5 405 c 128,-1,2
 49 410 49 410 60 412 c 128,-1,3
 71 414 71 414 80.5 417.5 c 128,-1,4
 90 421 90 421 90 434 c 0,5,6
 90 441 90 441 87 464 c 128,-1,7
 84 487 84 487 80.5 514.5 c 128,-1,8
 77 542 77 542 74 567 c 128,-1,9
 71 592 71 592 71 604 c 0,10,11
 71 637 71 637 86 666.5 c 128,-1,12
 101 696 101 696 126.5 718.5 c 128,-1,13
 152 741 152 741 185.5 754.5 c 128,-1,14
 219 768 219 768 257 768 c 0,15,16
 275 768 275 768 283 758.5 c 128,-1,17
 291 749 291 749 291 738 c 256,18,19
 291 727 291 727 284.5 718 c 128,-1,20
 278 709 278 709 267 709 c 0,21,22
 241 709 241 709 217.5 700 c 128,-1,23
 194 691 194 691 176 675.5 c 128,-1,24
 158 660 158 660 147.5 639.5 c 128,-1,25
 137 619 137 619 137 596 c 0,26,27
 137 585 137 585 140 560.5 c 128,-1,28
 143 536 143 536 146.5 509 c 128,-1,29
 150 482 150 482 153 459 c 128,-1,30
 156 436 156 436 156 429 c 0,31,32
 156 411 156 411 142.5 398.5 c 128,-1,33
 129 386 129 386 120 384 c 1,34,35
 130 382 130 382 143 370.5 c 128,-1,36
 156 359 156 359 156 340 c 0,37,38
 156 331 156 331 153 303 c 128,-1,39
 150 275 150 275 146.5 242 c 128,-1,40
 143 209 143 209 140 179 c 128,-1,41
 137 149 137 149 137 136 c 0,42,43
 137 107 137 107 151.5 88.5 c 128,-1,44
 166 70 166 70 186 59 c 128,-1,45
 206 48 206 48 228.5 43.5 c 128,-1,46
 251 39 251 39 267 39 c 0,47,48
 281 39 281 39 286 29 c 128,-1,49
 291 19 291 19 291 10 c 0,50,51
 291 -5 291 -5 281.5 -12.5 c 128,-1,52
 272 -20 272 -20 256 -20 c 0,53,54
 218 -20 218 -20 184.5 -9 c 128,-1,55
 151 2 151 2 126 22.5 c 128,-1,56
 101 43 101 43 86 71 c 128,-1,57
 71 99 71 99 71 133 c 0,58,59
 71 141 71 141 72.5 158 c 128,-1,60
 74 175 74 175 76 196 c 128,-1,61
 78 217 78 217 80.5 239.5 c 128,-1,62
 83 262 83 262 85 282 c 128,-1,63
 87 302 87 302 88.5 316.5 c 128,-1,64
 90 331 90 331 90 336 c 0,65,66
 90 349 90 349 80.5 352 c 128,-1,67
 71 355 71 355 60 357 c 128,-1,68
 49 359 49 359 39.5 364 c 128,-1,69
 30 369 30 369 30 385 c 0,0,1
EndSplineSet
EndChar
StartChar: bar
Encoding: 124 124 158
Width: 202
Flags: W
LayerCount: 2
Back
Fore
SplineSet
101 768 m 0,0,1
 114 768 114 768 124 761 c 128,-1,2
 134 754 134 754 134 744 c 2,3,-1
 134 4 l 2,4,5
 134 -6 134 -6 124 -13.5 c 128,-1,6
 114 -21 114 -21 101 -21 c 0,7,8
 87 -21 87 -21 77.5 -13.5 c 128,-1,9
 68 -6 68 -6 68 4 c 2,10,-1
 68 744 l 2,11,12
 68 754 68 754 77.5 761 c 128,-1,13
 87 768 87 768 101 768 c 0,0,1
EndSplineSet
EndChar
StartChar: braceright
Encoding: 125 125 160
Width: 310
Flags: W
LayerCount: 2
Back
Fore
SplineSet
280 385 m 0,0,1
 280 369 280 369 270.5 364 c 128,-1,2
 261 359 261 359 250 357 c 128,-1,3
 239 355 239 355 229.5 352 c 128,-1,4
 220 349 220 349 220 336 c 0,5,6
 220 331 220 331 221.5 316.5 c 128,-1,7
 223 302 223 302 225 282 c 128,-1,8
 227 262 227 262 229.5 239.5 c 128,-1,9
 232 217 232 217 234 196 c 128,-1,10
 236 175 236 175 237.5 158 c 128,-1,11
 239 141 239 141 239 133 c 0,12,13
 239 99 239 99 224 71 c 128,-1,14
 209 43 209 43 184 22.5 c 128,-1,15
 159 2 159 2 125 -9 c 128,-1,16
 91 -20 91 -20 54 -20 c 0,17,18
 38 -20 38 -20 28.5 -12.5 c 128,-1,19
 19 -5 19 -5 19 10 c 0,20,21
 19 19 19 19 24 29 c 128,-1,22
 29 39 29 39 43 39 c 0,23,24
 59 39 59 39 81.5 43.5 c 128,-1,25
 104 48 104 48 124 59 c 128,-1,26
 144 70 144 70 158.5 88.5 c 128,-1,27
 173 107 173 107 173 136 c 0,28,29
 173 149 173 149 170 179 c 128,-1,30
 167 209 167 209 163.5 242 c 128,-1,31
 160 275 160 275 157 303 c 128,-1,32
 154 331 154 331 154 340 c 0,33,34
 154 359 154 359 167 370.5 c 128,-1,35
 180 382 180 382 190 384 c 1,36,37
 181 386 181 386 167.5 398.5 c 128,-1,38
 154 411 154 411 154 429 c 0,39,40
 154 436 154 436 157 459 c 128,-1,41
 160 482 160 482 163.5 509 c 128,-1,42
 167 536 167 536 170 560.5 c 128,-1,43
 173 585 173 585 173 596 c 0,44,45
 173 619 173 619 162.5 639.5 c 128,-1,46
 152 660 152 660 134 675.5 c 128,-1,47
 116 691 116 691 92.5 700 c 128,-1,48
 69 709 69 709 43 709 c 0,49,50
 32 709 32 709 25.5 718 c 128,-1,51
 19 727 19 727 19 738 c 256,52,53
 19 749 19 749 27 758.5 c 128,-1,54
 35 768 35 768 53 768 c 0,55,56
 90 768 90 768 124 754.5 c 128,-1,57
 158 741 158 741 183.5 718.5 c 128,-1,58
 209 696 209 696 224 666.5 c 128,-1,59
 239 637 239 637 239 604 c 0,60,61
 239 592 239 592 236 567 c 128,-1,62
 233 542 233 542 229.5 514.5 c 128,-1,63
 226 487 226 487 223 464 c 128,-1,64
 220 441 220 441 220 434 c 0,65,66
 220 421 220 421 229.5 417.5 c 128,-1,67
 239 414 239 414 250 412 c 128,-1,68
 261 410 261 410 270.5 405 c 128,-1,69
 280 400 280 400 280 385 c 0,0,1
EndSplineSet
EndChar
StartChar: asciitilde
Encoding: 126 126 151
Width: 401
Flags: W
LayerCount: 2
Back
Fore
SplineSet
139 250 m 0,0,1
 123 250 123 250 111.5 245 c 128,-1,2
 100 240 100 240 92 234 c 128,-1,3
 84 228 84 228 77.5 223 c 128,-1,4
 71 218 71 218 65 218 c 0,5,6
 55 218 55 218 50.5 226.5 c 128,-1,7
 46 235 46 235 46 243 c 0,8,9
 46 257 46 257 55 267.5 c 128,-1,10
 64 278 64 278 77.5 285.5 c 128,-1,11
 91 293 91 293 106.5 296.5 c 128,-1,12
 122 300 122 300 134 300 c 0,13,14
 153 300 153 300 169 294.5 c 128,-1,15
 185 289 185 289 200 283 c 128,-1,16
 215 277 215 277 230.5 271.5 c 128,-1,17
 246 266 246 266 266 266 c 0,18,19
 283 266 283 266 293.5 270.5 c 128,-1,20
 304 275 304 275 311 280.5 c 128,-1,21
 318 286 318 286 323.5 290.5 c 128,-1,22
 329 295 329 295 336 295 c 0,23,24
 346 295 346 295 351 287 c 128,-1,25
 356 279 356 279 356 272 c 0,26,27
 356 257 356 257 347 246 c 128,-1,28
 338 235 338 235 325 228 c 128,-1,29
 312 221 312 221 297.5 218 c 128,-1,30
 283 215 283 215 272 215 c 0,31,32
 252 215 252 215 236 220.5 c 128,-1,33
 220 226 220 226 205.5 232.5 c 128,-1,34
 191 239 191 239 175 244.5 c 128,-1,35
 159 250 159 250 139 250 c 0,0,1
EndSplineSet
EndChar
StartChar: exclamdown
Encoding: 161 161 215
Width: 204
Flags: W
LayerCount: 2
Back
Fore
SplineSet
64 33 m 0,0,1
 64 157 64 157 70 291.5 c 128,-1,2
 76 426 76 426 76 550 c 0,3,4
 76 562 76 562 84.5 567.5 c 128,-1,5
 93 573 93 573 101 573 c 0,6,7
 111 573 111 573 119.5 567.5 c 128,-1,8
 128 562 128 562 128 550 c 0,9,10
 128 426 128 426 134 291.5 c 128,-1,11
 140 157 140 157 140 33 c 0,12,13
 140 14 140 14 129 4 c 128,-1,14
 118 -6 118 -6 101 -6 c 0,15,16
 85 -6 85 -6 74.5 4 c 128,-1,17
 64 14 64 14 64 33 c 0,0,1
102 651 m 0,18,19
 82 651 82 651 69 664.5 c 128,-1,20
 56 678 56 678 56 698 c 0,21,22
 56 716 56 716 69 730 c 128,-1,23
 82 744 82 744 102 744 c 0,24,25
 121 744 121 744 134 730 c 128,-1,26
 147 716 147 716 147 698 c 0,27,28
 147 678 147 678 134 664.5 c 128,-1,29
 121 651 121 651 102 651 c 0,18,19
EndSplineSet
EndChar
StartChar: cent
Encoding: 162 162 175
Width: 413
Flags: W
LayerCount: 2
Back
Fore
SplineSet
214 694 m 256,0,1
 224 694 224 694 231.5 687.5 c 128,-1,2
 239 681 239 681 239 672 c 2,3,-1
 239 565 l 1,4,5
 267 564 267 564 291.5 558.5 c 128,-1,6
 316 553 316 553 334 544.5 c 128,-1,7
 352 536 352 536 362.5 525 c 128,-1,8
 373 514 373 514 373 502 c 0,9,10
 373 491 373 491 364.5 481 c 128,-1,11
 356 471 356 471 344 471 c 0,12,13
 338 471 338 471 330.5 476.5 c 128,-1,14
 323 482 323 482 311.5 488.5 c 128,-1,15
 300 495 300 495 283 500.5 c 128,-1,16
 266 506 266 506 239 507 c 1,17,-1
 239 228 l 1,18,19
 266 229 266 229 283 234.5 c 128,-1,20
 300 240 300 240 311.5 247 c 128,-1,21
 323 254 323 254 330 259.5 c 128,-1,22
 337 265 337 265 344 265 c 0,23,24
 357 265 357 265 366 255 c 128,-1,25
 375 245 375 245 375 234 c 0,26,27
 375 222 375 222 363.5 210.5 c 128,-1,28
 352 199 352 199 333 190 c 128,-1,29
 314 181 314 181 289.5 175.5 c 128,-1,30
 265 170 265 170 239 169 c 1,31,-1
 239 63 l 2,32,33
 239 54 239 54 231.5 47 c 128,-1,34
 224 40 224 40 214 40 c 256,35,36
 204 40 204 40 197 47 c 128,-1,37
 190 54 190 54 190 63 c 2,38,-1
 190 171 l 1,39,40
 111 182 111 182 73 233.5 c 128,-1,41
 35 285 35 285 35 358 c 2,42,-1
 35 377 l 2,43,44
 35 413 35 413 44 444.5 c 128,-1,45
 53 476 53 476 72 500.5 c 128,-1,46
 91 525 91 525 120.5 541.5 c 128,-1,47
 150 558 150 558 190 564 c 1,48,-1
 190 672 l 2,49,50
 190 681 190 681 197 687.5 c 128,-1,51
 204 694 204 694 214 694 c 256,0,1
95 358 m 2,52,53
 95 306 95 306 118 273 c 128,-1,54
 141 240 141 240 190 230 c 1,55,-1
 190 505 l 1,56,57
 141 494 141 494 118 461 c 128,-1,58
 95 428 95 428 95 377 c 2,59,-1
 95 358 l 2,52,53
EndSplineSet
EndChar
StartChar: sterling
Encoding: 163 163 365
Width: 487
Flags: W
LayerCount: 2
Back
Fore
SplineSet
425 61 m 2,0,1
 436 61 436 61 442 51.5 c 128,-1,2
 448 42 448 42 448 31 c 0,3,4
 448 19 448 19 442 9.5 c 128,-1,5
 436 0 436 0 425 0 c 2,6,-1
 49 0 l 2,7,8
 36 0 36 0 30 9.5 c 128,-1,9
 24 19 24 19 24 31 c 0,10,11
 24 42 24 42 30 51.5 c 128,-1,12
 36 61 36 61 49 61 c 2,13,-1
 108 61 l 1,14,-1
 151 367 l 1,15,-1
 75 367 l 2,16,17
 64 367 64 367 58 374.5 c 128,-1,18
 52 382 52 382 52 393 c 256,19,20
 52 404 52 404 58 412.5 c 128,-1,21
 64 421 64 421 75 421 c 2,22,-1
 159 421 l 1,23,-1
 181 579 l 2,24,25
 187 619 187 619 207 653.5 c 128,-1,26
 227 688 227 688 256.5 713.5 c 128,-1,27
 286 739 286 739 323.5 753.5 c 128,-1,28
 361 768 361 768 401 768 c 2,29,-1
 420 768 l 2,30,31
 434 768 434 768 441 758.5 c 128,-1,32
 448 749 448 749 448 738 c 256,33,34
 448 727 448 727 441 717.5 c 128,-1,35
 434 708 434 708 420 708 c 2,36,-1
 396 708 l 2,37,38
 367 708 367 708 341 697.5 c 128,-1,39
 315 687 315 687 295 669 c 128,-1,40
 275 651 275 651 262 627.5 c 128,-1,41
 249 604 249 604 246 579 c 2,42,-1
 224 421 l 1,43,-1
 373 421 l 2,44,45
 384 421 384 421 389 412.5 c 128,-1,46
 394 404 394 404 394 393 c 0,47,48
 394 383 394 383 389 375 c 128,-1,49
 384 367 384 367 373 367 c 2,50,-1
 216 367 l 1,51,-1
 172 61 l 1,52,-1
 425 61 l 2,0,1
EndSplineSet
EndChar
StartChar: currency
Encoding: 164 164 181
Width: 478
Flags: W
LayerCount: 2
Back
Fore
SplineSet
240 652 m 0,0,1
 271 652 271 652 299 641.5 c 128,-1,2
 327 631 327 631 350 612 c 1,3,-1
 377 639 l 2,4,5
 382 644 382 644 390 644 c 256,6,7
 398 644 398 644 404.5 637.5 c 128,-1,8
 411 631 411 631 411 623 c 0,9,10
 411 616 411 616 405 610 c 2,11,-1
 378 583 l 1,12,13
 397 560 397 560 407.5 532 c 128,-1,14
 418 504 418 504 418 472 c 0,15,16
 418 441 418 441 407 412.5 c 128,-1,17
 396 384 396 384 377 361 c 1,18,-1
 405 333 l 2,19,20
 411 327 411 327 411 321 c 0,21,22
 411 313 411 313 404.5 306.5 c 128,-1,23
 398 300 398 300 390 300 c 256,24,25
 382 300 382 300 378 305 c 2,26,-1
 350 332 l 1,27,28
 327 312 327 312 299 301 c 128,-1,29
 271 290 271 290 240 290 c 0,30,31
 208 290 208 290 179 302 c 128,-1,32
 150 314 150 314 126 335 c 1,33,-1
 95 305 l 2,34,35
 90 300 90 300 83 300 c 0,36,37
 75 300 75 300 68.5 306.5 c 128,-1,38
 62 313 62 313 62 321 c 0,39,40
 62 328 62 328 67 333 c 2,41,-1
 99 365 l 1,42,43
 63 412 63 412 63 472 c 256,44,45
 63 532 63 532 99 579 c 1,46,-1
 73 605 l 2,47,48
 67 609 67 609 67 618 c 0,49,50
 67 626 67 626 74 632.5 c 128,-1,51
 81 639 81 639 89 639 c 0,52,53
 96 639 96 639 101 634 c 2,54,-1
 126 609 l 1,55,56
 149 629 149 629 178.5 640.5 c 128,-1,57
 208 652 208 652 240 652 c 0,0,1
370 472 m 0,58,59
 370 497 370 497 360 520.5 c 128,-1,60
 350 544 350 544 332 562.5 c 128,-1,61
 314 581 314 581 290.5 592 c 128,-1,62
 267 603 267 603 240 603 c 256,63,64
 213 603 213 603 189.5 592 c 128,-1,65
 166 581 166 581 149 562.5 c 128,-1,66
 132 544 132 544 122 520.5 c 128,-1,67
 112 497 112 497 112 472 c 0,68,69
 112 446 112 446 122 422.5 c 128,-1,70
 132 399 132 399 149.5 380 c 128,-1,71
 167 361 167 361 190 350 c 128,-1,72
 213 339 213 339 240 339 c 256,73,74
 267 339 267 339 290.5 350 c 128,-1,75
 314 361 314 361 331.5 380 c 128,-1,76
 349 399 349 399 359.5 422.5 c 128,-1,77
 370 446 370 446 370 472 c 0,58,59
EndSplineSet
EndChar
StartChar: yen
Encoding: 165 165 409
Width: 505
Flags: W
LayerCount: 2
Back
Fore
SplineSet
79 336 m 256,0,1
 79 347 79 347 85.5 355 c 128,-1,2
 92 363 92 363 103 363 c 2,3,-1
 201 363 l 1,4,-1
 27 694 l 2,5,6
 24 698 24 698 24 704 c 0,7,8
 24 715 24 715 35.5 724 c 128,-1,9
 47 733 47 733 61 733 c 0,10,11
 76 733 76 733 85 716 c 2,12,-1
 250 394 l 1,13,-1
 422 716 l 2,14,15
 431 733 431 733 445 733 c 0,16,17
 458 733 458 733 469.5 724 c 128,-1,18
 481 715 481 715 481 704 c 0,19,20
 481 700 481 700 479 694 c 2,21,-1
 297 363 l 1,22,-1
 401 363 l 2,23,24
 411 363 411 363 418.5 355 c 128,-1,25
 426 347 426 347 426 336 c 256,26,27
 426 325 426 325 418.5 317.5 c 128,-1,28
 411 310 411 310 401 310 c 2,29,-1
 282 310 l 1,30,-1
 282 237 l 1,31,-1
 401 237 l 2,32,33
 411 237 411 237 418.5 229 c 128,-1,34
 426 221 426 221 426 210 c 0,35,36
 426 198 426 198 418.5 191 c 128,-1,37
 411 184 411 184 401 184 c 2,38,-1
 282 184 l 1,39,-1
 282 25 l 2,40,41
 282 14 282 14 272.5 7 c 128,-1,42
 263 0 263 0 250 0 c 0,43,44
 236 0 236 0 226.5 7 c 128,-1,45
 217 14 217 14 217 25 c 2,46,-1
 217 184 l 1,47,-1
 103 184 l 2,48,49
 92 184 92 184 85.5 191 c 128,-1,50
 79 198 79 198 79 209 c 0,51,52
 79 221 79 221 85.5 229 c 128,-1,53
 92 237 92 237 103 237 c 2,54,-1
 217 237 l 1,55,-1
 217 310 l 1,56,-1
 103 310 l 2,57,58
 92 310 92 310 85.5 317.5 c 128,-1,59
 79 325 79 325 79 336 c 256,0,1
EndSplineSet
EndChar
StartChar: brokenbar
Encoding: 166 166 164
Width: 203
Flags: W
LayerCount: 2
Back
Fore
SplineSet
101 768 m 256,0,1
 115 768 115 768 124.5 761 c 128,-1,2
 134 754 134 754 134 744 c 2,3,-1
 134 472 l 2,4,5
 134 462 134 462 124.5 454.5 c 128,-1,6
 115 447 115 447 101 447 c 256,7,8
 87 447 87 447 78 454.5 c 128,-1,9
 69 462 69 462 69 472 c 2,10,-1
 69 744 l 2,11,12
 69 754 69 754 78 761 c 128,-1,13
 87 768 87 768 101 768 c 256,0,1
101 300 m 256,14,15
 115 300 115 300 124.5 293 c 128,-1,16
 134 286 134 286 134 276 c 2,17,-1
 134 4 l 2,18,19
 134 -6 134 -6 124.5 -13.5 c 128,-1,20
 115 -21 115 -21 101 -21 c 256,21,22
 87 -21 87 -21 78 -13.5 c 128,-1,23
 69 -6 69 -6 69 4 c 2,24,-1
 69 276 l 2,25,26
 69 286 69 286 78 293 c 128,-1,27
 87 300 87 300 101 300 c 256,14,15
EndSplineSet
EndChar
StartChar: section
Encoding: 167 167 354
Width: 467
Flags: W
LayerCount: 2
Back
Fore
SplineSet
62 540 m 2,0,1
 62 598 62 598 79 635 c 128,-1,2
 96 672 96 672 121.5 693.5 c 128,-1,3
 147 715 147 715 177.5 723 c 128,-1,4
 208 731 208 731 236 731 c 0,5,6
 276 731 276 731 306 718.5 c 128,-1,7
 336 706 336 706 356.5 684.5 c 128,-1,8
 377 663 377 663 387 633.5 c 128,-1,9
 397 604 397 604 397 570 c 0,10,11
 397 552 397 552 388.5 545.5 c 128,-1,12
 380 539 380 539 368 539 c 0,13,14
 338 539 338 539 338 570 c 0,15,16
 338 584 338 584 334 602 c 128,-1,17
 330 620 330 620 319 635.5 c 128,-1,18
 308 651 308 651 288.5 662 c 128,-1,19
 269 673 269 673 238 673 c 0,20,21
 217 673 217 673 197 666.5 c 128,-1,22
 177 660 177 660 161 645.5 c 128,-1,23
 145 631 145 631 135 607 c 128,-1,24
 125 583 125 583 125 548 c 0,25,26
 125 507 125 507 146.5 484.5 c 128,-1,27
 168 462 168 462 200 447.5 c 128,-1,28
 232 433 232 433 270 421 c 128,-1,29
 308 409 308 409 340 389 c 128,-1,30
 372 369 372 369 393.5 335.5 c 128,-1,31
 415 302 415 302 415 245 c 2,32,-1
 415 123 l 2,33,34
 415 71 415 71 400 35 c 128,-1,35
 385 -1 385 -1 359.5 -23.5 c 128,-1,36
 334 -46 334 -46 301 -56.5 c 128,-1,37
 268 -67 268 -67 232 -67 c 0,38,39
 189 -67 189 -67 155 -53.5 c 128,-1,40
 121 -40 121 -40 97.5 -17 c 128,-1,41
 74 6 74 6 61.5 36 c 128,-1,42
 49 66 49 66 49 99 c 0,43,44
 49 116 49 116 57.5 122.5 c 128,-1,45
 66 129 66 129 79 129 c 0,46,47
 96 129 96 129 102.5 122 c 128,-1,48
 109 115 109 115 109 105 c 0,49,50
 109 90 109 90 113.5 70.5 c 128,-1,51
 118 51 118 51 131 33.5 c 128,-1,52
 144 16 144 16 167 4 c 128,-1,53
 190 -8 190 -8 226 -8 c 0,54,55
 286 -8 286 -8 317.5 23.5 c 128,-1,56
 349 55 349 55 349 112 c 0,57,58
 349 153 349 153 327.5 176 c 128,-1,59
 306 199 306 199 274.5 213.5 c 128,-1,60
 243 228 243 228 205.5 239.5 c 128,-1,61
 168 251 168 251 136.5 271 c 128,-1,62
 105 291 105 291 83.5 324.5 c 128,-1,63
 62 358 62 358 62 416 c 2,64,-1
 62 540 l 2,0,1
357 249 m 2,65,66
 357 284 357 284 344.5 306.5 c 128,-1,67
 332 329 332 329 311.5 343.5 c 128,-1,68
 291 358 291 358 265 367.5 c 128,-1,69
 239 377 239 377 213 386 c 128,-1,70
 187 395 187 395 162.5 406.5 c 128,-1,71
 138 418 138 418 121 437 c 1,72,-1
 121 409 l 2,73,74
 121 374 121 374 134 351 c 128,-1,75
 147 328 147 328 167.5 313.5 c 128,-1,76
 188 299 188 299 213.5 289.5 c 128,-1,77
 239 280 239 280 265.5 271 c 128,-1,78
 292 262 292 262 316 250.5 c 128,-1,79
 340 239 340 239 357 220 c 1,80,-1
 357 249 l 2,65,66
EndSplineSet
EndChar
StartChar: dieresis
Encoding: 168 168 188
Width: 196
Flags: W
LayerCount: 2
Back
Fore
SplineSet
37 666 m 0,0,1
 52 666 52 666 62.5 656 c 128,-1,2
 73 646 73 646 73 630 c 0,3,4
 73 615 73 615 62.5 604 c 128,-1,5
 52 593 52 593 37 593 c 0,6,7
 21 593 21 593 10.5 604 c 128,-1,8
 0 615 0 615 0 630 c 0,9,10
 0 646 0 646 10.5 656 c 128,-1,11
 21 666 21 666 37 666 c 0,0,1
160 666 m 256,12,13
 176 666 176 666 186 656 c 128,-1,14
 196 646 196 646 196 630 c 0,15,16
 196 615 196 615 186 604 c 128,-1,17
 176 593 176 593 160 593 c 256,18,19
 144 593 144 593 133.5 604 c 128,-1,20
 123 615 123 615 123 630 c 0,21,22
 123 646 123 646 133.5 656 c 128,-1,23
 144 666 144 666 160 666 c 256,12,13
EndSplineSet
EndChar
StartChar: copyright
Encoding: 169 169 180
Width: 718
Flags: W
LayerCount: 2
Back
Fore
SplineSet
52 358 m 0,0,1
 52 442 52 442 81 503.5 c 128,-1,2
 110 565 110 565 155 605.5 c 128,-1,3
 200 646 200 646 255 665.5 c 128,-1,4
 310 685 310 685 362 685 c 0,5,6
 415 685 415 685 469 665 c 128,-1,7
 523 645 523 645 567 605 c 128,-1,8
 611 565 611 565 638.5 504 c 128,-1,9
 666 443 666 443 666 362 c 0,10,11
 666 278 666 278 637 216.5 c 128,-1,12
 608 155 608 155 563 114.5 c 128,-1,13
 518 74 518 74 463 54.5 c 128,-1,14
 408 35 408 35 356 35 c 0,15,16
 303 35 303 35 249 55 c 128,-1,17
 195 75 195 75 151 115 c 128,-1,18
 107 155 107 155 79.5 216 c 128,-1,19
 52 277 52 277 52 358 c 0,0,1
622 362 m 0,20,21
 622 423 622 423 603.5 474 c 128,-1,22
 585 525 585 525 551 562 c 128,-1,23
 517 599 517 599 469 620 c 128,-1,24
 421 641 421 641 362 641 c 0,25,26
 304 641 304 641 255 620.5 c 128,-1,27
 206 600 206 600 171 562.5 c 128,-1,28
 136 525 136 525 116 473 c 128,-1,29
 96 421 96 421 96 358 c 0,30,31
 96 297 96 297 114.5 246 c 128,-1,32
 133 195 133 195 167 158 c 128,-1,33
 201 121 201 121 249 100 c 128,-1,34
 297 79 297 79 356 79 c 0,35,36
 414 79 414 79 463 99.5 c 128,-1,37
 512 120 512 120 547 157.5 c 128,-1,38
 582 195 582 195 602 247 c 128,-1,39
 622 299 622 299 622 362 c 0,20,21
419 460 m 0,40,41
 419 468 419 468 417 478.5 c 128,-1,42
 415 489 415 489 409 499 c 128,-1,43
 403 509 403 509 392 515.5 c 128,-1,44
 381 522 381 522 362 522 c 0,45,46
 303 522 303 522 303 446 c 2,47,-1
 303 288 l 2,48,49
 303 212 303 212 362 212 c 0,50,51
 381 212 381 212 391.5 218.5 c 128,-1,52
 402 225 402 225 408 234.5 c 128,-1,53
 414 244 414 244 416 255.5 c 128,-1,54
 418 267 418 267 419 276 c 0,55,56
 420 293 420 293 442 293 c 0,57,58
 455 293 455 293 460.5 287.5 c 128,-1,59
 466 282 466 282 466 267 c 0,60,61
 466 225 466 225 437 197 c 128,-1,62
 408 169 408 169 359 169 c 0,63,64
 338 169 338 169 319 175.5 c 128,-1,65
 300 182 300 182 286 196 c 128,-1,66
 272 210 272 210 263.5 232.5 c 128,-1,67
 255 255 255 255 255 288 c 2,68,-1
 255 446 l 2,69,70
 255 511 255 511 286 538 c 128,-1,71
 317 565 317 565 360 565 c 0,72,73
 409 565 409 565 437.5 538 c 128,-1,74
 466 511 466 511 466 470 c 0,75,76
 466 453 466 453 460.5 448 c 128,-1,77
 455 443 455 443 443 443 c 0,78,79
 419 443 419 443 419 460 c 0,40,41
EndSplineSet
EndChar
StartChar: ordfeminine
Encoding: 170 170 309
Width: 314
Flags: W
LayerCount: 2
Back
Fore
SplineSet
144 740 m 0,0,1
 177 740 177 740 200 730 c 128,-1,2
 223 720 223 720 237.5 702.5 c 128,-1,3
 252 685 252 685 258.5 663 c 128,-1,4
 265 641 265 641 265 617 c 2,5,-1
 265 455 l 2,6,7
 265 447 265 447 257.5 441.5 c 128,-1,8
 250 436 250 436 239 436 c 0,9,10
 229 436 229 436 222 441.5 c 128,-1,11
 215 447 215 447 215 455 c 2,12,-1
 215 480 l 1,13,14
 198 460 198 460 174.5 446 c 128,-1,15
 151 432 151 432 118 432 c 0,16,17
 83 432 83 432 58.5 451.5 c 128,-1,18
 34 471 34 471 34 515 c 0,19,20
 34 541 34 541 44.5 558.5 c 128,-1,21
 55 576 55 576 74.5 586 c 128,-1,22
 94 596 94 596 121.5 600 c 128,-1,23
 149 604 149 604 182 604 c 2,24,-1
 213 604 l 1,25,-1
 213 617 l 2,26,27
 213 631 213 631 209 645 c 128,-1,28
 205 659 205 659 197 670.5 c 128,-1,29
 189 682 189 682 175.5 689 c 128,-1,30
 162 696 162 696 143 696 c 0,31,32
 126 696 126 696 115 693 c 128,-1,33
 104 690 104 690 96 686.5 c 128,-1,34
 88 683 88 683 83 680 c 128,-1,35
 78 677 78 677 74 677 c 0,36,37
 64 677 64 677 59 686 c 128,-1,38
 54 695 54 695 54 704 c 0,39,40
 54 711 54 711 62.5 717.5 c 128,-1,41
 71 724 71 724 84 729 c 128,-1,42
 97 734 97 734 113 737 c 128,-1,43
 129 740 129 740 144 740 c 0,0,1
213 571 m 1,44,-1
 185 571 l 2,45,46
 165 571 165 571 147.5 569 c 128,-1,47
 130 567 130 567 116 562 c 128,-1,48
 102 557 102 557 94 546.5 c 128,-1,49
 86 536 86 536 86 520 c 0,50,51
 86 495 86 495 100.5 484 c 128,-1,52
 115 473 115 473 135 473 c 0,53,54
 149 473 149 473 163 479 c 128,-1,55
 177 485 177 485 188 494.5 c 128,-1,56
 199 504 199 504 206 515.5 c 128,-1,57
 213 527 213 527 213 538 c 2,58,-1
 213 571 l 1,44,-1
EndSplineSet
EndChar
StartChar: guillemotleft
Encoding: 171 171 238
Width: 407
Flags: W
LayerCount: 2
Back
Fore
SplineSet
191 117 m 2,0,1
 194 111 194 111 194 106 c 0,2,3
 194 95 194 95 182.5 84.5 c 128,-1,4
 171 74 171 74 156 74 c 256,5,6
 141 74 141 74 134 86 c 2,7,-1
 45 250 l 2,8,9
 40 259 40 259 37.5 264.5 c 128,-1,10
 35 270 35 270 35 277 c 256,11,12
 35 284 35 284 37.5 290.5 c 128,-1,13
 40 297 40 297 45 305 c 2,14,-1
 134 469 l 2,15,16
 140 481 140 481 157 481 c 0,17,18
 172 481 172 481 183 470.5 c 128,-1,19
 194 460 194 460 194 449 c 0,20,21
 194 444 194 444 191 438 c 2,22,-1
 104 277 l 1,23,-1
 191 117 l 2,0,1
363 117 m 2,24,25
 366 111 366 111 366 106 c 0,26,27
 366 95 366 95 354.5 84.5 c 128,-1,28
 343 74 343 74 328 74 c 256,29,30
 313 74 313 74 306 86 c 2,31,-1
 217 250 l 2,32,33
 212 259 212 259 209.5 264.5 c 128,-1,34
 207 270 207 270 207 277 c 256,35,36
 207 284 207 284 209.5 289.5 c 128,-1,37
 212 295 212 295 217 305 c 2,38,-1
 306 469 l 2,39,40
 312 481 312 481 329 481 c 0,41,42
 344 481 344 481 355 470.5 c 128,-1,43
 366 460 366 460 366 449 c 0,44,45
 366 444 366 444 363 438 c 2,46,-1
 276 277 l 1,47,-1
 363 117 l 2,24,25
EndSplineSet
EndChar
StartChar: logicalnot
Encoding: 172 172 271
Width: 485
Flags: W
LayerCount: 2
Back
Fore
SplineSet
51 240 m 0,0,1
 51 253 51 253 58 261.5 c 128,-1,2
 65 270 65 270 76 270 c 2,3,-1
 394 270 l 2,4,5
 403 270 403 270 411 261.5 c 128,-1,6
 419 253 419 253 419 240 c 2,7,-1
 419 88 l 2,8,9
 419 77 419 77 410 70 c 128,-1,10
 401 63 401 63 387 63 c 256,11,12
 373 63 373 63 363.5 70 c 128,-1,13
 354 77 354 77 354 88 c 2,14,-1
 354 212 l 1,15,-1
 76 212 l 2,16,17
 51 212 51 212 51 240 c 0,0,1
EndSplineSet
EndChar
StartChar: registered
Encoding: 174 174 345
Width: 718
Flags: W
LayerCount: 2
Back
Fore
SplineSet
52 358 m 0,0,1
 52 442 52 442 81 503.5 c 128,-1,2
 110 565 110 565 155 605.5 c 128,-1,3
 200 646 200 646 255 665.5 c 128,-1,4
 310 685 310 685 362 685 c 0,5,6
 415 685 415 685 469 665 c 128,-1,7
 523 645 523 645 567 605 c 128,-1,8
 611 565 611 565 638.5 504 c 128,-1,9
 666 443 666 443 666 362 c 0,10,11
 666 278 666 278 637 216.5 c 128,-1,12
 608 155 608 155 563 114.5 c 128,-1,13
 518 74 518 74 463 54.5 c 128,-1,14
 408 35 408 35 356 35 c 0,15,16
 303 35 303 35 249 55 c 128,-1,17
 195 75 195 75 151 115 c 128,-1,18
 107 155 107 155 79.5 216 c 128,-1,19
 52 277 52 277 52 358 c 0,0,1
264 543 m 2,20,21
 264 558 264 558 280 560 c 2,22,-1
 369 560 l 2,23,24
 390 560 390 560 409.5 554.5 c 128,-1,25
 429 549 429 549 443.5 536.5 c 128,-1,26
 458 524 458 524 466.5 503.5 c 128,-1,27
 475 483 475 483 475 453 c 0,28,29
 475 405 475 405 455.5 381 c 128,-1,30
 436 357 436 357 407 349 c 1,31,-1
 473 203 l 2,32,33
 475 197 475 197 475 196 c 0,34,35
 475 186 475 186 466.5 178.5 c 128,-1,36
 458 171 458 171 449 171 c 0,37,38
 442 171 442 171 438 176.5 c 128,-1,39
 434 182 434 182 430 190 c 2,40,-1
 360 343 l 1,41,-1
 310 343 l 1,42,-1
 310 189 l 2,43,44
 310 181 310 181 303.5 176.5 c 128,-1,45
 297 172 297 172 288 172 c 256,46,47
 279 172 279 172 271.5 176.5 c 128,-1,48
 264 181 264 181 264 189 c 2,49,-1
 264 543 l 2,20,21
310 518 m 1,50,-1
 310 382 l 1,51,-1
 369 382 l 2,52,53
 396 382 396 382 412.5 397.5 c 128,-1,54
 429 413 429 413 429 449 c 0,55,56
 429 487 429 487 412.5 502.5 c 128,-1,57
 396 518 396 518 369 518 c 2,58,-1
 310 518 l 1,50,-1
622 362 m 0,59,60
 622 423 622 423 603.5 474 c 128,-1,61
 585 525 585 525 551 562 c 128,-1,62
 517 599 517 599 469 620 c 128,-1,63
 421 641 421 641 362 641 c 0,64,65
 304 641 304 641 255 620.5 c 128,-1,66
 206 600 206 600 171 562.5 c 128,-1,67
 136 525 136 525 116 473 c 128,-1,68
 96 421 96 421 96 358 c 0,69,70
 96 297 96 297 114.5 246 c 128,-1,71
 133 195 133 195 167 158 c 128,-1,72
 201 121 201 121 249 100 c 128,-1,73
 297 79 297 79 356 79 c 0,74,75
 414 79 414 79 463 99.5 c 128,-1,76
 512 120 512 120 547 157.5 c 128,-1,77
 582 195 582 195 602 247 c 128,-1,78
 622 299 622 299 622 362 c 0,59,60
EndSplineSet
EndChar
StartChar: macron
Encoding: 175 175 276
Width: 265
Flags: W
LayerCount: 2
Back
Fore
SplineSet
0 660 m 256,0,1
 0 671 0 671 7 678.5 c 128,-1,2
 14 686 14 686 25 686 c 2,3,-1
 240 686 l 2,4,5
 249 686 249 686 257 678.5 c 128,-1,6
 265 671 265 671 265 660 c 256,7,8
 265 649 265 649 257 642 c 128,-1,9
 249 635 249 635 240 635 c 2,10,-1
 25 635 l 2,11,12
 14 635 14 635 7 642 c 128,-1,13
 0 649 0 649 0 660 c 256,0,1
EndSplineSet
EndChar
StartChar: degree
Encoding: 176 176 187
Width: 419
Flags: W
LayerCount: 2
Back
Fore
SplineSet
209 768 m 256,0,1
 245 768 245 768 277 754 c 128,-1,2
 309 740 309 740 333.5 715.5 c 128,-1,3
 358 691 358 691 372.5 658 c 128,-1,4
 387 625 387 625 387 588 c 0,5,6
 387 552 387 552 372.5 519.5 c 128,-1,7
 358 487 358 487 333.5 461.5 c 128,-1,8
 309 436 309 436 277 421 c 128,-1,9
 245 406 245 406 209 406 c 256,10,11
 173 406 173 406 141 421 c 128,-1,12
 109 436 109 436 85 461 c 128,-1,13
 61 486 61 486 46.5 519 c 128,-1,14
 32 552 32 552 32 588 c 256,15,16
 32 624 32 624 46 656.5 c 128,-1,17
 60 689 60 689 84 714 c 128,-1,18
 108 739 108 739 140.5 753.5 c 128,-1,19
 173 768 173 768 209 768 c 256,0,1
339 588 m 0,20,21
 339 613 339 613 329 636.5 c 128,-1,22
 319 660 319 660 301 678.5 c 128,-1,23
 283 697 283 697 259.5 708 c 128,-1,24
 236 719 236 719 209 719 c 256,25,26
 182 719 182 719 158.5 708 c 128,-1,27
 135 697 135 697 118 678.5 c 128,-1,28
 101 660 101 660 91 636.5 c 128,-1,29
 81 613 81 613 81 588 c 0,30,31
 81 562 81 562 91 538.5 c 128,-1,32
 101 515 101 515 118.5 496 c 128,-1,33
 136 477 136 477 159 466 c 128,-1,34
 182 455 182 455 209 455 c 256,35,36
 236 455 236 455 259.5 466 c 128,-1,37
 283 477 283 477 300.5 496 c 128,-1,38
 318 515 318 515 328.5 538.5 c 128,-1,39
 339 562 339 562 339 588 c 0,20,21
EndSplineSet
EndChar
StartChar: plusminus
Encoding: 177 177 325
Width: 471
Flags: W
LayerCount: 2
Back
Fore
SplineSet
236 171 m 0,0,1
 224 171 224 171 215.5 177.5 c 128,-1,2
 207 184 207 184 207 195 c 2,3,-1
 207 324 l 1,4,-1
 75 324 l 2,5,6
 64 324 64 324 57.5 332 c 128,-1,7
 51 340 51 340 51 353 c 0,8,9
 51 365 51 365 57.5 373.5 c 128,-1,10
 64 382 64 382 75 382 c 2,11,-1
 207 382 l 1,12,-1
 207 510 l 2,13,14
 207 520 207 520 215.5 528 c 128,-1,15
 224 536 224 536 236 536 c 0,16,17
 249 536 249 536 257 528 c 128,-1,18
 265 520 265 520 265 510 c 2,19,-1
 265 382 l 1,20,-1
 395 382 l 2,21,22
 405 382 405 382 413 373.5 c 128,-1,23
 421 365 421 365 421 353 c 0,24,25
 421 340 421 340 413 332 c 128,-1,26
 405 324 405 324 395 324 c 2,27,-1
 265 324 l 1,28,-1
 265 195 l 2,29,30
 265 184 265 184 257 177.5 c 128,-1,31
 249 171 249 171 236 171 c 0,0,1
51 85 m 256,32,33
 51 98 51 98 57.5 106.5 c 128,-1,34
 64 115 64 115 75 115 c 2,35,-1
 395 115 l 2,36,37
 405 115 405 115 413 106.5 c 128,-1,38
 421 98 421 98 421 85 c 256,39,40
 421 72 421 72 413 64.5 c 128,-1,41
 405 57 405 57 395 57 c 2,42,-1
 75 57 l 2,43,44
 64 57 64 57 57.5 64.5 c 128,-1,45
 51 72 51 72 51 85 c 256,32,33
EndSplineSet
EndChar
StartChar: twosuperior
Encoding: 178 178 381
Width: 307
Flags: W
LayerCount: 2
Back
Fore
SplineSet
41 640 m 0,0,1
 41 682 41 682 74 706.5 c 128,-1,2
 107 731 107 731 154 731 c 0,3,4
 179 731 179 731 200.5 723.5 c 128,-1,5
 222 716 222 716 238 702.5 c 128,-1,6
 254 689 254 689 263 670 c 128,-1,7
 272 651 272 651 272 629 c 0,8,9
 272 601 272 601 258 579.5 c 128,-1,10
 244 558 244 558 223.5 540 c 128,-1,11
 203 522 203 522 178.5 507.5 c 128,-1,12
 154 493 154 493 133.5 479 c 128,-1,13
 113 465 113 465 99 451.5 c 128,-1,14
 85 438 85 438 85 423 c 2,15,-1
 85 399 l 1,16,-1
 258 399 l 2,17,18
 266 399 266 399 271 392.5 c 128,-1,19
 276 386 276 386 276 377 c 0,20,21
 276 369 276 369 271 361.5 c 128,-1,22
 266 354 266 354 258 354 c 2,23,-1
 56 354 l 2,24,25
 48 354 48 354 40.5 359 c 128,-1,26
 33 364 33 364 33 372 c 2,27,-1
 33 421 l 2,28,29
 33 442 33 442 47 460 c 128,-1,30
 61 478 61 478 82 494 c 128,-1,31
 103 510 103 510 127.5 525 c 128,-1,32
 152 540 152 540 173 556 c 128,-1,33
 194 572 194 572 208 589.5 c 128,-1,34
 222 607 222 607 222 627 c 0,35,36
 222 648 222 648 205.5 666.5 c 128,-1,37
 189 685 189 685 153 685 c 0,38,39
 127 685 127 685 109 672 c 128,-1,40
 91 659 91 659 91 631 c 0,41,42
 91 624 91 624 84 618.5 c 128,-1,43
 77 613 77 613 65 613 c 0,44,45
 54 613 54 613 47.5 618.5 c 128,-1,46
 41 624 41 624 41 640 c 0,0,1
EndSplineSet
EndChar
StartChar: threesuperior
Encoding: 179 179 376
Width: 313
Flags: W
LayerCount: 2
Back
Fore
SplineSet
152 396 m 0,0,1
 190 396 190 396 208.5 412 c 128,-1,2
 227 428 227 428 227 463 c 2,3,-1
 227 472 l 2,4,5
 227 504 227 504 206.5 517.5 c 128,-1,6
 186 531 186 531 152 531 c 0,7,8
 142 531 142 531 138 537 c 128,-1,9
 134 543 134 543 134 551 c 256,10,11
 134 559 134 559 138 565.5 c 128,-1,12
 142 572 142 572 152 572 c 0,13,14
 181 572 181 572 198.5 583.5 c 128,-1,15
 216 595 216 595 216 630 c 0,16,17
 216 660 216 660 201 673.5 c 128,-1,18
 186 687 186 687 154 687 c 0,19,20
 115 687 115 687 102 672.5 c 128,-1,21
 89 658 89 658 89 642 c 0,22,23
 89 632 89 632 84 626.5 c 128,-1,24
 79 621 79 621 65 621 c 0,25,26
 48 621 48 621 43.5 626 c 128,-1,27
 39 631 39 631 39 645 c 0,28,29
 39 657 39 657 44 672 c 128,-1,30
 49 687 49 687 62 700 c 128,-1,31
 75 713 75 713 97.5 722 c 128,-1,32
 120 731 120 731 155 731 c 0,33,34
 203 731 203 731 234 710.5 c 128,-1,35
 265 690 265 690 265 640 c 0,36,37
 265 607 265 607 252 584.5 c 128,-1,38
 239 562 239 562 219 553 c 1,39,40
 245 544 245 544 261 524.5 c 128,-1,41
 277 505 277 505 277 472 c 2,42,-1
 277 463 l 2,43,44
 277 433 277 433 267 411.5 c 128,-1,45
 257 390 257 390 240 376.5 c 128,-1,46
 223 363 223 363 200.5 357 c 128,-1,47
 178 351 178 351 152 351 c 0,48,49
 120 351 120 351 97 359.5 c 128,-1,50
 74 368 74 368 59 381 c 128,-1,51
 44 394 44 394 36.5 410 c 128,-1,52
 29 426 29 426 29 441 c 0,53,54
 29 454 29 454 34.5 458 c 128,-1,55
 40 462 40 462 53 462 c 0,56,57
 68 462 68 462 73.5 457.5 c 128,-1,58
 79 453 79 453 79 444 c 0,59,60
 79 427 79 427 95.5 411.5 c 128,-1,61
 112 396 112 396 152 396 c 0,0,1
EndSplineSet
EndChar
StartChar: acute
Encoding: 180 180 136
Width: 155
Flags: W
LayerCount: 2
Back
Fore
SplineSet
36 594 m 2,0,1
 31 591 31 591 26 591 c 0,2,3
 15 591 15 591 7.5 599.5 c 128,-1,4
 0 608 0 608 0 619 c 0,5,6
 0 631 0 631 11 637 c 2,7,-1
 123 698 l 2,8,9
 126 701 126 701 131 701 c 0,10,11
 142 701 142 701 148.5 692 c 128,-1,12
 155 683 155 683 155 673 c 0,13,14
 155 657 155 657 143 651 c 2,15,-1
 36 594 l 2,0,1
EndSplineSet
EndChar
StartChar: mu
Encoding: 181 181 278
Width: 491
Flags: W
LayerCount: 2
Back
Fore
SplineSet
261 -7 m 0,0,1
 216 -7 216 -7 182 12.5 c 128,-1,2
 148 32 148 32 131 57 c 1,3,-1
 131 -207 l 2,4,5
 131 -218 131 -218 122.5 -225 c 128,-1,6
 114 -232 114 -232 103 -232 c 0,7,8
 89 -232 89 -232 80 -225 c 128,-1,9
 71 -218 71 -218 71 -207 c 2,10,-1
 71 448 l 2,11,12
 71 457 71 457 80 465 c 128,-1,13
 89 473 89 473 103 473 c 256,14,15
 117 473 117 473 126.5 465 c 128,-1,16
 136 457 136 457 136 448 c 2,17,-1
 136 163 l 2,18,19
 136 147 136 147 146.5 127.5 c 128,-1,20
 157 108 157 108 174.5 91.5 c 128,-1,21
 192 75 192 75 215 64 c 128,-1,22
 238 53 238 53 262 53 c 256,23,24
 286 53 286 53 307.5 64 c 128,-1,25
 329 75 329 75 345.5 93 c 128,-1,26
 362 111 362 111 371.5 134 c 128,-1,27
 381 157 381 157 381 181 c 2,28,-1
 381 448 l 2,29,30
 381 459 381 459 391 466 c 128,-1,31
 401 473 401 473 414 473 c 0,32,33
 428 473 428 473 437 466 c 128,-1,34
 446 459 446 459 446 448 c 2,35,-1
 446 181 l 2,36,37
 446 142 446 142 431.5 108 c 128,-1,38
 417 74 417 74 392.5 48.5 c 128,-1,39
 368 23 368 23 334 8 c 128,-1,40
 300 -7 300 -7 261 -7 c 0,0,1
EndSplineSet
EndChar
StartChar: paragraph
Encoding: 182 182 315
Width: 524
Flags: W
LayerCount: 2
Back
Fore
SplineSet
423 731 m 2,0,1
 433 731 433 731 440.5 725 c 128,-1,2
 448 719 448 719 448 706 c 2,3,-1
 448 25 l 2,4,5
 448 11 448 11 440.5 5.5 c 128,-1,6
 433 0 433 0 423 0 c 256,7,8
 413 0 413 0 405 5.5 c 128,-1,9
 397 11 397 11 397 25 c 2,10,-1
 397 688 l 1,11,-1
 320 688 l 1,12,-1
 320 26 l 2,13,14
 320 13 320 13 312 6.5 c 128,-1,15
 304 0 304 0 294 0 c 0,16,17
 285 0 285 0 277 6.5 c 128,-1,18
 269 13 269 13 269 26 c 2,19,-1
 269 306 l 1,20,-1
 228 306 l 2,21,22
 187 306 187 306 151 317 c 128,-1,23
 115 328 115 328 88.5 353 c 128,-1,24
 62 378 62 378 47 417.5 c 128,-1,25
 32 457 32 457 32 513 c 2,26,-1
 32 525 l 2,27,28
 32 581 32 581 47 620.5 c 128,-1,29
 62 660 62 660 88.5 684.5 c 128,-1,30
 115 709 115 709 151 720 c 128,-1,31
 187 731 187 731 228 731 c 2,32,-1
 423 731 l 2,0,1
EndSplineSet
EndChar
StartChar: periodcentered
Encoding: 183 183 321
Width: 184
Flags: W
LayerCount: 2
Back
Fore
SplineSet
92 345 m 256,0,1
 112 345 112 345 125.5 332 c 128,-1,2
 139 319 139 319 139 300 c 0,3,4
 139 282 139 282 125.5 268.5 c 128,-1,5
 112 255 112 255 92 255 c 256,6,7
 72 255 72 255 58.5 268.5 c 128,-1,8
 45 282 45 282 45 300 c 0,9,10
 45 319 45 319 58.5 332 c 128,-1,11
 72 345 72 345 92 345 c 256,0,1
EndSplineSet
EndChar
StartChar: cedilla
Encoding: 184 184 174
Width: 167
Flags: W
LayerCount: 2
Back
Fore
SplineSet
71 -61 m 1,0,1
 122 -63 122 -63 144.5 -84.5 c 128,-1,2
 167 -106 167 -106 167 -133 c 0,3,4
 167 -147 167 -147 161.5 -160.5 c 128,-1,5
 156 -174 156 -174 145 -185 c 128,-1,6
 134 -196 134 -196 117.5 -203 c 128,-1,7
 101 -210 101 -210 78 -210 c 0,8,9
 68 -210 68 -210 54.5 -208.5 c 128,-1,10
 41 -207 41 -207 29 -204 c 128,-1,11
 17 -201 17 -201 8.5 -196 c 128,-1,12
 0 -191 0 -191 0 -184 c 0,13,14
 0 -179 0 -179 4 -169.5 c 128,-1,15
 8 -160 8 -160 16 -160 c 0,16,17
 22 -160 22 -160 34.5 -167 c 128,-1,18
 47 -174 47 -174 72 -174 c 0,19,20
 101 -174 101 -174 113 -162.5 c 128,-1,21
 125 -151 125 -151 125 -135 c 0,22,23
 125 -115 125 -115 108 -105 c 128,-1,24
 91 -95 91 -95 62 -93 c 2,25,-1
 24 -90 l 1,26,-1
 50 9 l 1,27,-1
 90 9 l 1,28,-1
 71 -61 l 1,0,1
EndSplineSet
EndChar
StartChar: onesuperior
Encoding: 185 185 307
Width: 169
Flags: W
LayerCount: 2
Back
Fore
SplineSet
69 662 m 1,0,-1
 48 637 l 2,1,2
 43 632 43 632 36 632 c 0,3,4
 28 632 28 632 23 638 c 128,-1,5
 18 644 18 644 18 652 c 0,6,7
 18 657 18 657 21 663 c 128,-1,8
 24 669 24 669 28 671 c 2,9,-1
 83 726 l 2,10,11
 89 732 89 732 97 732 c 256,12,13
 105 732 105 732 112 727 c 128,-1,14
 119 722 119 722 119 714 c 2,15,-1
 119 372 l 2,16,17
 119 363 119 363 111.5 358.5 c 128,-1,18
 104 354 104 354 95 354 c 0,19,20
 84 354 84 354 76.5 358.5 c 128,-1,21
 69 363 69 363 69 372 c 2,22,-1
 69 662 l 1,0,-1
EndSplineSet
EndChar
StartChar: ordmasculine
Encoding: 186 186 310
Width: 328
Flags: W
LayerCount: 2
Back
Fore
SplineSet
164 740 m 0,0,1
 189 740 189 740 211.5 730.5 c 128,-1,2
 234 721 234 721 251.5 704.5 c 128,-1,3
 269 688 269 688 279 666 c 128,-1,4
 289 644 289 644 289 619 c 2,5,-1
 289 554 l 2,6,7
 289 530 289 530 279 507.5 c 128,-1,8
 269 485 269 485 251.5 468 c 128,-1,9
 234 451 234 451 211.5 441 c 128,-1,10
 189 431 189 431 164 431 c 256,11,12
 139 431 139 431 116.5 441 c 128,-1,13
 94 451 94 451 76.5 468 c 128,-1,14
 59 485 59 485 49 507.5 c 128,-1,15
 39 530 39 530 39 554 c 2,16,-1
 39 619 l 2,17,18
 39 643 39 643 49 665 c 128,-1,19
 59 687 59 687 76 703.5 c 128,-1,20
 93 720 93 720 115.5 730 c 128,-1,21
 138 740 138 740 164 740 c 0,0,1
237 619 m 2,22,23
 237 647 237 647 216 670 c 128,-1,24
 195 693 195 693 164 693 c 256,25,26
 133 693 133 693 112 670 c 128,-1,27
 91 647 91 647 91 619 c 2,28,-1
 91 554 l 2,29,30
 91 539 91 539 96.5 525.5 c 128,-1,31
 102 512 102 512 112 501.5 c 128,-1,32
 122 491 122 491 135.5 484.5 c 128,-1,33
 149 478 149 478 164 478 c 256,34,35
 179 478 179 478 192.5 484.5 c 128,-1,36
 206 491 206 491 215.5 501.5 c 128,-1,37
 225 512 225 512 231 525.5 c 128,-1,38
 237 539 237 539 237 554 c 2,39,-1
 237 619 l 2,22,23
EndSplineSet
EndChar
StartChar: guillemotright
Encoding: 187 187 239
Width: 408
Flags: W
LayerCount: 2
Back
Fore
SplineSet
303 277 m 1,0,-1
 216 438 l 2,1,2
 213 444 213 444 213 449 c 0,3,4
 213 460 213 460 224 470.5 c 128,-1,5
 235 481 235 481 250 481 c 0,6,7
 267 481 267 481 273 469 c 2,8,-1
 362 305 l 2,9,10
 367 296 367 296 370 290 c 128,-1,11
 373 284 373 284 373 277 c 256,12,13
 373 270 373 270 370 264 c 128,-1,14
 367 258 367 258 362 250 c 2,15,-1
 273 86 l 2,16,17
 268 74 268 74 251 74 c 0,18,19
 237 74 237 74 225 84.5 c 128,-1,20
 213 95 213 95 213 106 c 0,21,22
 213 111 213 111 216 117 c 2,23,-1
 303 277 l 1,0,-1
131 277 m 1,24,-1
 44 438 l 2,25,26
 41 444 41 444 41 449 c 0,27,28
 41 460 41 460 52 470.5 c 128,-1,29
 63 481 63 481 78 481 c 0,30,31
 95 481 95 481 101 469 c 2,32,-1
 190 305 l 2,33,34
 195 296 195 296 198 290 c 128,-1,35
 201 284 201 284 201 277 c 256,36,37
 201 270 201 270 198 264 c 128,-1,38
 195 258 195 258 190 250 c 2,39,-1
 101 86 l 2,40,41
 96 74 96 74 79 74 c 0,42,43
 65 74 65 74 53 84.5 c 128,-1,44
 41 95 41 95 41 106 c 0,45,46
 41 111 41 111 44 117 c 2,47,-1
 131 277 l 1,24,-1
EndSplineSet
EndChar
StartChar: onequarter
Encoding: 188 188 306
Width: 604
Flags: W
LayerCount: 2
Back
Fore
SplineSet
81 662 m 1,0,-1
 60 637 l 2,1,2
 55 632 55 632 48 632 c 0,3,4
 40 632 40 632 35 638 c 128,-1,5
 30 644 30 644 30 652 c 0,6,7
 30 657 30 657 33 663 c 128,-1,8
 36 669 36 669 40 671 c 2,9,-1
 95 726 l 2,10,11
 101 732 101 732 109 732 c 256,12,13
 117 732 117 732 124 727 c 128,-1,14
 131 722 131 722 131 714 c 2,15,-1
 131 372 l 2,16,17
 131 363 131 363 123.5 358.5 c 128,-1,18
 116 354 116 354 107 354 c 0,19,20
 96 354 96 354 88.5 358.5 c 128,-1,21
 81 363 81 363 81 372 c 2,22,-1
 81 662 l 1,0,-1
474 769 m 0,23,24
 484 769 484 769 493 761.5 c 128,-1,25
 502 754 502 754 502 742 c 0,26,27
 502 735 502 735 499 729 c 2,28,-1
 120 -12 l 2,29,30
 112 -27 112 -27 96 -27 c 0,31,32
 85 -27 85 -27 77.5 -19.5 c 128,-1,33
 70 -12 70 -12 70 -2 c 0,34,35
 70 4 70 4 73 10 c 2,36,-1
 454 757 l 2,37,38
 457 764 457 764 462.5 766.5 c 128,-1,39
 468 769 468 769 474 769 c 0,23,24
482 86 m 1,40,-1
 339 86 l 2,41,42
 331 86 331 86 326 91 c 128,-1,43
 321 96 321 96 321 105 c 0,44,45
 321 109 321 109 324 115 c 2,46,-1
 464 362 l 2,47,48
 473 377 473 377 487 377 c 0,49,50
 495 377 495 377 503.5 371.5 c 128,-1,51
 512 366 512 366 512 357 c 0,52,53
 512 353 512 353 510 349 c 2,54,-1
 386 133 l 1,55,-1
 482 133 l 1,56,-1
 482 210 l 2,57,58
 482 218 482 218 489.5 222 c 128,-1,59
 497 226 497 226 507 226 c 256,60,61
 517 226 517 226 524.5 222 c 128,-1,62
 532 218 532 218 532 210 c 2,63,-1
 532 133 l 1,64,-1
 562 133 l 2,65,66
 570 133 570 133 575 125.5 c 128,-1,67
 580 118 580 118 580 109 c 256,68,69
 580 100 580 100 574.5 93 c 128,-1,70
 569 86 569 86 562 86 c 2,71,-1
 532 86 l 1,72,-1
 532 17 l 2,73,74
 532 9 532 9 524.5 4.5 c 128,-1,75
 517 0 517 0 507 0 c 256,76,77
 497 0 497 0 489.5 4.5 c 128,-1,78
 482 9 482 9 482 17 c 2,79,-1
 482 86 l 1,40,-1
EndSplineSet
Ligature2: "'frac' Diagonal Fractions in Latin lookup 9 subtable" one slash four
EndChar
StartChar: onehalf
Encoding: 189 189 304
Width: 619
Flags: W
LayerCount: 2
Back
Fore
SplineSet
352 286 m 0,0,1
 352 328 352 328 385 352.5 c 128,-1,2
 418 377 418 377 465 377 c 0,3,4
 490 377 490 377 511.5 369.5 c 128,-1,5
 533 362 533 362 549 348.5 c 128,-1,6
 565 335 565 335 574 316 c 128,-1,7
 583 297 583 297 583 275 c 0,8,9
 583 247 583 247 569 225.5 c 128,-1,10
 555 204 555 204 534.5 186 c 128,-1,11
 514 168 514 168 489.5 153 c 128,-1,12
 465 138 465 138 444.5 124.5 c 128,-1,13
 424 111 424 111 410 97.5 c 128,-1,14
 396 84 396 84 396 69 c 2,15,-1
 396 45 l 1,16,-1
 569 45 l 2,17,18
 577 45 577 45 582 38.5 c 128,-1,19
 587 32 587 32 587 23 c 256,20,21
 587 14 587 14 582 7 c 128,-1,22
 577 0 577 0 569 0 c 2,23,-1
 367 0 l 2,24,25
 359 0 359 0 351.5 4.5 c 128,-1,26
 344 9 344 9 344 17 c 2,27,-1
 344 67 l 2,28,29
 344 88 344 88 358 106 c 128,-1,30
 372 124 372 124 393 140 c 128,-1,31
 414 156 414 156 438.5 171 c 128,-1,32
 463 186 463 186 484 202 c 128,-1,33
 505 218 505 218 519 235.5 c 128,-1,34
 533 253 533 253 533 273 c 256,35,36
 533 293 533 293 516.5 311.5 c 128,-1,37
 500 330 500 330 464 330 c 0,38,39
 438 330 438 330 420 317.5 c 128,-1,40
 402 305 402 305 402 277 c 0,41,42
 402 270 402 270 395 264 c 128,-1,43
 388 258 388 258 376 258 c 0,44,45
 365 258 365 258 358.5 264 c 128,-1,46
 352 270 352 270 352 286 c 0,0,1
82 662 m 1,47,-1
 61 637 l 2,48,49
 56 632 56 632 49 632 c 0,50,51
 41 632 41 632 36 638 c 128,-1,52
 31 644 31 644 31 652 c 0,53,54
 31 657 31 657 34 663 c 128,-1,55
 37 669 37 669 41 671 c 2,56,-1
 96 726 l 2,57,58
 102 732 102 732 110 732 c 256,59,60
 118 732 118 732 125 727 c 128,-1,61
 132 722 132 722 132 714 c 2,62,-1
 132 372 l 2,63,64
 132 363 132 363 124.5 358.5 c 128,-1,65
 117 354 117 354 108 354 c 0,66,67
 97 354 97 354 89.5 358.5 c 128,-1,68
 82 363 82 363 82 372 c 2,69,-1
 82 662 l 1,47,-1
459 769 m 0,70,71
 469 769 469 769 478 761.5 c 128,-1,72
 487 754 487 754 487 742 c 0,73,74
 487 735 487 735 484 729 c 2,75,-1
 105 -12 l 2,76,77
 97 -27 97 -27 81 -27 c 0,78,79
 70 -27 70 -27 62.5 -19.5 c 128,-1,80
 55 -12 55 -12 55 -2 c 0,81,82
 55 4 55 4 58 10 c 2,83,-1
 439 757 l 2,84,85
 442 764 442 764 447.5 766.5 c 128,-1,86
 453 769 453 769 459 769 c 0,70,71
EndSplineSet
Ligature2: "'frac' Diagonal Fractions in Latin lookup 9 subtable" one slash two
EndChar
StartChar: threequarters
Encoding: 190 190 375
Width: 734
Flags: W
LayerCount: 2
Back
Fore
SplineSet
155 396 m 0,0,1
 193 396 193 396 211.5 412 c 128,-1,2
 230 428 230 428 230 463 c 2,3,-1
 230 472 l 2,4,5
 230 504 230 504 209.5 517.5 c 128,-1,6
 189 531 189 531 155 531 c 0,7,8
 145 531 145 531 141 537 c 128,-1,9
 137 543 137 543 137 551 c 256,10,11
 137 559 137 559 141 565.5 c 128,-1,12
 145 572 145 572 155 572 c 0,13,14
 184 572 184 572 201.5 583.5 c 128,-1,15
 219 595 219 595 219 630 c 0,16,17
 219 660 219 660 204 673.5 c 128,-1,18
 189 687 189 687 157 687 c 0,19,20
 118 687 118 687 105 672.5 c 128,-1,21
 92 658 92 658 92 642 c 0,22,23
 92 632 92 632 87 626.5 c 128,-1,24
 82 621 82 621 68 621 c 0,25,26
 51 621 51 621 46.5 626 c 128,-1,27
 42 631 42 631 42 645 c 0,28,29
 42 657 42 657 47 672 c 128,-1,30
 52 687 52 687 65 700 c 128,-1,31
 78 713 78 713 100.5 722 c 128,-1,32
 123 731 123 731 158 731 c 0,33,34
 206 731 206 731 237 710.5 c 128,-1,35
 268 690 268 690 268 640 c 0,36,37
 268 607 268 607 255 584.5 c 128,-1,38
 242 562 242 562 222 553 c 1,39,40
 248 544 248 544 264 524.5 c 128,-1,41
 280 505 280 505 280 472 c 2,42,-1
 280 463 l 2,43,44
 280 433 280 433 270 411.5 c 128,-1,45
 260 390 260 390 243 376.5 c 128,-1,46
 226 363 226 363 203.5 357 c 128,-1,47
 181 351 181 351 155 351 c 0,48,49
 123 351 123 351 100 359.5 c 128,-1,50
 77 368 77 368 62 381 c 128,-1,51
 47 394 47 394 39.5 410 c 128,-1,52
 32 426 32 426 32 441 c 0,53,54
 32 454 32 454 37.5 458 c 128,-1,55
 43 462 43 462 56 462 c 0,56,57
 71 462 71 462 76.5 457.5 c 128,-1,58
 82 453 82 453 82 444 c 0,59,60
 82 427 82 427 98.5 411.5 c 128,-1,61
 115 396 115 396 155 396 c 0,0,1
613 86 m 1,62,-1
 470 86 l 2,63,64
 462 86 462 86 457 91 c 128,-1,65
 452 96 452 96 452 105 c 0,66,67
 452 109 452 109 455 115 c 2,68,-1
 595 362 l 2,69,70
 604 377 604 377 618 377 c 0,71,72
 626 377 626 377 634.5 371.5 c 128,-1,73
 643 366 643 366 643 357 c 0,74,75
 643 353 643 353 641 349 c 2,76,-1
 517 133 l 1,77,-1
 613 133 l 1,78,-1
 613 210 l 2,79,80
 613 218 613 218 620.5 222 c 128,-1,81
 628 226 628 226 638 226 c 256,82,83
 648 226 648 226 655.5 222 c 128,-1,84
 663 218 663 218 663 210 c 2,85,-1
 663 133 l 1,86,-1
 693 133 l 2,87,88
 701 133 701 133 706 125.5 c 128,-1,89
 711 118 711 118 711 109 c 256,90,91
 711 100 711 100 705.5 93 c 128,-1,92
 700 86 700 86 693 86 c 2,93,-1
 663 86 l 1,94,-1
 663 17 l 2,95,96
 663 9 663 9 655.5 4.5 c 128,-1,97
 648 0 648 0 638 0 c 256,98,99
 628 0 628 0 620.5 4.5 c 128,-1,100
 613 9 613 9 613 17 c 2,101,-1
 613 86 l 1,62,-1
599 769 m 0,102,103
 609 769 609 769 618 761.5 c 128,-1,104
 627 754 627 754 627 742 c 0,105,106
 627 735 627 735 624 729 c 2,107,-1
 245 -12 l 2,108,109
 237 -27 237 -27 221 -27 c 0,110,111
 210 -27 210 -27 202.5 -19.5 c 128,-1,112
 195 -12 195 -12 195 -2 c 0,113,114
 195 4 195 4 198 10 c 2,115,-1
 579 757 l 2,116,117
 582 764 582 764 587.5 766.5 c 128,-1,118
 593 769 593 769 599 769 c 0,102,103
EndSplineSet
Ligature2: "'frac' Diagonal Fractions in Latin lookup 9 subtable" three slash four
EndChar
StartChar: questiondown
Encoding: 191 191 330
Width: 397
Flags: W
LayerCount: 2
Back
Fore
SplineSet
32 172 m 0,0,1
 32 219 32 219 47.5 254 c 128,-1,2
 63 289 63 289 84.5 315.5 c 128,-1,3
 106 342 106 342 128.5 361.5 c 128,-1,4
 151 381 151 381 165 398 c 0,5,6
 190 425 190 425 195 459.5 c 128,-1,7
 200 494 200 494 200 550 c 0,8,9
 200 573 200 573 227 573 c 0,10,11
 239 573 239 573 246.5 567 c 128,-1,12
 254 561 254 561 254 544 c 0,13,14
 254 502 254 502 250.5 473.5 c 128,-1,15
 247 445 247 445 241.5 425.5 c 128,-1,16
 236 406 236 406 228 393 c 128,-1,17
 220 380 220 380 211 370 c 0,18,19
 195 353 195 353 174 335 c 128,-1,20
 153 317 153 317 134 295 c 128,-1,21
 115 273 115 273 102 244.5 c 128,-1,22
 89 216 89 216 89 177 c 0,23,24
 89 117 89 117 123.5 83 c 128,-1,25
 158 49 158 49 224 49 c 0,26,27
 257 49 257 49 277 56.5 c 128,-1,28
 297 64 297 64 310 73.5 c 128,-1,29
 323 83 323 83 331 90.5 c 128,-1,30
 339 98 339 98 349 98 c 0,31,32
 357 98 357 98 365.5 91 c 128,-1,33
 374 84 374 84 374 71 c 0,34,35
 374 59 374 59 362.5 45.5 c 128,-1,36
 351 32 351 32 330.5 20.5 c 128,-1,37
 310 9 310 9 282 1.5 c 128,-1,38
 254 -6 254 -6 221 -6 c 0,39,40
 174 -6 174 -6 138.5 8 c 128,-1,41
 103 22 103 22 79.5 46 c 128,-1,42
 56 70 56 70 44 102.5 c 128,-1,43
 32 135 32 135 32 172 c 0,0,1
227 651 m 256,44,45
 208 651 208 651 194.5 664.5 c 128,-1,46
 181 678 181 678 181 698 c 0,47,48
 181 716 181 716 194 730 c 128,-1,49
 207 744 207 744 227 744 c 256,50,51
 247 744 247 744 260 730 c 128,-1,52
 273 716 273 716 273 698 c 0,53,54
 273 678 273 678 259.5 664.5 c 128,-1,55
 246 651 246 651 227 651 c 256,44,45
EndSplineSet
EndChar
StartChar: Agrave
Encoding: 192 192 8
Width: 540
Flags: W
LayerCount: 2
Back
Fore
SplineSet
59 0 m 0,0,1
 46 0 46 0 33.5 7.5 c 128,-1,2
 21 15 21 15 21 28 c 0,3,4
 21 33 21 33 22 35 c 2,5,-1
 231 714 l 2,6,7
 235 726 235 726 246 731.5 c 128,-1,8
 257 737 257 737 270 737 c 0,9,10
 284 737 284 737 295 731 c 128,-1,11
 306 725 306 725 310 714 c 2,12,-1
 518 35 l 2,13,14
 518 33 518 33 518.5 32 c 128,-1,15
 519 31 519 31 519 29 c 0,16,17
 519 17 519 17 506 8.5 c 128,-1,18
 493 0 493 0 479 0 c 0,19,20
 460 0 460 0 454 17 c 2,21,-1
 408 171 l 1,22,-1
 131 171 l 1,23,-1
 85 17 l 2,24,25
 83 8 83 8 75.5 4 c 128,-1,26
 68 0 68 0 59 0 c 0,0,1
391 228 m 1,27,-1
 270 631 l 1,28,-1
 148 228 l 1,29,-1
 391 228 l 1,27,-1
201 905 m 2,30,31
 188 911 188 911 188 927 c 0,32,33
 188 937 188 937 194.5 946 c 128,-1,34
 201 955 201 955 212 955 c 0,35,36
 216 955 216 955 221 952 c 2,37,-1
 332 891 l 2,38,39
 343 885 343 885 343 873 c 0,40,41
 343 862 343 862 335.5 853.5 c 128,-1,42
 328 845 328 845 317 845 c 0,43,44
 311 845 311 845 307 848 c 2,45,-1
 201 905 l 2,30,31
EndSplineSet
EndChar
StartChar: Aacute
Encoding: 193 193 4
Width: 540
Flags: W
LayerCount: 2
Back
Fore
SplineSet
59 0 m 0,0,1
 46 0 46 0 33.5 7.5 c 128,-1,2
 21 15 21 15 21 28 c 0,3,4
 21 33 21 33 22 35 c 2,5,-1
 231 714 l 2,6,7
 235 726 235 726 246 731.5 c 128,-1,8
 257 737 257 737 270 737 c 0,9,10
 284 737 284 737 295 731 c 128,-1,11
 306 725 306 725 310 714 c 2,12,-1
 518 35 l 2,13,14
 518 33 518 33 518.5 32 c 128,-1,15
 519 31 519 31 519 29 c 0,16,17
 519 17 519 17 506 8.5 c 128,-1,18
 493 0 493 0 479 0 c 0,19,20
 460 0 460 0 454 17 c 2,21,-1
 408 171 l 1,22,-1
 131 171 l 1,23,-1
 85 17 l 2,24,25
 83 8 83 8 75.5 4 c 128,-1,26
 68 0 68 0 59 0 c 0,0,1
391 228 m 1,27,-1
 270 631 l 1,28,-1
 148 228 l 1,29,-1
 391 228 l 1,27,-1
238 848 m 2,30,31
 233 845 233 845 228 845 c 0,32,33
 217 845 217 845 209.5 853.5 c 128,-1,34
 202 862 202 862 202 873 c 0,35,36
 202 885 202 885 213 891 c 2,37,-1
 325 952 l 2,38,39
 328 955 328 955 333 955 c 0,40,41
 344 955 344 955 350.5 946 c 128,-1,42
 357 937 357 937 357 927 c 0,43,44
 357 911 357 911 345 905 c 2,45,-1
 238 848 l 2,30,31
EndSplineSet
EndChar
StartChar: Acircumflex
Encoding: 194 194 6
Width: 540
Flags: W
LayerCount: 2
Back
Fore
SplineSet
59 0 m 0,0,1
 46 0 46 0 33.5 7.5 c 128,-1,2
 21 15 21 15 21 28 c 0,3,4
 21 33 21 33 22 35 c 2,5,-1
 231 714 l 2,6,7
 235 726 235 726 246 731.5 c 128,-1,8
 257 737 257 737 270 737 c 0,9,10
 284 737 284 737 295 731 c 128,-1,11
 306 725 306 725 310 714 c 2,12,-1
 518 35 l 2,13,14
 518 33 518 33 518.5 32 c 128,-1,15
 519 31 519 31 519 29 c 0,16,17
 519 17 519 17 506 8.5 c 128,-1,18
 493 0 493 0 479 0 c 0,19,20
 460 0 460 0 454 17 c 2,21,-1
 408 171 l 1,22,-1
 131 171 l 1,23,-1
 85 17 l 2,24,25
 83 8 83 8 75.5 4 c 128,-1,26
 68 0 68 0 59 0 c 0,0,1
391 228 m 1,27,-1
 270 631 l 1,28,-1
 148 228 l 1,29,-1
 391 228 l 1,27,-1
165 849 m 2,30,31
 163 848 163 848 160.5 847 c 128,-1,32
 158 846 158 846 156 846 c 0,33,34
 148 846 148 846 141.5 853.5 c 128,-1,35
 135 861 135 861 135 872 c 0,36,37
 135 878 135 878 138 884 c 128,-1,38
 141 890 141 890 148 894 c 2,39,-1
 252 950 l 2,40,41
 260 955 260 955 269 955 c 256,42,43
 278 955 278 955 286 950 c 2,44,-1
 390 894 l 2,45,46
 397 891 397 891 400 884.5 c 128,-1,47
 403 878 403 878 403 871 c 0,48,49
 403 861 403 861 397 854 c 128,-1,50
 391 847 391 847 383 847 c 0,51,52
 381 847 381 847 378 848 c 128,-1,53
 375 849 375 849 373 850 c 2,54,-1
 269 905 l 1,55,-1
 165 849 l 2,30,31
EndSplineSet
EndChar
StartChar: Atilde
Encoding: 195 195 12
Width: 540
Flags: W
LayerCount: 2
Back
Fore
SplineSet
59 0 m 0,0,1
 46 0 46 0 33.5 7.5 c 128,-1,2
 21 15 21 15 21 28 c 0,3,4
 21 33 21 33 22 35 c 2,5,-1
 231 714 l 2,6,7
 235 726 235 726 246 731.5 c 128,-1,8
 257 737 257 737 270 737 c 0,9,10
 284 737 284 737 295 731 c 128,-1,11
 306 725 306 725 310 714 c 2,12,-1
 518 35 l 2,13,14
 518 33 518 33 518.5 32 c 128,-1,15
 519 31 519 31 519 29 c 0,16,17
 519 17 519 17 506 8.5 c 128,-1,18
 493 0 493 0 479 0 c 0,19,20
 460 0 460 0 454 17 c 2,21,-1
 408 171 l 1,22,-1
 131 171 l 1,23,-1
 85 17 l 2,24,25
 83 8 83 8 75.5 4 c 128,-1,26
 68 0 68 0 59 0 c 0,0,1
391 228 m 1,27,-1
 270 631 l 1,28,-1
 148 228 l 1,29,-1
 391 228 l 1,27,-1
208 898 m 0,30,31
 192 898 192 898 180.5 893 c 128,-1,32
 169 888 169 888 161 882 c 128,-1,33
 153 876 153 876 146.5 871 c 128,-1,34
 140 866 140 866 134 866 c 0,35,36
 124 866 124 866 119.5 874.5 c 128,-1,37
 115 883 115 883 115 891 c 0,38,39
 115 905 115 905 124 915.5 c 128,-1,40
 133 926 133 926 146.5 933.5 c 128,-1,41
 160 941 160 941 175.5 944.5 c 128,-1,42
 191 948 191 948 203 948 c 0,43,44
 222 948 222 948 238 942.5 c 128,-1,45
 254 937 254 937 269 931 c 128,-1,46
 284 925 284 925 299.5 919.5 c 128,-1,47
 315 914 315 914 335 914 c 0,48,49
 352 914 352 914 362.5 918.5 c 128,-1,50
 373 923 373 923 380 928.5 c 128,-1,51
 387 934 387 934 392.5 938.5 c 128,-1,52
 398 943 398 943 405 943 c 0,53,54
 415 943 415 943 420 935 c 128,-1,55
 425 927 425 927 425 920 c 0,56,57
 425 905 425 905 416 894 c 128,-1,58
 407 883 407 883 394 876 c 128,-1,59
 381 869 381 869 366.5 866 c 128,-1,60
 352 863 352 863 341 863 c 0,61,62
 321 863 321 863 305 868.5 c 128,-1,63
 289 874 289 874 274.5 880.5 c 128,-1,64
 260 887 260 887 244 892.5 c 128,-1,65
 228 898 228 898 208 898 c 0,30,31
EndSplineSet
EndChar
StartChar: Adieresis
Encoding: 196 196 7
Width: 540
Flags: W
LayerCount: 2
Back
Fore
SplineSet
59 0 m 0,0,1
 46 0 46 0 33.5 7.5 c 128,-1,2
 21 15 21 15 21 28 c 0,3,4
 21 33 21 33 22 35 c 2,5,-1
 231 714 l 2,6,7
 235 726 235 726 246 731.5 c 128,-1,8
 257 737 257 737 270 737 c 0,9,10
 284 737 284 737 295 731 c 128,-1,11
 306 725 306 725 310 714 c 2,12,-1
 518 35 l 2,13,14
 518 33 518 33 518.5 32 c 128,-1,15
 519 31 519 31 519 29 c 0,16,17
 519 17 519 17 506 8.5 c 128,-1,18
 493 0 493 0 479 0 c 0,19,20
 460 0 460 0 454 17 c 2,21,-1
 408 171 l 1,22,-1
 131 171 l 1,23,-1
 85 17 l 2,24,25
 83 8 83 8 75.5 4 c 128,-1,26
 68 0 68 0 59 0 c 0,0,1
391 228 m 1,27,-1
 270 631 l 1,28,-1
 148 228 l 1,29,-1
 391 228 l 1,27,-1
209 920 m 0,30,31
 224 920 224 920 234.5 910 c 128,-1,32
 245 900 245 900 245 884 c 0,33,34
 245 869 245 869 234.5 858 c 128,-1,35
 224 847 224 847 209 847 c 0,36,37
 193 847 193 847 182.5 858 c 128,-1,38
 172 869 172 869 172 884 c 0,39,40
 172 900 172 900 182.5 910 c 128,-1,41
 193 920 193 920 209 920 c 0,30,31
332 920 m 256,42,43
 348 920 348 920 358 910 c 128,-1,44
 368 900 368 900 368 884 c 0,45,46
 368 869 368 869 358 858 c 128,-1,47
 348 847 348 847 332 847 c 256,48,49
 316 847 316 847 305.5 858 c 128,-1,50
 295 869 295 869 295 884 c 0,51,52
 295 900 295 900 305.5 910 c 128,-1,53
 316 920 316 920 332 920 c 256,42,43
EndSplineSet
EndChar
StartChar: Aring
Encoding: 197 197 11
Width: 540
Flags: W
LayerCount: 2
Back
Fore
SplineSet
59 0 m 0,0,1
 46 0 46 0 33.5 7.5 c 128,-1,2
 21 15 21 15 21 28 c 0,3,4
 21 33 21 33 22 35 c 2,5,-1
 231 714 l 2,6,7
 235 726 235 726 246 731.5 c 128,-1,8
 257 737 257 737 270 737 c 0,9,10
 284 737 284 737 295 731 c 128,-1,11
 306 725 306 725 310 714 c 2,12,-1
 518 35 l 2,13,14
 518 33 518 33 518.5 32 c 128,-1,15
 519 31 519 31 519 29 c 0,16,17
 519 17 519 17 506 8.5 c 128,-1,18
 493 0 493 0 479 0 c 0,19,20
 460 0 460 0 454 17 c 2,21,-1
 408 171 l 1,22,-1
 131 171 l 1,23,-1
 85 17 l 2,24,25
 83 8 83 8 75.5 4 c 128,-1,26
 68 0 68 0 59 0 c 0,0,1
391 228 m 1,27,-1
 270 631 l 1,28,-1
 148 228 l 1,29,-1
 391 228 l 1,27,-1
269 1022 m 0,30,31
 287 1022 287 1022 304 1014.5 c 128,-1,32
 321 1007 321 1007 334 994 c 128,-1,33
 347 981 347 981 354.5 964 c 128,-1,34
 362 947 362 947 362 929 c 0,35,36
 362 910 362 910 354.5 893 c 128,-1,37
 347 876 347 876 334 862.5 c 128,-1,38
 321 849 321 849 304 841 c 128,-1,39
 287 833 287 833 269 833 c 0,40,41
 250 833 250 833 233.5 841 c 128,-1,42
 217 849 217 849 204.5 862.5 c 128,-1,43
 192 876 192 876 184.5 893 c 128,-1,44
 177 910 177 910 177 929 c 0,45,46
 177 947 177 947 184 964 c 128,-1,47
 191 981 191 981 203.5 993.5 c 128,-1,48
 216 1006 216 1006 232.5 1014 c 128,-1,49
 249 1022 249 1022 269 1022 c 0,30,31
328 929 m 0,50,51
 328 950 328 950 310.5 968.5 c 128,-1,52
 293 987 293 987 270 987 c 0,53,54
 244 987 244 987 227 968.5 c 128,-1,55
 210 950 210 950 210 929 c 0,56,57
 210 905 210 905 227.5 885.5 c 128,-1,58
 245 866 245 866 270 866 c 0,59,60
 293 866 293 866 310.5 885.5 c 128,-1,61
 328 905 328 905 328 929 c 0,50,51
EndSplineSet
EndChar
StartChar: AE
Encoding: 198 198 2
Width: 715
Flags: W
LayerCount: 2
Back
Fore
SplineSet
432 395 m 1,0,-1
 579 395 l 2,1,2
 591 395 591 395 597.5 386 c 128,-1,3
 604 377 604 377 604 365 c 0,4,5
 604 355 604 355 598.5 346.5 c 128,-1,6
 593 338 593 338 579 338 c 2,7,-1
 432 338 l 1,8,-1
 432 61 l 1,9,-1
 667 61 l 2,10,11
 678 61 678 61 684.5 51.5 c 128,-1,12
 691 42 691 42 691 30 c 0,13,14
 691 19 691 19 685.5 9.5 c 128,-1,15
 680 0 680 0 667 0 c 2,16,-1
 397 0 l 2,17,18
 386 0 386 0 376 6.5 c 128,-1,19
 366 13 366 13 366 26 c 2,20,-1
 366 338 l 1,21,-1
 137 338 l 1,22,-1
 137 31 l 2,23,24
 137 17 137 17 131.5 8.5 c 128,-1,25
 126 0 126 0 104 0 c 0,26,27
 87 0 87 0 80 8.5 c 128,-1,28
 73 17 73 17 73 31 c 2,29,-1
 73 518 l 2,30,31
 73 576 73 576 89 616.5 c 128,-1,32
 105 657 105 657 133 682.5 c 128,-1,33
 161 708 161 708 198.5 719.5 c 128,-1,34
 236 731 236 731 279 731 c 2,35,-1
 667 731 l 2,36,37
 680 731 680 731 685.5 722 c 128,-1,38
 691 713 691 713 691 702 c 0,39,40
 691 689 691 689 684.5 679.5 c 128,-1,41
 678 670 678 670 667 670 c 2,42,-1
 432 670 l 1,43,-1
 432 395 l 1,0,-1
137 395 m 1,44,-1
 366 395 l 1,45,-1
 366 670 l 1,46,-1
 279 670 l 2,47,48
 212 670 212 670 174.5 633 c 128,-1,49
 137 596 137 596 137 518 c 2,50,-1
 137 395 l 1,44,-1
EndSplineSet
EndChar
StartChar: Ccedilla
Encoding: 199 199 18
Width: 523
Flags: W
LayerCount: 2
Back
Fore
SplineSet
418 549 m 0,0,1
 417 565 417 565 412 586 c 128,-1,2
 407 607 407 607 392 625.5 c 128,-1,3
 377 644 377 644 350 657 c 128,-1,4
 323 670 323 670 278 670 c 0,5,6
 208 670 208 670 171 633 c 128,-1,7
 134 596 134 596 134 518 c 2,8,-1
 134 208 l 2,9,10
 134 129 134 129 171.5 92 c 128,-1,11
 209 55 209 55 282 55 c 0,12,13
 327 55 327 55 353 67.5 c 128,-1,14
 379 80 379 80 392.5 98.5 c 128,-1,15
 406 117 406 117 411 138.5 c 128,-1,16
 416 160 416 160 418 178 c 0,17,18
 421 204 421 204 451 204 c 0,19,20
 468 204 468 204 476 196 c 128,-1,21
 484 188 484 188 484 163 c 0,22,23
 484 132 484 132 472.5 104 c 128,-1,24
 461 76 461 76 439 53.5 c 128,-1,25
 417 31 417 31 384.5 16 c 128,-1,26
 352 1 352 1 311 -3 c 1,27,-1
 296 -61 l 1,28,29
 347 -63 347 -63 369.5 -84.5 c 128,-1,30
 392 -106 392 -106 392 -133 c 0,31,32
 392 -147 392 -147 386.5 -160.5 c 128,-1,33
 381 -174 381 -174 370 -185 c 128,-1,34
 359 -196 359 -196 342.5 -203 c 128,-1,35
 326 -210 326 -210 303 -210 c 0,36,37
 293 -210 293 -210 279.5 -208.5 c 128,-1,38
 266 -207 266 -207 254 -204 c 128,-1,39
 242 -201 242 -201 233.5 -196 c 128,-1,40
 225 -191 225 -191 225 -184 c 0,41,42
 225 -179 225 -179 229 -169.5 c 128,-1,43
 233 -160 233 -160 241 -160 c 0,44,45
 247 -160 247 -160 259.5 -167 c 128,-1,46
 272 -174 272 -174 297 -174 c 0,47,48
 326 -174 326 -174 338 -162.5 c 128,-1,49
 350 -151 350 -151 350 -135 c 0,50,51
 350 -115 350 -115 333 -105 c 128,-1,52
 316 -95 316 -95 287 -93 c 2,53,-1
 249 -90 l 1,54,-1
 271 -6 l 1,55,56
 229 -5 229 -5 192.5 6.5 c 128,-1,57
 156 18 156 18 128 43.5 c 128,-1,58
 100 69 100 69 84 109.5 c 128,-1,59
 68 150 68 150 68 208 c 2,60,-1
 68 518 l 2,61,62
 68 576 68 576 85 616.5 c 128,-1,63
 102 657 102 657 130.5 682.5 c 128,-1,64
 159 708 159 708 197 719.5 c 128,-1,65
 235 731 235 731 278 731 c 0,66,67
 327 731 327 731 365.5 717.5 c 128,-1,68
 404 704 404 704 430 681 c 128,-1,69
 456 658 456 658 470 628 c 128,-1,70
 484 598 484 598 484 564 c 0,71,72
 484 539 484 539 476 531.5 c 128,-1,73
 468 524 468 524 451 524 c 256,74,75
 434 524 434 524 426.5 531 c 128,-1,76
 419 538 419 538 418 549 c 0,0,1
EndSplineSet
EndChar
StartChar: Egrave
Encoding: 200 200 32
Width: 508
Flags: W
LayerCount: 2
Back
Fore
SplineSet
142 395 m 1,0,-1
 299 395 l 2,1,2
 311 395 311 395 317.5 386 c 128,-1,3
 324 377 324 377 324 365 c 0,4,5
 324 355 324 355 318.5 346.5 c 128,-1,6
 313 338 313 338 299 338 c 2,7,-1
 142 338 l 1,8,-1
 142 61 l 1,9,-1
 462 61 l 2,10,11
 474 61 474 61 480.5 51.5 c 128,-1,12
 487 42 487 42 487 30 c 0,13,14
 487 19 487 19 481.5 9.5 c 128,-1,15
 476 0 476 0 462 0 c 2,16,-1
 106 0 l 2,17,18
 95 0 95 0 85.5 6.5 c 128,-1,19
 76 13 76 13 76 26 c 2,20,-1
 76 706 l 2,21,22
 76 719 76 719 85.5 725 c 128,-1,23
 95 731 95 731 106 731 c 2,24,-1
 462 731 l 2,25,26
 476 731 476 731 481.5 722 c 128,-1,27
 487 713 487 713 487 702 c 0,28,29
 487 689 487 689 480.5 679.5 c 128,-1,30
 474 670 474 670 462 670 c 2,31,-1
 142 670 l 1,32,-1
 142 395 l 1,0,-1
215 905 m 2,33,34
 202 911 202 911 202 927 c 0,35,36
 202 937 202 937 208.5 946 c 128,-1,37
 215 955 215 955 226 955 c 0,38,39
 230 955 230 955 235 952 c 2,40,-1
 346 891 l 2,41,42
 357 885 357 885 357 873 c 0,43,44
 357 862 357 862 349.5 853.5 c 128,-1,45
 342 845 342 845 331 845 c 0,46,47
 325 845 325 845 321 848 c 2,48,-1
 215 905 l 2,33,34
EndSplineSet
EndChar
StartChar: Eacute
Encoding: 201 201 26
Width: 508
Flags: W
LayerCount: 2
Back
Fore
SplineSet
246 848 m 2,0,1
 241 845 241 845 236 845 c 0,2,3
 225 845 225 845 217.5 853.5 c 128,-1,4
 210 862 210 862 210 873 c 0,5,6
 210 885 210 885 221 891 c 2,7,-1
 333 952 l 2,8,9
 336 955 336 955 341 955 c 0,10,11
 352 955 352 955 358.5 946 c 128,-1,12
 365 937 365 937 365 927 c 0,13,14
 365 911 365 911 353 905 c 2,15,-1
 246 848 l 2,0,1
142 395 m 1,16,-1
 299 395 l 2,17,18
 311 395 311 395 317.5 386 c 128,-1,19
 324 377 324 377 324 365 c 0,20,21
 324 355 324 355 318.5 346.5 c 128,-1,22
 313 338 313 338 299 338 c 2,23,-1
 142 338 l 1,24,-1
 142 61 l 1,25,-1
 462 61 l 2,26,27
 474 61 474 61 480.5 51.5 c 128,-1,28
 487 42 487 42 487 30 c 0,29,30
 487 19 487 19 481.5 9.5 c 128,-1,31
 476 0 476 0 462 0 c 2,32,-1
 106 0 l 2,33,34
 95 0 95 0 85.5 6.5 c 128,-1,35
 76 13 76 13 76 26 c 2,36,-1
 76 706 l 2,37,38
 76 719 76 719 85.5 725 c 128,-1,39
 95 731 95 731 106 731 c 2,40,-1
 462 731 l 2,41,42
 476 731 476 731 481.5 722 c 128,-1,43
 487 713 487 713 487 702 c 0,44,45
 487 689 487 689 480.5 679.5 c 128,-1,46
 474 670 474 670 462 670 c 2,47,-1
 142 670 l 1,48,-1
 142 395 l 1,16,-1
EndSplineSet
EndChar
StartChar: Ecircumflex
Encoding: 202 202 29
Width: 508
Flags: W
LayerCount: 2
Back
Fore
SplineSet
179 849 m 2,0,1
 177 848 177 848 174.5 847 c 128,-1,2
 172 846 172 846 170 846 c 0,3,4
 162 846 162 846 155.5 853.5 c 128,-1,5
 149 861 149 861 149 872 c 0,6,7
 149 878 149 878 152 884 c 128,-1,8
 155 890 155 890 162 894 c 2,9,-1
 266 950 l 2,10,11
 274 955 274 955 283 955 c 256,12,13
 292 955 292 955 300 950 c 2,14,-1
 404 894 l 2,15,16
 411 891 411 891 414 884.5 c 128,-1,17
 417 878 417 878 417 871 c 0,18,19
 417 861 417 861 411 854 c 128,-1,20
 405 847 405 847 397 847 c 0,21,22
 395 847 395 847 392 848 c 128,-1,23
 389 849 389 849 387 850 c 2,24,-1
 283 905 l 1,25,-1
 179 849 l 2,0,1
142 395 m 1,26,-1
 299 395 l 2,27,28
 311 395 311 395 317.5 386 c 128,-1,29
 324 377 324 377 324 365 c 0,30,31
 324 355 324 355 318.5 346.5 c 128,-1,32
 313 338 313 338 299 338 c 2,33,-1
 142 338 l 1,34,-1
 142 61 l 1,35,-1
 462 61 l 2,36,37
 474 61 474 61 480.5 51.5 c 128,-1,38
 487 42 487 42 487 30 c 0,39,40
 487 19 487 19 481.5 9.5 c 128,-1,41
 476 0 476 0 462 0 c 2,42,-1
 106 0 l 2,43,44
 95 0 95 0 85.5 6.5 c 128,-1,45
 76 13 76 13 76 26 c 2,46,-1
 76 706 l 2,47,48
 76 719 76 719 85.5 725 c 128,-1,49
 95 731 95 731 106 731 c 2,50,-1
 462 731 l 2,51,52
 476 731 476 731 481.5 722 c 128,-1,53
 487 713 487 713 487 702 c 0,54,55
 487 689 487 689 480.5 679.5 c 128,-1,56
 474 670 474 670 462 670 c 2,57,-1
 142 670 l 1,58,-1
 142 395 l 1,26,-1
EndSplineSet
EndChar
StartChar: Edieresis
Encoding: 203 203 30
Width: 508
Flags: W
LayerCount: 2
Back
Fore
SplineSet
221 920 m 0,0,1
 236 920 236 920 246.5 910 c 128,-1,2
 257 900 257 900 257 884 c 0,3,4
 257 869 257 869 246.5 858 c 128,-1,5
 236 847 236 847 221 847 c 0,6,7
 205 847 205 847 194.5 858 c 128,-1,8
 184 869 184 869 184 884 c 0,9,10
 184 900 184 900 194.5 910 c 128,-1,11
 205 920 205 920 221 920 c 0,0,1
344 920 m 256,12,13
 360 920 360 920 370 910 c 128,-1,14
 380 900 380 900 380 884 c 0,15,16
 380 869 380 869 370 858 c 128,-1,17
 360 847 360 847 344 847 c 256,18,19
 328 847 328 847 317.5 858 c 128,-1,20
 307 869 307 869 307 884 c 0,21,22
 307 900 307 900 317.5 910 c 128,-1,23
 328 920 328 920 344 920 c 256,12,13
142 395 m 1,24,-1
 299 395 l 2,25,26
 311 395 311 395 317.5 386 c 128,-1,27
 324 377 324 377 324 365 c 0,28,29
 324 355 324 355 318.5 346.5 c 128,-1,30
 313 338 313 338 299 338 c 2,31,-1
 142 338 l 1,32,-1
 142 61 l 1,33,-1
 462 61 l 2,34,35
 474 61 474 61 480.5 51.5 c 128,-1,36
 487 42 487 42 487 30 c 0,37,38
 487 19 487 19 481.5 9.5 c 128,-1,39
 476 0 476 0 462 0 c 2,40,-1
 106 0 l 2,41,42
 95 0 95 0 85.5 6.5 c 128,-1,43
 76 13 76 13 76 26 c 2,44,-1
 76 706 l 2,45,46
 76 719 76 719 85.5 725 c 128,-1,47
 95 731 95 731 106 731 c 2,48,-1
 462 731 l 2,49,50
 476 731 476 731 481.5 722 c 128,-1,51
 487 713 487 713 487 702 c 0,52,53
 487 689 487 689 480.5 679.5 c 128,-1,54
 474 670 474 670 462 670 c 2,55,-1
 142 670 l 1,56,-1
 142 395 l 1,24,-1
EndSplineSet
EndChar
StartChar: Igrave
Encoding: 204 204 54
Width: 218
Flags: W
LayerCount: 2
Back
Fore
SplineSet
76 707 m 2,0,1
 76 720 76 720 86 725.5 c 128,-1,2
 96 731 96 731 109 731 c 0,3,4
 121 731 121 731 131.5 725.5 c 128,-1,5
 142 720 142 720 142 707 c 2,6,-1
 142 26 l 2,7,8
 142 13 142 13 131.5 6.5 c 128,-1,9
 121 0 121 0 109 0 c 0,10,11
 96 0 96 0 86 6.5 c 128,-1,12
 76 13 76 13 76 26 c 2,13,-1
 76 707 l 2,0,1
42 905 m 2,14,15
 29 911 29 911 29 927 c 0,16,17
 29 937 29 937 35.5 946 c 128,-1,18
 42 955 42 955 53 955 c 0,19,20
 57 955 57 955 62 952 c 2,21,-1
 173 891 l 2,22,23
 184 885 184 885 184 873 c 0,24,25
 184 862 184 862 176.5 853.5 c 128,-1,26
 169 845 169 845 158 845 c 0,27,28
 152 845 152 845 148 848 c 2,29,-1
 42 905 l 2,14,15
EndSplineSet
EndChar
StartChar: Iacute
Encoding: 205 205 49
Width: 218
Flags: W
LayerCount: 2
Back
Fore
SplineSet
76 707 m 2,0,1
 76 720 76 720 86 725.5 c 128,-1,2
 96 731 96 731 109 731 c 0,3,4
 121 731 121 731 131.5 725.5 c 128,-1,5
 142 720 142 720 142 707 c 2,6,-1
 142 26 l 2,7,8
 142 13 142 13 131.5 6.5 c 128,-1,9
 121 0 121 0 109 0 c 0,10,11
 96 0 96 0 86 6.5 c 128,-1,12
 76 13 76 13 76 26 c 2,13,-1
 76 707 l 2,0,1
69 848 m 2,14,15
 64 845 64 845 59 845 c 0,16,17
 48 845 48 845 40.5 853.5 c 128,-1,18
 33 862 33 862 33 873 c 0,19,20
 33 885 33 885 44 891 c 2,21,-1
 156 952 l 2,22,23
 159 955 159 955 164 955 c 0,24,25
 175 955 175 955 181.5 946 c 128,-1,26
 188 937 188 937 188 927 c 0,27,28
 188 911 188 911 176 905 c 2,29,-1
 69 848 l 2,14,15
EndSplineSet
EndChar
StartChar: Icircumflex
Encoding: 206 206 51
Width: 218
Flags: W
LayerCount: 2
Back
Fore
SplineSet
76 707 m 2,0,1
 76 720 76 720 86 725.5 c 128,-1,2
 96 731 96 731 109 731 c 0,3,4
 121 731 121 731 131.5 725.5 c 128,-1,5
 142 720 142 720 142 707 c 2,6,-1
 142 26 l 2,7,8
 142 13 142 13 131.5 6.5 c 128,-1,9
 121 0 121 0 109 0 c 0,10,11
 96 0 96 0 86 6.5 c 128,-1,12
 76 13 76 13 76 26 c 2,13,-1
 76 707 l 2,0,1
5 849 m 2,14,15
 3 848 3 848 0.5 847 c 128,-1,16
 -2 846 -2 846 -4 846 c 0,17,18
 -12 846 -12 846 -18.5 853.5 c 128,-1,19
 -25 861 -25 861 -25 872 c 0,20,21
 -25 878 -25 878 -22 884 c 128,-1,22
 -19 890 -19 890 -12 894 c 2,23,-1
 92 950 l 2,24,25
 100 955 100 955 109 955 c 256,26,27
 118 955 118 955 126 950 c 2,28,-1
 230 894 l 2,29,30
 237 891 237 891 240 884.5 c 128,-1,31
 243 878 243 878 243 871 c 0,32,33
 243 861 243 861 237 854 c 128,-1,34
 231 847 231 847 223 847 c 0,35,36
 221 847 221 847 218 848 c 128,-1,37
 215 849 215 849 213 850 c 2,38,-1
 109 905 l 1,39,-1
 5 849 l 2,14,15
EndSplineSet
EndChar
StartChar: Idieresis
Encoding: 207 207 52
Width: 218
Flags: W
LayerCount: 2
Back
Fore
SplineSet
76 707 m 2,0,1
 76 720 76 720 86 725.5 c 128,-1,2
 96 731 96 731 109 731 c 0,3,4
 121 731 121 731 131.5 725.5 c 128,-1,5
 142 720 142 720 142 707 c 2,6,-1
 142 26 l 2,7,8
 142 13 142 13 131.5 6.5 c 128,-1,9
 121 0 121 0 109 0 c 0,10,11
 96 0 96 0 86 6.5 c 128,-1,12
 76 13 76 13 76 26 c 2,13,-1
 76 707 l 2,0,1
48 920 m 0,14,15
 63 920 63 920 73.5 910 c 128,-1,16
 84 900 84 900 84 884 c 0,17,18
 84 869 84 869 73.5 858 c 128,-1,19
 63 847 63 847 48 847 c 0,20,21
 32 847 32 847 21.5 858 c 128,-1,22
 11 869 11 869 11 884 c 0,23,24
 11 900 11 900 21.5 910 c 128,-1,25
 32 920 32 920 48 920 c 0,14,15
171 920 m 256,26,27
 187 920 187 920 197 910 c 128,-1,28
 207 900 207 900 207 884 c 0,29,30
 207 869 207 869 197 858 c 128,-1,31
 187 847 187 847 171 847 c 256,32,33
 155 847 155 847 144.5 858 c 128,-1,34
 134 869 134 869 134 884 c 0,35,36
 134 900 134 900 144.5 910 c 128,-1,37
 155 920 155 920 171 920 c 256,26,27
EndSplineSet
EndChar
StartChar: Eth
Encoding: 208 208 36
Width: 569
Flags: W
LayerCount: 2
Back
Fore
SplineSet
292 731 m 2,0,1
 336 731 336 731 374 719.5 c 128,-1,2
 412 708 412 708 440.5 682.5 c 128,-1,3
 469 657 469 657 485 616.5 c 128,-1,4
 501 576 501 576 501 518 c 2,5,-1
 501 214 l 2,6,7
 501 155 501 155 485 114.5 c 128,-1,8
 469 74 469 74 440.5 48.5 c 128,-1,9
 412 23 412 23 374 11.5 c 128,-1,10
 336 0 336 0 292 0 c 2,11,-1
 115 0 l 2,12,13
 101 0 101 0 93 7.5 c 128,-1,14
 85 15 85 15 85 25 c 2,15,-1
 85 357 l 1,16,-1
 22 357 l 2,17,18
 11 357 11 357 5 365 c 128,-1,19
 -1 373 -1 373 -1 384 c 256,20,21
 -1 395 -1 395 5 403 c 128,-1,22
 11 411 11 411 22 411 c 2,23,-1
 85 411 l 1,24,-1
 85 707 l 2,25,26
 85 717 85 717 93 724 c 128,-1,27
 101 731 101 731 115 731 c 2,28,-1
 292 731 l 2,0,1
151 670 m 1,29,-1
 151 411 l 1,30,-1
 264 411 l 2,31,32
 274 411 274 411 280.5 403 c 128,-1,33
 287 395 287 395 287 384 c 256,34,35
 287 373 287 373 280.5 365 c 128,-1,36
 274 357 274 357 264 357 c 2,37,-1
 151 357 l 1,38,-1
 151 61 l 1,39,-1
 292 61 l 2,40,41
 359 61 359 61 397 98.5 c 128,-1,42
 435 136 435 136 435 214 c 2,43,-1
 435 518 l 2,44,45
 435 596 435 596 397 633 c 128,-1,46
 359 670 359 670 292 670 c 2,47,-1
 151 670 l 1,29,-1
EndSplineSet
EndChar
StartChar: Ntilde
Encoding: 209 209 73
Width: 573
Flags: W
LayerCount: 2
Back
Fore
SplineSet
464 0 m 0,0,1
 450 0 450 0 439 11.5 c 128,-1,2
 428 23 428 23 420 38 c 2,3,-1
 142 579 l 1,4,-1
 142 26 l 2,5,6
 142 13 142 13 131.5 6.5 c 128,-1,7
 121 0 121 0 109 0 c 0,8,9
 96 0 96 0 86 6.5 c 128,-1,10
 76 13 76 13 76 26 c 2,11,-1
 76 706 l 2,12,13
 76 720 76 720 86 725.5 c 128,-1,14
 96 731 96 731 109 731 c 0,15,16
 127 731 127 731 139 717.5 c 128,-1,17
 151 704 151 704 161 685 c 2,18,-1
 431 153 l 1,19,-1
 431 707 l 2,20,21
 431 720 431 720 441 725.5 c 128,-1,22
 451 731 451 731 464 731 c 0,23,24
 476 731 476 731 486.5 725.5 c 128,-1,25
 497 720 497 720 497 707 c 2,26,-1
 497 26 l 2,27,28
 497 13 497 13 486.5 6.5 c 128,-1,29
 476 0 476 0 464 0 c 0,0,1
222 898 m 0,30,31
 206 898 206 898 194.5 893 c 128,-1,32
 183 888 183 888 175 882 c 128,-1,33
 167 876 167 876 160.5 871 c 128,-1,34
 154 866 154 866 148 866 c 0,35,36
 138 866 138 866 133.5 874.5 c 128,-1,37
 129 883 129 883 129 891 c 0,38,39
 129 905 129 905 138 915.5 c 128,-1,40
 147 926 147 926 160.5 933.5 c 128,-1,41
 174 941 174 941 189.5 944.5 c 128,-1,42
 205 948 205 948 217 948 c 0,43,44
 236 948 236 948 252 942.5 c 128,-1,45
 268 937 268 937 283 931 c 128,-1,46
 298 925 298 925 313.5 919.5 c 128,-1,47
 329 914 329 914 349 914 c 0,48,49
 366 914 366 914 376.5 918.5 c 128,-1,50
 387 923 387 923 394 928.5 c 128,-1,51
 401 934 401 934 406.5 938.5 c 128,-1,52
 412 943 412 943 419 943 c 0,53,54
 429 943 429 943 434 935 c 128,-1,55
 439 927 439 927 439 920 c 0,56,57
 439 905 439 905 430 894 c 128,-1,58
 421 883 421 883 408 876 c 128,-1,59
 395 869 395 869 380.5 866 c 128,-1,60
 366 863 366 863 355 863 c 0,61,62
 335 863 335 863 319 868.5 c 128,-1,63
 303 874 303 874 288.5 880.5 c 128,-1,64
 274 887 274 887 258 892.5 c 128,-1,65
 242 898 242 898 222 898 c 0,30,31
EndSplineSet
EndChar
StartChar: Ograve
Encoding: 210 210 80
Width: 552
Flags: W
LayerCount: 2
Back
Fore
SplineSet
276 -6 m 256,0,1
 232 -6 232 -6 194 5.5 c 128,-1,2
 156 17 156 17 128 42.5 c 128,-1,3
 100 68 100 68 84 108.5 c 128,-1,4
 68 149 68 149 68 208 c 2,5,-1
 68 518 l 2,6,7
 68 576 68 576 84 616.5 c 128,-1,8
 100 657 100 657 128 682.5 c 128,-1,9
 156 708 156 708 194 719.5 c 128,-1,10
 232 731 232 731 276 731 c 256,11,12
 320 731 320 731 358 719.5 c 128,-1,13
 396 708 396 708 424 682.5 c 128,-1,14
 452 657 452 657 468 616.5 c 128,-1,15
 484 576 484 576 484 518 c 2,16,-1
 484 208 l 2,17,18
 484 149 484 149 468 108.5 c 128,-1,19
 452 68 452 68 424 42.5 c 128,-1,20
 396 17 396 17 358 5.5 c 128,-1,21
 320 -6 320 -6 276 -6 c 256,0,1
418 518 m 2,22,23
 418 596 418 596 380.5 633 c 128,-1,24
 343 670 343 670 276 670 c 256,25,26
 209 670 209 670 171.5 633 c 128,-1,27
 134 596 134 596 134 518 c 2,28,-1
 134 208 l 2,29,30
 134 129 134 129 171.5 92 c 128,-1,31
 209 55 209 55 276 55 c 256,32,33
 343 55 343 55 380.5 92 c 128,-1,34
 418 129 418 129 418 208 c 2,35,-1
 418 518 l 2,22,23
208 905 m 2,36,37
 195 911 195 911 195 927 c 0,38,39
 195 937 195 937 201.5 946 c 128,-1,40
 208 955 208 955 219 955 c 0,41,42
 223 955 223 955 228 952 c 2,43,-1
 339 891 l 2,44,45
 350 885 350 885 350 873 c 0,46,47
 350 862 350 862 342.5 853.5 c 128,-1,48
 335 845 335 845 324 845 c 0,49,50
 318 845 318 845 314 848 c 2,51,-1
 208 905 l 2,36,37
EndSplineSet
EndChar
StartChar: Oacute
Encoding: 211 211 76
Width: 552
Flags: W
LayerCount: 2
Back
Fore
SplineSet
246 848 m 2,0,1
 241 845 241 845 236 845 c 0,2,3
 225 845 225 845 217.5 853.5 c 128,-1,4
 210 862 210 862 210 873 c 0,5,6
 210 885 210 885 221 891 c 2,7,-1
 333 952 l 2,8,9
 336 955 336 955 341 955 c 0,10,11
 352 955 352 955 358.5 946 c 128,-1,12
 365 937 365 937 365 927 c 0,13,14
 365 911 365 911 353 905 c 2,15,-1
 246 848 l 2,0,1
276 -6 m 256,16,17
 232 -6 232 -6 194 5.5 c 128,-1,18
 156 17 156 17 128 42.5 c 128,-1,19
 100 68 100 68 84 108.5 c 128,-1,20
 68 149 68 149 68 208 c 2,21,-1
 68 518 l 2,22,23
 68 576 68 576 84 616.5 c 128,-1,24
 100 657 100 657 128 682.5 c 128,-1,25
 156 708 156 708 194 719.5 c 128,-1,26
 232 731 232 731 276 731 c 256,27,28
 320 731 320 731 358 719.5 c 128,-1,29
 396 708 396 708 424 682.5 c 128,-1,30
 452 657 452 657 468 616.5 c 128,-1,31
 484 576 484 576 484 518 c 2,32,-1
 484 208 l 2,33,34
 484 149 484 149 468 108.5 c 128,-1,35
 452 68 452 68 424 42.5 c 128,-1,36
 396 17 396 17 358 5.5 c 128,-1,37
 320 -6 320 -6 276 -6 c 256,16,17
418 518 m 2,38,39
 418 596 418 596 380.5 633 c 128,-1,40
 343 670 343 670 276 670 c 256,41,42
 209 670 209 670 171.5 633 c 128,-1,43
 134 596 134 596 134 518 c 2,44,-1
 134 208 l 2,45,46
 134 129 134 129 171.5 92 c 128,-1,47
 209 55 209 55 276 55 c 256,48,49
 343 55 343 55 380.5 92 c 128,-1,50
 418 129 418 129 418 208 c 2,51,-1
 418 518 l 2,38,39
EndSplineSet
EndChar
StartChar: Ocircumflex
Encoding: 212 212 78
Width: 552
Flags: W
LayerCount: 2
Back
Fore
SplineSet
172 849 m 2,0,1
 170 848 170 848 167.5 847 c 128,-1,2
 165 846 165 846 163 846 c 0,3,4
 155 846 155 846 148.5 853.5 c 128,-1,5
 142 861 142 861 142 872 c 0,6,7
 142 878 142 878 145 884 c 128,-1,8
 148 890 148 890 155 894 c 2,9,-1
 259 950 l 2,10,11
 267 955 267 955 276 955 c 256,12,13
 285 955 285 955 293 950 c 2,14,-1
 397 894 l 2,15,16
 404 891 404 891 407 884.5 c 128,-1,17
 410 878 410 878 410 871 c 0,18,19
 410 861 410 861 404 854 c 128,-1,20
 398 847 398 847 390 847 c 0,21,22
 388 847 388 847 385 848 c 128,-1,23
 382 849 382 849 380 850 c 2,24,-1
 276 905 l 1,25,-1
 172 849 l 2,0,1
276 -6 m 256,26,27
 232 -6 232 -6 194 5.5 c 128,-1,28
 156 17 156 17 128 42.5 c 128,-1,29
 100 68 100 68 84 108.5 c 128,-1,30
 68 149 68 149 68 208 c 2,31,-1
 68 518 l 2,32,33
 68 576 68 576 84 616.5 c 128,-1,34
 100 657 100 657 128 682.5 c 128,-1,35
 156 708 156 708 194 719.5 c 128,-1,36
 232 731 232 731 276 731 c 256,37,38
 320 731 320 731 358 719.5 c 128,-1,39
 396 708 396 708 424 682.5 c 128,-1,40
 452 657 452 657 468 616.5 c 128,-1,41
 484 576 484 576 484 518 c 2,42,-1
 484 208 l 2,43,44
 484 149 484 149 468 108.5 c 128,-1,45
 452 68 452 68 424 42.5 c 128,-1,46
 396 17 396 17 358 5.5 c 128,-1,47
 320 -6 320 -6 276 -6 c 256,26,27
418 518 m 2,48,49
 418 596 418 596 380.5 633 c 128,-1,50
 343 670 343 670 276 670 c 256,51,52
 209 670 209 670 171.5 633 c 128,-1,53
 134 596 134 596 134 518 c 2,54,-1
 134 208 l 2,55,56
 134 129 134 129 171.5 92 c 128,-1,57
 209 55 209 55 276 55 c 256,58,59
 343 55 343 55 380.5 92 c 128,-1,60
 418 129 418 129 418 208 c 2,61,-1
 418 518 l 2,48,49
EndSplineSet
EndChar
StartChar: Otilde
Encoding: 213 213 86
Width: 552
Flags: W
LayerCount: 2
Back
Fore
SplineSet
276 -6 m 256,0,1
 232 -6 232 -6 194 5.5 c 128,-1,2
 156 17 156 17 128 42.5 c 128,-1,3
 100 68 100 68 84 108.5 c 128,-1,4
 68 149 68 149 68 208 c 2,5,-1
 68 518 l 2,6,7
 68 576 68 576 84 616.5 c 128,-1,8
 100 657 100 657 128 682.5 c 128,-1,9
 156 708 156 708 194 719.5 c 128,-1,10
 232 731 232 731 276 731 c 256,11,12
 320 731 320 731 358 719.5 c 128,-1,13
 396 708 396 708 424 682.5 c 128,-1,14
 452 657 452 657 468 616.5 c 128,-1,15
 484 576 484 576 484 518 c 2,16,-1
 484 208 l 2,17,18
 484 149 484 149 468 108.5 c 128,-1,19
 452 68 452 68 424 42.5 c 128,-1,20
 396 17 396 17 358 5.5 c 128,-1,21
 320 -6 320 -6 276 -6 c 256,0,1
418 518 m 2,22,23
 418 596 418 596 380.5 633 c 128,-1,24
 343 670 343 670 276 670 c 256,25,26
 209 670 209 670 171.5 633 c 128,-1,27
 134 596 134 596 134 518 c 2,28,-1
 134 208 l 2,29,30
 134 129 134 129 171.5 92 c 128,-1,31
 209 55 209 55 276 55 c 256,32,33
 343 55 343 55 380.5 92 c 128,-1,34
 418 129 418 129 418 208 c 2,35,-1
 418 518 l 2,22,23
214 898 m 0,36,37
 198 898 198 898 186.5 893 c 128,-1,38
 175 888 175 888 167 882 c 128,-1,39
 159 876 159 876 152.5 871 c 128,-1,40
 146 866 146 866 140 866 c 0,41,42
 130 866 130 866 125.5 874.5 c 128,-1,43
 121 883 121 883 121 891 c 0,44,45
 121 905 121 905 130 915.5 c 128,-1,46
 139 926 139 926 152.5 933.5 c 128,-1,47
 166 941 166 941 181.5 944.5 c 128,-1,48
 197 948 197 948 209 948 c 0,49,50
 228 948 228 948 244 942.5 c 128,-1,51
 260 937 260 937 275 931 c 128,-1,52
 290 925 290 925 305.5 919.5 c 128,-1,53
 321 914 321 914 341 914 c 0,54,55
 358 914 358 914 368.5 918.5 c 128,-1,56
 379 923 379 923 386 928.5 c 128,-1,57
 393 934 393 934 398.5 938.5 c 128,-1,58
 404 943 404 943 411 943 c 0,59,60
 421 943 421 943 426 935 c 128,-1,61
 431 927 431 927 431 920 c 0,62,63
 431 905 431 905 422 894 c 128,-1,64
 413 883 413 883 400 876 c 128,-1,65
 387 869 387 869 372.5 866 c 128,-1,66
 358 863 358 863 347 863 c 0,67,68
 327 863 327 863 311 868.5 c 128,-1,69
 295 874 295 874 280.5 880.5 c 128,-1,70
 266 887 266 887 250 892.5 c 128,-1,71
 234 898 234 898 214 898 c 0,36,37
EndSplineSet
EndChar
StartChar: Odieresis
Encoding: 214 214 79
Width: 552
Flags: W
LayerCount: 2
Back
Fore
SplineSet
215 920 m 0,0,1
 230 920 230 920 240.5 910 c 128,-1,2
 251 900 251 900 251 884 c 0,3,4
 251 869 251 869 240.5 858 c 128,-1,5
 230 847 230 847 215 847 c 0,6,7
 199 847 199 847 188.5 858 c 128,-1,8
 178 869 178 869 178 884 c 0,9,10
 178 900 178 900 188.5 910 c 128,-1,11
 199 920 199 920 215 920 c 0,0,1
338 920 m 256,12,13
 354 920 354 920 364 910 c 128,-1,14
 374 900 374 900 374 884 c 0,15,16
 374 869 374 869 364 858 c 128,-1,17
 354 847 354 847 338 847 c 256,18,19
 322 847 322 847 311.5 858 c 128,-1,20
 301 869 301 869 301 884 c 0,21,22
 301 900 301 900 311.5 910 c 128,-1,23
 322 920 322 920 338 920 c 256,12,13
276 -6 m 256,24,25
 232 -6 232 -6 194 5.5 c 128,-1,26
 156 17 156 17 128 42.5 c 128,-1,27
 100 68 100 68 84 108.5 c 128,-1,28
 68 149 68 149 68 208 c 2,29,-1
 68 518 l 2,30,31
 68 576 68 576 84 616.5 c 128,-1,32
 100 657 100 657 128 682.5 c 128,-1,33
 156 708 156 708 194 719.5 c 128,-1,34
 232 731 232 731 276 731 c 256,35,36
 320 731 320 731 358 719.5 c 128,-1,37
 396 708 396 708 424 682.5 c 128,-1,38
 452 657 452 657 468 616.5 c 128,-1,39
 484 576 484 576 484 518 c 2,40,-1
 484 208 l 2,41,42
 484 149 484 149 468 108.5 c 128,-1,43
 452 68 452 68 424 42.5 c 128,-1,44
 396 17 396 17 358 5.5 c 128,-1,45
 320 -6 320 -6 276 -6 c 256,24,25
418 518 m 2,46,47
 418 596 418 596 380.5 633 c 128,-1,48
 343 670 343 670 276 670 c 256,49,50
 209 670 209 670 171.5 633 c 128,-1,51
 134 596 134 596 134 518 c 2,52,-1
 134 208 l 2,53,54
 134 129 134 129 171.5 92 c 128,-1,55
 209 55 209 55 276 55 c 256,56,57
 343 55 343 55 380.5 92 c 128,-1,58
 418 129 418 129 418 208 c 2,59,-1
 418 518 l 2,46,47
EndSplineSet
EndChar
StartChar: multiply
Encoding: 215 215 279
Width: 398
Flags: W
LayerCount: 2
Back
Fore
SplineSet
339 166 m 0,0,1
 339 155 339 155 330 145 c 128,-1,2
 321 135 321 135 308 135 c 0,3,4
 299 135 299 135 292 142 c 2,5,-1
 198 235 l 1,6,-1
 106 142 l 2,7,8
 99 135 99 135 89 135 c 0,9,10
 78 135 78 135 68 145 c 128,-1,11
 58 155 58 155 58 166 c 0,12,13
 58 175 58 175 65 182 c 2,14,-1
 161 275 l 1,15,-1
 65 368 l 2,16,17
 59 374 59 374 59 385 c 256,18,19
 59 396 59 396 68.5 405.5 c 128,-1,20
 78 415 78 415 89 415 c 0,21,22
 99 415 99 415 107 409 c 2,23,-1
 198 316 l 1,24,-1
 291 409 l 2,25,26
 297 415 297 415 308 415 c 0,27,28
 320 415 320 415 329.5 405.5 c 128,-1,29
 339 396 339 396 339 385 c 0,30,31
 339 375 339 375 332 368 c 2,32,-1
 237 275 l 1,33,-1
 333 182 l 2,34,35
 339 176 339 176 339 166 c 0,0,1
EndSplineSet
EndChar
StartChar: Oslash
Encoding: 216 216 84
Width: 552
Flags: W
LayerCount: 2
Back
Fore
SplineSet
464 769 m 0,0,1
 474 769 474 769 483.5 761.5 c 128,-1,2
 493 754 493 754 493 742 c 0,3,4
 493 734 493 734 489 729 c 2,5,-1
 450 652 l 1,6,7
 466 627 466 627 475 594 c 128,-1,8
 484 561 484 561 484 518 c 2,9,-1
 484 208 l 2,10,11
 484 149 484 149 468 108.5 c 128,-1,12
 452 68 452 68 424 42.5 c 128,-1,13
 396 17 396 17 358 5.5 c 128,-1,14
 320 -6 320 -6 276 -6 c 0,15,16
 234 -6 234 -6 198.5 4 c 128,-1,17
 163 14 163 14 135 37 c 1,18,-1
 110 -12 l 2,19,20
 107 -20 107 -20 100.5 -23.5 c 128,-1,21
 94 -27 94 -27 86 -27 c 0,22,23
 75 -27 75 -27 67.5 -19.5 c 128,-1,24
 60 -12 60 -12 60 -2 c 0,25,26
 60 4 60 4 63 10 c 2,27,-1
 98 79 l 1,28,29
 68 127 68 127 68 208 c 2,30,-1
 68 518 l 2,31,32
 68 576 68 576 84 616.5 c 128,-1,33
 100 657 100 657 128 682.5 c 128,-1,34
 156 708 156 708 194 719.5 c 128,-1,35
 232 731 232 731 276 731 c 0,36,37
 315 731 315 731 349.5 721.5 c 128,-1,38
 384 712 384 712 411 692 c 1,39,-1
 444 757 l 2,40,41
 447 764 447 764 452.5 766.5 c 128,-1,42
 458 769 458 769 464 769 c 0,0,1
418 518 m 2,43,44
 418 535 418 535 416 549 c 128,-1,45
 414 563 414 563 411 576 c 1,46,-1
 166 98 l 1,47,48
 202 55 202 55 276 55 c 0,49,50
 343 55 343 55 380.5 92 c 128,-1,51
 418 129 418 129 418 208 c 2,52,-1
 418 518 l 2,43,44
134 208 m 2,53,54
 134 178 134 178 138 158 c 1,55,-1
 380 633 l 1,56,57
 344 670 344 670 276 670 c 0,58,59
 209 670 209 670 171.5 633 c 128,-1,60
 134 596 134 596 134 518 c 2,61,-1
 134 208 l 2,53,54
EndSplineSet
EndChar
StartChar: Ugrave
Encoding: 217 217 109
Width: 566
Flags: W
LayerCount: 2
Back
Fore
SplineSet
427 707 m 2,0,1
 427 720 427 720 437 725.5 c 128,-1,2
 447 731 447 731 460 731 c 0,3,4
 472 731 472 731 482.5 725.5 c 128,-1,5
 493 720 493 720 493 707 c 2,6,-1
 493 208 l 2,7,8
 493 149 493 149 476.5 108.5 c 128,-1,9
 460 68 460 68 431.5 42.5 c 128,-1,10
 403 17 403 17 365 5.5 c 128,-1,11
 327 -6 327 -6 283 -6 c 256,12,13
 239 -6 239 -6 200.5 5.5 c 128,-1,14
 162 17 162 17 133.5 42.5 c 128,-1,15
 105 68 105 68 89 108.5 c 128,-1,16
 73 149 73 149 73 208 c 2,17,-1
 73 707 l 2,18,19
 73 720 73 720 83.5 725.5 c 128,-1,20
 94 731 94 731 106 731 c 0,21,22
 119 731 119 731 129 725.5 c 128,-1,23
 139 720 139 720 139 707 c 2,24,-1
 139 208 l 2,25,26
 139 130 139 130 177 92.5 c 128,-1,27
 215 55 215 55 283 55 c 256,28,29
 351 55 351 55 389 92.5 c 128,-1,30
 427 130 427 130 427 208 c 2,31,-1
 427 707 l 2,0,1
213 905 m 2,32,33
 200 911 200 911 200 927 c 0,34,35
 200 937 200 937 206.5 946 c 128,-1,36
 213 955 213 955 224 955 c 0,37,38
 228 955 228 955 233 952 c 2,39,-1
 344 891 l 2,40,41
 355 885 355 885 355 873 c 0,42,43
 355 862 355 862 347.5 853.5 c 128,-1,44
 340 845 340 845 329 845 c 0,45,46
 323 845 323 845 319 848 c 2,47,-1
 213 905 l 2,32,33
EndSplineSet
EndChar
StartChar: Uacute
Encoding: 218 218 105
Width: 566
Flags: W
LayerCount: 2
Back
Fore
SplineSet
248 848 m 2,0,1
 243 845 243 845 238 845 c 0,2,3
 227 845 227 845 219.5 853.5 c 128,-1,4
 212 862 212 862 212 873 c 0,5,6
 212 885 212 885 223 891 c 2,7,-1
 335 952 l 2,8,9
 338 955 338 955 343 955 c 0,10,11
 354 955 354 955 360.5 946 c 128,-1,12
 367 937 367 937 367 927 c 0,13,14
 367 911 367 911 355 905 c 2,15,-1
 248 848 l 2,0,1
427 707 m 2,16,17
 427 720 427 720 437 725.5 c 128,-1,18
 447 731 447 731 460 731 c 0,19,20
 472 731 472 731 482.5 725.5 c 128,-1,21
 493 720 493 720 493 707 c 2,22,-1
 493 208 l 2,23,24
 493 149 493 149 476.5 108.5 c 128,-1,25
 460 68 460 68 431.5 42.5 c 128,-1,26
 403 17 403 17 365 5.5 c 128,-1,27
 327 -6 327 -6 283 -6 c 256,28,29
 239 -6 239 -6 200.5 5.5 c 128,-1,30
 162 17 162 17 133.5 42.5 c 128,-1,31
 105 68 105 68 89 108.5 c 128,-1,32
 73 149 73 149 73 208 c 2,33,-1
 73 707 l 2,34,35
 73 720 73 720 83.5 725.5 c 128,-1,36
 94 731 94 731 106 731 c 0,37,38
 119 731 119 731 129 725.5 c 128,-1,39
 139 720 139 720 139 707 c 2,40,-1
 139 208 l 2,41,42
 139 130 139 130 177 92.5 c 128,-1,43
 215 55 215 55 283 55 c 256,44,45
 351 55 351 55 389 92.5 c 128,-1,46
 427 130 427 130 427 208 c 2,47,-1
 427 707 l 2,16,17
EndSplineSet
EndChar
StartChar: Ucircumflex
Encoding: 219 219 107
Width: 566
Flags: W
LayerCount: 2
Back
Fore
SplineSet
177 849 m 2,0,1
 175 848 175 848 172.5 847 c 128,-1,2
 170 846 170 846 168 846 c 0,3,4
 160 846 160 846 153.5 853.5 c 128,-1,5
 147 861 147 861 147 872 c 0,6,7
 147 878 147 878 150 884 c 128,-1,8
 153 890 153 890 160 894 c 2,9,-1
 264 950 l 2,10,11
 272 955 272 955 281 955 c 256,12,13
 290 955 290 955 298 950 c 2,14,-1
 402 894 l 2,15,16
 409 891 409 891 412 884.5 c 128,-1,17
 415 878 415 878 415 871 c 0,18,19
 415 861 415 861 409 854 c 128,-1,20
 403 847 403 847 395 847 c 0,21,22
 393 847 393 847 390 848 c 128,-1,23
 387 849 387 849 385 850 c 2,24,-1
 281 905 l 1,25,-1
 177 849 l 2,0,1
427 707 m 2,26,27
 427 720 427 720 437 725.5 c 128,-1,28
 447 731 447 731 460 731 c 0,29,30
 472 731 472 731 482.5 725.5 c 128,-1,31
 493 720 493 720 493 707 c 2,32,-1
 493 208 l 2,33,34
 493 149 493 149 476.5 108.5 c 128,-1,35
 460 68 460 68 431.5 42.5 c 128,-1,36
 403 17 403 17 365 5.5 c 128,-1,37
 327 -6 327 -6 283 -6 c 256,38,39
 239 -6 239 -6 200.5 5.5 c 128,-1,40
 162 17 162 17 133.5 42.5 c 128,-1,41
 105 68 105 68 89 108.5 c 128,-1,42
 73 149 73 149 73 208 c 2,43,-1
 73 707 l 2,44,45
 73 720 73 720 83.5 725.5 c 128,-1,46
 94 731 94 731 106 731 c 0,47,48
 119 731 119 731 129 725.5 c 128,-1,49
 139 720 139 720 139 707 c 2,50,-1
 139 208 l 2,51,52
 139 130 139 130 177 92.5 c 128,-1,53
 215 55 215 55 283 55 c 256,54,55
 351 55 351 55 389 92.5 c 128,-1,56
 427 130 427 130 427 208 c 2,57,-1
 427 707 l 2,26,27
EndSplineSet
EndChar
StartChar: Udieresis
Encoding: 220 220 108
Width: 566
Flags: W
LayerCount: 2
Back
Fore
SplineSet
222 920 m 0,0,1
 237 920 237 920 247.5 910 c 128,-1,2
 258 900 258 900 258 884 c 0,3,4
 258 869 258 869 247.5 858 c 128,-1,5
 237 847 237 847 222 847 c 0,6,7
 206 847 206 847 195.5 858 c 128,-1,8
 185 869 185 869 185 884 c 0,9,10
 185 900 185 900 195.5 910 c 128,-1,11
 206 920 206 920 222 920 c 0,0,1
345 920 m 256,12,13
 361 920 361 920 371 910 c 128,-1,14
 381 900 381 900 381 884 c 0,15,16
 381 869 381 869 371 858 c 128,-1,17
 361 847 361 847 345 847 c 256,18,19
 329 847 329 847 318.5 858 c 128,-1,20
 308 869 308 869 308 884 c 0,21,22
 308 900 308 900 318.5 910 c 128,-1,23
 329 920 329 920 345 920 c 256,12,13
427 707 m 2,24,25
 427 720 427 720 437 725.5 c 128,-1,26
 447 731 447 731 460 731 c 0,27,28
 472 731 472 731 482.5 725.5 c 128,-1,29
 493 720 493 720 493 707 c 2,30,-1
 493 208 l 2,31,32
 493 149 493 149 476.5 108.5 c 128,-1,33
 460 68 460 68 431.5 42.5 c 128,-1,34
 403 17 403 17 365 5.5 c 128,-1,35
 327 -6 327 -6 283 -6 c 256,36,37
 239 -6 239 -6 200.5 5.5 c 128,-1,38
 162 17 162 17 133.5 42.5 c 128,-1,39
 105 68 105 68 89 108.5 c 128,-1,40
 73 149 73 149 73 208 c 2,41,-1
 73 707 l 2,42,43
 73 720 73 720 83.5 725.5 c 128,-1,44
 94 731 94 731 106 731 c 0,45,46
 119 731 119 731 129 725.5 c 128,-1,47
 139 720 139 720 139 707 c 2,48,-1
 139 208 l 2,49,50
 139 130 139 130 177 92.5 c 128,-1,51
 215 55 215 55 283 55 c 256,52,53
 351 55 351 55 389 92.5 c 128,-1,54
 427 130 427 130 427 208 c 2,55,-1
 427 707 l 2,24,25
EndSplineSet
EndChar
StartChar: Yacute
Encoding: 221 221 123
Width: 531
Flags: W
LayerCount: 2
Back
Fore
SplineSet
232 280 m 2,0,1
 232 285 232 285 231 288 c 2,2,-1
 24 685 l 2,3,4
 21 690 21 690 20 695 c 128,-1,5
 19 700 19 700 19 703 c 0,6,7
 19 716 19 716 31 723.5 c 128,-1,8
 43 731 43 731 55 731 c 0,9,10
 71 731 71 731 81 711 c 2,11,-1
 265 346 l 1,12,-1
 450 711 l 2,13,14
 460 731 460 731 476 731 c 0,15,16
 488 731 488 731 500 723.5 c 128,-1,17
 512 716 512 716 512 703 c 0,18,19
 512 700 512 700 511 695 c 128,-1,20
 510 690 510 690 508 685 c 2,21,-1
 300 288 l 2,22,23
 298 282 298 282 298 280 c 2,24,-1
 298 26 l 2,25,26
 298 13 298 13 288 6.5 c 128,-1,27
 278 0 278 0 265 0 c 0,28,29
 253 0 253 0 242.5 6.5 c 128,-1,30
 232 13 232 13 232 26 c 2,31,-1
 232 280 l 2,0,1
229 848 m 2,32,33
 224 845 224 845 219 845 c 0,34,35
 208 845 208 845 200.5 853.5 c 128,-1,36
 193 862 193 862 193 873 c 0,37,38
 193 885 193 885 204 891 c 2,39,-1
 316 952 l 2,40,41
 319 955 319 955 324 955 c 0,42,43
 335 955 335 955 341.5 946 c 128,-1,44
 348 937 348 937 348 927 c 0,45,46
 348 911 348 911 336 905 c 2,47,-1
 229 848 l 2,32,33
EndSplineSet
EndChar
StartChar: Thorn
Encoding: 222 222 103
Width: 495
Flags: W
LayerCount: 2
Back
Fore
SplineSet
107 735 m 0,0,1
 122 735 122 735 131.5 728.5 c 128,-1,2
 141 722 141 722 141 711 c 2,3,-1
 141 543 l 1,4,5
 158 574 158 574 192 596.5 c 128,-1,6
 226 619 226 619 279 619 c 0,7,8
 313 619 313 619 344.5 608 c 128,-1,9
 376 597 376 597 400 576.5 c 128,-1,10
 424 556 424 556 438 526 c 128,-1,11
 452 496 452 496 452 458 c 2,12,-1
 452 297 l 2,13,14
 452 259 452 259 437.5 229 c 128,-1,15
 423 199 423 199 399 177.5 c 128,-1,16
 375 156 375 156 345 144.5 c 128,-1,17
 315 133 315 133 284 133 c 0,18,19
 261 133 261 133 238 139 c 128,-1,20
 215 145 215 145 195.5 155.5 c 128,-1,21
 176 166 176 166 161.5 180.5 c 128,-1,22
 147 195 147 195 141 212 c 1,23,-1
 141 26 l 2,24,25
 141 16 141 16 131.5 8 c 128,-1,26
 122 0 122 0 108 0 c 256,27,28
 94 0 94 0 85 8 c 128,-1,29
 76 16 76 16 76 26 c 2,30,-1
 76 712 l 2,31,32
 76 723 76 723 85 729 c 128,-1,33
 94 735 94 735 107 735 c 0,0,1
387 458 m 2,34,35
 387 483 387 483 377 501.5 c 128,-1,36
 367 520 367 520 350.5 533 c 128,-1,37
 334 546 334 546 312.5 552.5 c 128,-1,38
 291 559 291 559 268 559 c 0,39,40
 243 559 243 559 220 552 c 128,-1,41
 197 545 197 545 179.5 531.5 c 128,-1,42
 162 518 162 518 151.5 499.5 c 128,-1,43
 141 481 141 481 141 458 c 2,44,-1
 141 293 l 2,45,46
 141 276 141 276 150.5 258.5 c 128,-1,47
 160 241 160 241 177 226.5 c 128,-1,48
 194 212 194 212 217 202.5 c 128,-1,49
 240 193 240 193 268 193 c 0,50,51
 290 193 290 193 311.5 199.5 c 128,-1,52
 333 206 333 206 350 219.5 c 128,-1,53
 367 233 367 233 377 252 c 128,-1,54
 387 271 387 271 387 297 c 2,55,-1
 387 458 l 2,34,35
EndSplineSet
EndChar
StartChar: germandbls
Encoding: 223 223 234
Width: 551
Flags: W
LayerCount: 2
Back
Fore
SplineSet
330 -20 m 0,0,1
 318 -20 318 -20 300 -18.5 c 128,-1,2
 282 -17 282 -17 265 -12.5 c 128,-1,3
 248 -8 248 -8 236 0.5 c 128,-1,4
 224 9 224 9 224 24 c 0,5,6
 224 34 224 34 229 44.5 c 128,-1,7
 234 55 234 55 244 55 c 256,8,9
 254 55 254 55 271 45.5 c 128,-1,10
 288 36 288 36 322 36 c 0,11,12
 381 36 381 36 415.5 77 c 128,-1,13
 450 118 450 118 450 197 c 2,14,-1
 450 214 l 2,15,16
 450 243 450 243 441.5 271.5 c 128,-1,17
 433 300 433 300 414.5 323 c 128,-1,18
 396 346 396 346 367 361.5 c 128,-1,19
 338 377 338 377 297 382 c 0,20,21
 282 384 282 384 272.5 388 c 128,-1,22
 263 392 263 392 263 409 c 256,23,24
 263 426 263 426 273 431 c 128,-1,25
 283 436 283 436 298 438 c 0,26,27
 325 440 325 440 341.5 454 c 128,-1,28
 358 468 358 468 366.5 487.5 c 128,-1,29
 375 507 375 507 378 529.5 c 128,-1,30
 381 552 381 552 381 570 c 0,31,32
 381 633 381 633 354.5 670.5 c 128,-1,33
 328 708 328 708 271 708 c 0,34,35
 241 708 241 708 221 697.5 c 128,-1,36
 201 687 201 687 189 669.5 c 128,-1,37
 177 652 177 652 172 629.5 c 128,-1,38
 167 607 167 607 167 583 c 2,39,-1
 167 25 l 2,40,41
 167 14 167 14 157 7 c 128,-1,42
 147 0 147 0 133 0 c 256,43,44
 119 0 119 0 110.5 7 c 128,-1,45
 102 14 102 14 102 25 c 2,46,-1
 102 419 l 1,47,-1
 29 419 l 2,48,49
 18 419 18 419 12 427 c 128,-1,50
 6 435 6 435 6 446 c 256,51,52
 6 457 6 457 12 465 c 128,-1,53
 18 473 18 473 29 473 c 2,54,-1
 102 473 l 1,55,-1
 102 583 l 2,56,57
 102 620 102 620 111 653.5 c 128,-1,58
 120 687 120 687 140 712.5 c 128,-1,59
 160 738 160 738 191.5 753 c 128,-1,60
 223 768 223 768 268 768 c 0,61,62
 304 768 304 768 335 757.5 c 128,-1,63
 366 747 366 747 389 724.5 c 128,-1,64
 412 702 412 702 425 668 c 128,-1,65
 438 634 438 634 438 587 c 0,66,67
 438 561 438 561 433.5 534.5 c 128,-1,68
 429 508 429 508 420 484.5 c 128,-1,69
 411 461 411 461 398 443.5 c 128,-1,70
 385 426 385 426 367 418 c 1,71,72
 392 413 392 413 418 396 c 128,-1,73
 444 379 444 379 465 352.5 c 128,-1,74
 486 326 486 326 499 291.5 c 128,-1,75
 512 257 512 257 512 218 c 2,76,-1
 512 201 l 2,77,78
 512 145 512 145 496.5 103.5 c 128,-1,79
 481 62 481 62 455.5 34.5 c 128,-1,80
 430 7 430 7 397.5 -6.5 c 128,-1,81
 365 -20 365 -20 330 -20 c 0,0,1
EndSplineSet
EndChar
StartChar: acircumflex
Encoding: 226 226 135
Width: 438
Flags: W
LayerCount: 2
Back
Fore
SplineSet
102 595 m 2,0,1
 100 594 100 594 97.5 593 c 128,-1,2
 95 592 95 592 93 592 c 0,3,4
 85 592 85 592 78.5 599.5 c 128,-1,5
 72 607 72 607 72 618 c 0,6,7
 72 624 72 624 75 630 c 128,-1,8
 78 636 78 636 85 640 c 2,9,-1
 189 696 l 2,10,11
 197 701 197 701 206 701 c 256,12,13
 215 701 215 701 223 696 c 2,14,-1
 327 640 l 2,15,16
 334 637 334 637 337 630.5 c 128,-1,17
 340 624 340 624 340 617 c 0,18,19
 340 607 340 607 334 600 c 128,-1,20
 328 593 328 593 320 593 c 0,21,22
 318 593 318 593 315 594 c 128,-1,23
 312 595 312 595 310 596 c 2,24,-1
 206 651 l 1,25,-1
 102 595 l 2,0,1
198 479 m 0,26,27
 248 479 248 479 282.5 463 c 128,-1,28
 317 447 317 447 338.5 420 c 128,-1,29
 360 393 360 393 369.5 358 c 128,-1,30
 379 323 379 323 379 286 c 2,31,-1
 379 26 l 2,32,33
 379 15 379 15 370 7.5 c 128,-1,34
 361 0 361 0 347 0 c 0,35,36
 334 0 334 0 325.5 7.5 c 128,-1,37
 317 15 317 15 317 26 c 2,38,-1
 317 70 l 1,39,40
 291 40 291 40 254 16.5 c 128,-1,41
 217 -7 217 -7 166 -7 c 0,42,43
 137 -7 137 -7 112.5 1 c 128,-1,44
 88 9 88 9 69.5 25.5 c 128,-1,45
 51 42 51 42 40.5 66.5 c 128,-1,46
 30 91 30 91 30 125 c 0,47,48
 30 166 30 166 47 192.5 c 128,-1,49
 64 219 64 219 94.5 234.5 c 128,-1,50
 125 250 125 250 168 256 c 128,-1,51
 211 262 211 262 263 262 c 2,52,-1
 314 262 l 1,53,-1
 314 286 l 2,54,55
 314 310 314 310 307.5 334 c 128,-1,56
 301 358 301 358 287 377.5 c 128,-1,57
 273 397 273 397 250.5 409.5 c 128,-1,58
 228 422 228 422 196 422 c 0,59,60
 171 422 171 422 153.5 417.5 c 128,-1,61
 136 413 136 413 123.5 407.5 c 128,-1,62
 111 402 111 402 103 397.5 c 128,-1,63
 95 393 95 393 89 393 c 0,64,65
 76 393 76 393 69.5 405 c 128,-1,66
 63 417 63 417 63 428 c 0,67,68
 63 438 63 438 75 447 c 128,-1,69
 87 456 87 456 106.5 463 c 128,-1,70
 126 470 126 470 150 474.5 c 128,-1,71
 174 479 174 479 198 479 c 0,26,27
314 217 m 1,72,-1
 272 217 l 2,73,74
 237 217 237 217 205.5 214.5 c 128,-1,75
 174 212 174 212 149 203 c 128,-1,76
 124 194 124 194 109.5 177 c 128,-1,77
 95 160 95 160 95 131 c 0,78,79
 95 87 95 87 120 67.5 c 128,-1,80
 145 48 145 48 182 48 c 0,81,82
 206 48 206 48 229.5 58 c 128,-1,83
 253 68 253 68 272 83.5 c 128,-1,84
 291 99 291 99 302.5 117.5 c 128,-1,85
 314 136 314 136 314 153 c 2,86,-1
 314 217 l 1,72,-1
EndSplineSet
EndChar
StartChar: atilde
Encoding: 227 227 154
Width: 438
Flags: W
LayerCount: 2
Back
Fore
SplineSet
198 479 m 0,0,1
 248 479 248 479 282.5 463 c 128,-1,2
 317 447 317 447 338.5 420 c 128,-1,3
 360 393 360 393 369.5 358 c 128,-1,4
 379 323 379 323 379 286 c 2,5,-1
 379 26 l 2,6,7
 379 15 379 15 370 7.5 c 128,-1,8
 361 0 361 0 347 0 c 0,9,10
 334 0 334 0 325.5 7.5 c 128,-1,11
 317 15 317 15 317 26 c 2,12,-1
 317 70 l 1,13,14
 291 40 291 40 254 16.5 c 128,-1,15
 217 -7 217 -7 166 -7 c 0,16,17
 137 -7 137 -7 112.5 1 c 128,-1,18
 88 9 88 9 69.5 25.5 c 128,-1,19
 51 42 51 42 40.5 66.5 c 128,-1,20
 30 91 30 91 30 125 c 0,21,22
 30 166 30 166 47 192.5 c 128,-1,23
 64 219 64 219 94.5 234.5 c 128,-1,24
 125 250 125 250 168 256 c 128,-1,25
 211 262 211 262 263 262 c 2,26,-1
 314 262 l 1,27,-1
 314 286 l 2,28,29
 314 310 314 310 307.5 334 c 128,-1,30
 301 358 301 358 287 377.5 c 128,-1,31
 273 397 273 397 250.5 409.5 c 128,-1,32
 228 422 228 422 196 422 c 0,33,34
 171 422 171 422 153.5 417.5 c 128,-1,35
 136 413 136 413 123.5 407.5 c 128,-1,36
 111 402 111 402 103 397.5 c 128,-1,37
 95 393 95 393 89 393 c 0,38,39
 76 393 76 393 69.5 405 c 128,-1,40
 63 417 63 417 63 428 c 0,41,42
 63 438 63 438 75 447 c 128,-1,43
 87 456 87 456 106.5 463 c 128,-1,44
 126 470 126 470 150 474.5 c 128,-1,45
 174 479 174 479 198 479 c 0,0,1
314 217 m 1,46,-1
 272 217 l 2,47,48
 237 217 237 217 205.5 214.5 c 128,-1,49
 174 212 174 212 149 203 c 128,-1,50
 124 194 124 194 109.5 177 c 128,-1,51
 95 160 95 160 95 131 c 0,52,53
 95 87 95 87 120 67.5 c 128,-1,54
 145 48 145 48 182 48 c 0,55,56
 206 48 206 48 229.5 58 c 128,-1,57
 253 68 253 68 272 83.5 c 128,-1,58
 291 99 291 99 302.5 117.5 c 128,-1,59
 314 136 314 136 314 153 c 2,60,-1
 314 217 l 1,46,-1
143 644 m 0,61,62
 127 644 127 644 115.5 639 c 128,-1,63
 104 634 104 634 96 628 c 128,-1,64
 88 622 88 622 81.5 617 c 128,-1,65
 75 612 75 612 69 612 c 0,66,67
 59 612 59 612 54.5 620.5 c 128,-1,68
 50 629 50 629 50 637 c 0,69,70
 50 651 50 651 59 661.5 c 128,-1,71
 68 672 68 672 81.5 679.5 c 128,-1,72
 95 687 95 687 110.5 690.5 c 128,-1,73
 126 694 126 694 138 694 c 0,74,75
 157 694 157 694 173 688.5 c 128,-1,76
 189 683 189 683 204 677 c 128,-1,77
 219 671 219 671 234.5 665.5 c 128,-1,78
 250 660 250 660 270 660 c 0,79,80
 287 660 287 660 297.5 664.5 c 128,-1,81
 308 669 308 669 315 674.5 c 128,-1,82
 322 680 322 680 327.5 684.5 c 128,-1,83
 333 689 333 689 340 689 c 0,84,85
 350 689 350 689 355 681 c 128,-1,86
 360 673 360 673 360 666 c 0,87,88
 360 651 360 651 351 640 c 128,-1,89
 342 629 342 629 329 622 c 128,-1,90
 316 615 316 615 301.5 612 c 128,-1,91
 287 609 287 609 276 609 c 0,92,93
 256 609 256 609 240 614.5 c 128,-1,94
 224 620 224 620 209.5 626.5 c 128,-1,95
 195 633 195 633 179 638.5 c 128,-1,96
 163 644 163 644 143 644 c 0,61,62
EndSplineSet
EndChar
StartChar: adieresis
Encoding: 228 228 137
Width: 438
Flags: W
LayerCount: 2
Back
Fore
SplineSet
144 666 m 0,0,1
 159 666 159 666 169.5 656 c 128,-1,2
 180 646 180 646 180 630 c 0,3,4
 180 615 180 615 169.5 604 c 128,-1,5
 159 593 159 593 144 593 c 0,6,7
 128 593 128 593 117.5 604 c 128,-1,8
 107 615 107 615 107 630 c 0,9,10
 107 646 107 646 117.5 656 c 128,-1,11
 128 666 128 666 144 666 c 0,0,1
267 666 m 256,12,13
 283 666 283 666 293 656 c 128,-1,14
 303 646 303 646 303 630 c 0,15,16
 303 615 303 615 293 604 c 128,-1,17
 283 593 283 593 267 593 c 256,18,19
 251 593 251 593 240.5 604 c 128,-1,20
 230 615 230 615 230 630 c 0,21,22
 230 646 230 646 240.5 656 c 128,-1,23
 251 666 251 666 267 666 c 256,12,13
198 479 m 0,24,25
 248 479 248 479 282.5 463 c 128,-1,26
 317 447 317 447 338.5 420 c 128,-1,27
 360 393 360 393 369.5 358 c 128,-1,28
 379 323 379 323 379 286 c 2,29,-1
 379 26 l 2,30,31
 379 15 379 15 370 7.5 c 128,-1,32
 361 0 361 0 347 0 c 0,33,34
 334 0 334 0 325.5 7.5 c 128,-1,35
 317 15 317 15 317 26 c 2,36,-1
 317 70 l 1,37,38
 291 40 291 40 254 16.5 c 128,-1,39
 217 -7 217 -7 166 -7 c 0,40,41
 137 -7 137 -7 112.5 1 c 128,-1,42
 88 9 88 9 69.5 25.5 c 128,-1,43
 51 42 51 42 40.5 66.5 c 128,-1,44
 30 91 30 91 30 125 c 0,45,46
 30 166 30 166 47 192.5 c 128,-1,47
 64 219 64 219 94.5 234.5 c 128,-1,48
 125 250 125 250 168 256 c 128,-1,49
 211 262 211 262 263 262 c 2,50,-1
 314 262 l 1,51,-1
 314 286 l 2,52,53
 314 310 314 310 307.5 334 c 128,-1,54
 301 358 301 358 287 377.5 c 128,-1,55
 273 397 273 397 250.5 409.5 c 128,-1,56
 228 422 228 422 196 422 c 0,57,58
 171 422 171 422 153.5 417.5 c 128,-1,59
 136 413 136 413 123.5 407.5 c 128,-1,60
 111 402 111 402 103 397.5 c 128,-1,61
 95 393 95 393 89 393 c 0,62,63
 76 393 76 393 69.5 405 c 128,-1,64
 63 417 63 417 63 428 c 0,65,66
 63 438 63 438 75 447 c 128,-1,67
 87 456 87 456 106.5 463 c 128,-1,68
 126 470 126 470 150 474.5 c 128,-1,69
 174 479 174 479 198 479 c 0,24,25
314 217 m 1,70,-1
 272 217 l 2,71,72
 237 217 237 217 205.5 214.5 c 128,-1,73
 174 212 174 212 149 203 c 128,-1,74
 124 194 124 194 109.5 177 c 128,-1,75
 95 160 95 160 95 131 c 0,76,77
 95 87 95 87 120 67.5 c 128,-1,78
 145 48 145 48 182 48 c 0,79,80
 206 48 206 48 229.5 58 c 128,-1,81
 253 68 253 68 272 83.5 c 128,-1,82
 291 99 291 99 302.5 117.5 c 128,-1,83
 314 136 314 136 314 153 c 2,84,-1
 314 217 l 1,70,-1
EndSplineSet
EndChar
StartChar: aring
Encoding: 229 229 145
Width: 438
Flags: W
LayerCount: 2
Back
Fore
SplineSet
198 479 m 0,0,1
 248 479 248 479 282.5 463 c 128,-1,2
 317 447 317 447 338.5 420 c 128,-1,3
 360 393 360 393 369.5 358 c 128,-1,4
 379 323 379 323 379 286 c 2,5,-1
 379 26 l 2,6,7
 379 15 379 15 370 7.5 c 128,-1,8
 361 0 361 0 347 0 c 0,9,10
 334 0 334 0 325.5 7.5 c 128,-1,11
 317 15 317 15 317 26 c 2,12,-1
 317 70 l 1,13,14
 291 40 291 40 254 16.5 c 128,-1,15
 217 -7 217 -7 166 -7 c 0,16,17
 137 -7 137 -7 112.5 1 c 128,-1,18
 88 9 88 9 69.5 25.5 c 128,-1,19
 51 42 51 42 40.5 66.5 c 128,-1,20
 30 91 30 91 30 125 c 0,21,22
 30 166 30 166 47 192.5 c 128,-1,23
 64 219 64 219 94.5 234.5 c 128,-1,24
 125 250 125 250 168 256 c 128,-1,25
 211 262 211 262 263 262 c 2,26,-1
 314 262 l 1,27,-1
 314 286 l 2,28,29
 314 310 314 310 307.5 334 c 128,-1,30
 301 358 301 358 287 377.5 c 128,-1,31
 273 397 273 397 250.5 409.5 c 128,-1,32
 228 422 228 422 196 422 c 0,33,34
 171 422 171 422 153.5 417.5 c 128,-1,35
 136 413 136 413 123.5 407.5 c 128,-1,36
 111 402 111 402 103 397.5 c 128,-1,37
 95 393 95 393 89 393 c 0,38,39
 76 393 76 393 69.5 405 c 128,-1,40
 63 417 63 417 63 428 c 0,41,42
 63 438 63 438 75 447 c 128,-1,43
 87 456 87 456 106.5 463 c 128,-1,44
 126 470 126 470 150 474.5 c 128,-1,45
 174 479 174 479 198 479 c 0,0,1
314 217 m 1,46,-1
 272 217 l 2,47,48
 237 217 237 217 205.5 214.5 c 128,-1,49
 174 212 174 212 149 203 c 128,-1,50
 124 194 124 194 109.5 177 c 128,-1,51
 95 160 95 160 95 131 c 0,52,53
 95 87 95 87 120 67.5 c 128,-1,54
 145 48 145 48 182 48 c 0,55,56
 206 48 206 48 229.5 58 c 128,-1,57
 253 68 253 68 272 83.5 c 128,-1,58
 291 99 291 99 302.5 117.5 c 128,-1,59
 314 136 314 136 314 153 c 2,60,-1
 314 217 l 1,46,-1
206 768 m 0,61,62
 224 768 224 768 241 760.5 c 128,-1,63
 258 753 258 753 271 740 c 128,-1,64
 284 727 284 727 291.5 710 c 128,-1,65
 299 693 299 693 299 675 c 0,66,67
 299 656 299 656 291.5 639 c 128,-1,68
 284 622 284 622 271 608.5 c 128,-1,69
 258 595 258 595 241 587 c 128,-1,70
 224 579 224 579 206 579 c 0,71,72
 187 579 187 579 170.5 587 c 128,-1,73
 154 595 154 595 141.5 608.5 c 128,-1,74
 129 622 129 622 121.5 639 c 128,-1,75
 114 656 114 656 114 675 c 0,76,77
 114 693 114 693 121 710 c 128,-1,78
 128 727 128 727 140.5 739.5 c 128,-1,79
 153 752 153 752 169.5 760 c 128,-1,80
 186 768 186 768 206 768 c 0,61,62
265 675 m 0,81,82
 265 696 265 696 247.5 714.5 c 128,-1,83
 230 733 230 733 207 733 c 0,84,85
 181 733 181 733 164 714.5 c 128,-1,86
 147 696 147 696 147 675 c 0,87,88
 147 651 147 651 164.5 631.5 c 128,-1,89
 182 612 182 612 207 612 c 0,90,91
 230 612 230 612 247.5 631.5 c 128,-1,92
 265 651 265 651 265 675 c 0,81,82
EndSplineSet
EndChar
StartChar: ae
Encoding: 230 230 138
Width: 728
Flags: W
LayerCount: 2
Back
Fore
SplineSet
504 479 m 0,0,1
 536 479 536 479 569.5 468 c 128,-1,2
 603 457 603 457 630 433.5 c 128,-1,3
 657 410 657 410 674.5 373.5 c 128,-1,4
 692 337 692 337 692 286 c 0,5,6
 692 263 692 263 687.5 249.5 c 128,-1,7
 683 236 683 236 672.5 229 c 128,-1,8
 662 222 662 222 645.5 219.5 c 128,-1,9
 629 217 629 217 605 217 c 2,10,-1
 381 217 l 1,11,-1
 381 180 l 2,12,13
 381 150 381 150 392 126 c 128,-1,14
 403 102 403 102 423 85 c 128,-1,15
 443 68 443 68 470.5 59 c 128,-1,16
 498 50 498 50 530 50 c 0,17,18
 558 50 558 50 577.5 56 c 128,-1,19
 597 62 597 62 610.5 69.5 c 128,-1,20
 624 77 624 77 633.5 83.5 c 128,-1,21
 643 90 643 90 651 90 c 0,22,23
 662 90 662 90 670.5 80 c 128,-1,24
 679 70 679 70 679 59 c 0,25,26
 679 47 679 47 665 35.5 c 128,-1,27
 651 24 651 24 628.5 14.5 c 128,-1,28
 606 5 606 5 577.5 -1 c 128,-1,29
 549 -7 549 -7 520 -7 c 0,30,31
 463 -7 463 -7 415.5 19.5 c 128,-1,32
 368 46 368 46 343 95 c 1,33,34
 311 41 311 41 263.5 17 c 128,-1,35
 216 -7 216 -7 171 -7 c 0,36,37
 143 -7 143 -7 117.5 1 c 128,-1,38
 92 9 92 9 72.5 25.5 c 128,-1,39
 53 42 53 42 41.5 66.5 c 128,-1,40
 30 91 30 91 30 125 c 0,41,42
 30 166 30 166 46.5 192.5 c 128,-1,43
 63 219 63 219 93.5 234.5 c 128,-1,44
 124 250 124 250 167 256 c 128,-1,45
 210 262 210 262 262 262 c 2,46,-1
 313 262 l 1,47,-1
 313 286 l 2,48,49
 313 311 313 311 306.5 335.5 c 128,-1,50
 300 360 300 360 286 379.5 c 128,-1,51
 272 399 272 399 249 411 c 128,-1,52
 226 423 226 423 193 423 c 0,53,54
 169 423 169 423 151.5 418.5 c 128,-1,55
 134 414 134 414 122 408.5 c 128,-1,56
 110 403 110 403 101.5 398.5 c 128,-1,57
 93 394 93 394 87 394 c 0,58,59
 76 394 76 394 68.5 405.5 c 128,-1,60
 61 417 61 417 61 428 c 0,61,62
 61 438 61 438 73 447 c 128,-1,63
 85 456 85 456 104.5 463.5 c 128,-1,64
 124 471 124 471 148.5 475.5 c 128,-1,65
 173 480 173 480 197 480 c 0,66,67
 257 480 257 480 294 454 c 128,-1,68
 331 428 331 428 350 386 c 1,69,70
 373 427 373 427 413.5 453 c 128,-1,71
 454 479 454 479 504 479 c 0,0,1
579 265 m 2,72,73
 611 265 611 265 620 271.5 c 128,-1,74
 629 278 629 278 629 297 c 0,75,76
 629 322 629 322 620 345 c 128,-1,77
 611 368 611 368 594.5 386 c 128,-1,78
 578 404 578 404 555 414.5 c 128,-1,79
 532 425 532 425 504 425 c 0,80,81
 478 425 478 425 455.5 415.5 c 128,-1,82
 433 406 433 406 416.5 389.5 c 128,-1,83
 400 373 400 373 390.5 351 c 128,-1,84
 381 329 381 329 381 304 c 2,85,-1
 381 265 l 1,86,-1
 579 265 l 2,72,73
313 217 m 1,87,-1
 270 217 l 2,88,89
 235 217 235 217 203.5 214.5 c 128,-1,90
 172 212 172 212 148 203 c 128,-1,91
 124 194 124 194 109.5 176.5 c 128,-1,92
 95 159 95 159 95 129 c 0,93,94
 95 88 95 88 120 68 c 128,-1,95
 145 48 145 48 181 48 c 0,96,97
 207 48 207 48 231 58.5 c 128,-1,98
 255 69 255 69 273 84.5 c 128,-1,99
 291 100 291 100 302 118.5 c 128,-1,100
 313 137 313 137 313 153 c 2,101,-1
 313 217 l 1,87,-1
EndSplineSet
EndChar
StartChar: ccedilla
Encoding: 231 231 171
Width: 411
Flags: W
LayerCount: 2
Back
Fore
SplineSet
386 59 m 0,0,1
 386 40 386 40 351.5 19 c 128,-1,2
 317 -2 317 -2 258 -6 c 1,3,-1
 243 -61 l 1,4,5
 294 -63 294 -63 316.5 -84.5 c 128,-1,6
 339 -106 339 -106 339 -133 c 0,7,8
 339 -147 339 -147 333.5 -160.5 c 128,-1,9
 328 -174 328 -174 317 -185 c 128,-1,10
 306 -196 306 -196 289.5 -203 c 128,-1,11
 273 -210 273 -210 250 -210 c 0,12,13
 240 -210 240 -210 226.5 -208.5 c 128,-1,14
 213 -207 213 -207 201 -204 c 128,-1,15
 189 -201 189 -201 180.5 -196 c 128,-1,16
 172 -191 172 -191 172 -184 c 0,17,18
 172 -179 172 -179 176 -169.5 c 128,-1,19
 180 -160 180 -160 188 -160 c 0,20,21
 194 -160 194 -160 206.5 -167 c 128,-1,22
 219 -174 219 -174 244 -174 c 0,23,24
 273 -174 273 -174 285 -162.5 c 128,-1,25
 297 -151 297 -151 297 -135 c 0,26,27
 297 -115 297 -115 280 -105 c 128,-1,28
 263 -95 263 -95 234 -93 c 2,29,-1
 196 -90 l 1,30,-1
 218 -6 l 1,31,32
 174 -3 174 -3 141.5 12.5 c 128,-1,33
 109 28 109 28 88 53 c 128,-1,34
 67 78 67 78 56.5 111 c 128,-1,35
 46 144 46 144 46 183 c 2,36,-1
 46 290 l 2,37,38
 46 330 46 330 57.5 364.5 c 128,-1,39
 69 399 69 399 92.5 424.5 c 128,-1,40
 116 450 116 450 152.5 464.5 c 128,-1,41
 189 479 189 479 239 479 c 0,42,43
 271 479 271 479 297 472.5 c 128,-1,44
 323 466 323 466 341.5 456.5 c 128,-1,45
 360 447 360 447 370 435.5 c 128,-1,46
 380 424 380 424 380 414 c 0,47,48
 380 403 380 403 371.5 392.5 c 128,-1,49
 363 382 363 382 351 382 c 0,50,51
 344 382 344 382 336.5 388 c 128,-1,52
 329 394 329 394 317 400.5 c 128,-1,53
 305 407 305 407 287 413 c 128,-1,54
 269 419 269 419 242 419 c 0,55,56
 176 419 176 419 143.5 384.5 c 128,-1,57
 111 350 111 350 111 290 c 2,58,-1
 111 183 l 2,59,60
 111 122 111 122 144 87.5 c 128,-1,61
 177 53 177 53 243 53 c 0,62,63
 272 53 272 53 290.5 59 c 128,-1,64
 309 65 309 65 321 72 c 128,-1,65
 333 79 333 79 340.5 85 c 128,-1,66
 348 91 348 91 356 91 c 0,67,68
 370 91 370 91 378 80.5 c 128,-1,69
 386 70 386 70 386 59 c 0,0,1
EndSplineSet
EndChar
StartChar: egrave
Encoding: 232 232 201
Width: 458
Flags: W
LayerCount: 2
Back
Fore
SplineSet
236 479 m 0,0,1
 273 479 273 479 307 465.5 c 128,-1,2
 341 452 341 452 366.5 428 c 128,-1,3
 392 404 392 404 407.5 370.5 c 128,-1,4
 423 337 423 337 423 297 c 0,5,6
 423 268 423 268 415.5 252 c 128,-1,7
 408 236 408 236 396 228 c 128,-1,8
 384 220 384 220 368 218.5 c 128,-1,9
 352 217 352 217 336 217 c 2,10,-1
 110 217 l 1,11,-1
 110 180 l 2,12,13
 110 120 110 120 153 85 c 128,-1,14
 196 50 196 50 262 50 c 0,15,16
 292 50 292 50 311 56 c 128,-1,17
 330 62 330 62 343 69.5 c 128,-1,18
 356 77 356 77 365 83.5 c 128,-1,19
 374 90 374 90 382 90 c 0,20,21
 394 90 394 90 402 79 c 128,-1,22
 410 68 410 68 410 59 c 256,23,24
 410 50 410 50 399.5 38.5 c 128,-1,25
 389 27 389 27 369.5 17 c 128,-1,26
 350 7 350 7 322.5 0 c 128,-1,27
 295 -7 295 -7 260 -7 c 0,28,29
 213 -7 213 -7 173.5 6.5 c 128,-1,30
 134 20 134 20 105.5 45 c 128,-1,31
 77 70 77 70 61 105 c 128,-1,32
 45 140 45 140 45 183 c 2,33,-1
 45 295 l 2,34,35
 45 332 45 332 60 365.5 c 128,-1,36
 75 399 75 399 101 424.5 c 128,-1,37
 127 450 127 450 162 464.5 c 128,-1,38
 197 479 197 479 236 479 c 0,0,1
310 265 m 2,39,40
 340 265 340 265 350 271.5 c 128,-1,41
 360 278 360 278 360 299 c 0,42,43
 360 323 360 323 351 345.5 c 128,-1,44
 342 368 342 368 325.5 386 c 128,-1,45
 309 404 309 404 286 414.5 c 128,-1,46
 263 425 263 425 235 425 c 0,47,48
 209 425 209 425 186.5 415.5 c 128,-1,49
 164 406 164 406 147 389.5 c 128,-1,50
 130 373 130 373 120 350.5 c 128,-1,51
 110 328 110 328 110 303 c 2,52,-1
 110 265 l 1,53,-1
 310 265 l 2,39,40
167 651 m 2,54,55
 154 657 154 657 154 673 c 0,56,57
 154 683 154 683 160.5 692 c 128,-1,58
 167 701 167 701 178 701 c 0,59,60
 182 701 182 701 187 698 c 2,61,-1
 298 637 l 2,62,63
 309 631 309 631 309 619 c 0,64,65
 309 608 309 608 301.5 599.5 c 128,-1,66
 294 591 294 591 283 591 c 0,67,68
 277 591 277 591 273 594 c 2,69,-1
 167 651 l 2,54,55
EndSplineSet
EndChar
StartChar: eacute
Encoding: 233 233 195
Width: 458
Flags: W
LayerCount: 2
Back
Fore
SplineSet
195 594 m 2,0,1
 190 591 190 591 185 591 c 0,2,3
 174 591 174 591 166.5 599.5 c 128,-1,4
 159 608 159 608 159 619 c 0,5,6
 159 631 159 631 170 637 c 2,7,-1
 282 698 l 2,8,9
 285 701 285 701 290 701 c 0,10,11
 301 701 301 701 307.5 692 c 128,-1,12
 314 683 314 683 314 673 c 0,13,14
 314 657 314 657 302 651 c 2,15,-1
 195 594 l 2,0,1
236 479 m 0,16,17
 273 479 273 479 307 465.5 c 128,-1,18
 341 452 341 452 366.5 428 c 128,-1,19
 392 404 392 404 407.5 370.5 c 128,-1,20
 423 337 423 337 423 297 c 0,21,22
 423 268 423 268 415.5 252 c 128,-1,23
 408 236 408 236 396 228 c 128,-1,24
 384 220 384 220 368 218.5 c 128,-1,25
 352 217 352 217 336 217 c 2,26,-1
 110 217 l 1,27,-1
 110 180 l 2,28,29
 110 120 110 120 153 85 c 128,-1,30
 196 50 196 50 262 50 c 0,31,32
 292 50 292 50 311 56 c 128,-1,33
 330 62 330 62 343 69.5 c 128,-1,34
 356 77 356 77 365 83.5 c 128,-1,35
 374 90 374 90 382 90 c 0,36,37
 394 90 394 90 402 79 c 128,-1,38
 410 68 410 68 410 59 c 256,39,40
 410 50 410 50 399.5 38.5 c 128,-1,41
 389 27 389 27 369.5 17 c 128,-1,42
 350 7 350 7 322.5 0 c 128,-1,43
 295 -7 295 -7 260 -7 c 0,44,45
 213 -7 213 -7 173.5 6.5 c 128,-1,46
 134 20 134 20 105.5 45 c 128,-1,47
 77 70 77 70 61 105 c 128,-1,48
 45 140 45 140 45 183 c 2,49,-1
 45 295 l 2,50,51
 45 332 45 332 60 365.5 c 128,-1,52
 75 399 75 399 101 424.5 c 128,-1,53
 127 450 127 450 162 464.5 c 128,-1,54
 197 479 197 479 236 479 c 0,16,17
310 265 m 2,55,56
 340 265 340 265 350 271.5 c 128,-1,57
 360 278 360 278 360 299 c 0,58,59
 360 323 360 323 351 345.5 c 128,-1,60
 342 368 342 368 325.5 386 c 128,-1,61
 309 404 309 404 286 414.5 c 128,-1,62
 263 425 263 425 235 425 c 0,63,64
 209 425 209 425 186.5 415.5 c 128,-1,65
 164 406 164 406 147 389.5 c 128,-1,66
 130 373 130 373 120 350.5 c 128,-1,67
 110 328 110 328 110 303 c 2,68,-1
 110 265 l 1,69,-1
 310 265 l 2,55,56
EndSplineSet
EndChar
